<?xml version="1.0" encoding="UTF-8"?><svg id="Layer_1" xmlns="http://www.w3.org/2000/svg" viewBox="0 0 289.03 211.78"><defs><style>.cls-1{fill:#62c7e9;}.cls-2{fill:#cce7f1;}.cls-3{fill:#493b34;}.cls-4{fill:#97d7ec;}.cls-5{fill:#2c2a23;}</style></defs><path class="cls-1" d="M9.13,94.74c0,.07-.02,.13-.03,.2-.52-.03-.86,.12-.76,.74,.02,.15,.13,.3-.05,.45-.66,.56-1.02,1.12-.33,1.96,.2,.25,.19,1.03-.02,1.19-.84,.67-.51,1.56-.72,2.35-.35,1.29-.56,2.54-.52,3.87,.02,.73,.11,1.48-.15,2.2-.72,2.03-.24,4.19-.64,6.27-.07,.38-.08,.83,.42,1.03v.4c-.06,.11-.2,.24-.18,.32,.27,1.18,.26,2.36,.17,3.56-.05,.63,.02,1.26,.43,1.8v.36c-.18,1.52-.19,3.11,.36,4.49,.43,1.08,.57,2.11,.63,3.22,.05,1.03,.45,1.91,1.36,2.48,.01,.13,.02,.26,.03,.39-.28,.68-.1,1.52,.18,1.94,.8,1.22,.74,2.69,1.54,3.97,.79,1.27,.85,3.03,1.99,4.22,.6,.63,.3,1.62,.88,2.18,.63,.61,.63,.96-.17,1.31-.15,.07-.32,.18-.23,.38,.04,.09,.2,.16,.32,.17,.77,.12,1.26,.49,1.47,1.29,.08,.32,.38,.69,.67,.82,.84,.36,.94,1.09,1.07,1.82,.24,1.29,1.07,2.27,2.02,2.35h0c-.23,.35-.19,.65,.05,1.01,.22,.34,.51,1.03,.4,1.13-1,.87-.07,1.31,.35,1.86,.36,.48,.67,1.13,1.37,1.03,.88-.12,1.22,.5,1.73,.97s-.02,1.24,.34,1.54c.39,.33,1.1,.29,1.24,.97,.06,.29,.24,.34,.5,.4,.66,.15,1.07,.62,1.04,1.27-.09,1.55,1.43,1.44,2.13,2.16,.19,0,.37,.03,.56,.04h0c-.01,.48,.11,.85,.52,1.21,.57,.48,1.18,.94,1.55,1.66,.18,.34,.49,.74,1.01,.71h.01c0,.51,.33,.83,.62,1.19,.36,.45,.97,.67,1.17,1.27,.06,.48,.51,.57,.82,.8h0c.07,1.35,.45,1.59,1.63,1,.25,.14,.5,.28,.8,.21l-.02,.04c0,.57,.27,.82,.84,.76h0c.22,1.71,1.64,2.59,2.73,3.57,1.08,.98,2.63,1.43,3.55,2.69,.04,.05,.11,.13,.15,.13,1.35-.26,2.05,.97,2.94,1.53,1.38,.87,2.57,2.08,4.22,2.5,.67,.17,1.25,.69,2,.53h0c.38,.88,1.36,.79,2.02,1.22h0c.19,.6,.59,.87,1.22,.8,.13,.02,.26,.03,.39,.05,.91,1.02,2.13,1.6,3.32,2.16,1.52,.71,3.01,1.49,4.6,2.1,.94,.36,1.88,.68,2.82,1,.78,.27,1.65,.4,2.33,.75,.57,.3,.98,.41,1.53,.22,.13,.06,.26,.13,.4,.19,.38,.54,.89,.88,1.54,1.02,.99,.21,2.11,.18,2.59,1.37,.05,.12,.28,.22,.42,.23,1.27,.02,2.36,.56,3.45,1.14,.42,.22,.99,.49,1.52,.09,.13,0,.26,.02,.38,.03,.02,.23,.16,.34,.37,.41,1.72,.59,3.44,1.19,5.16,1.78,.19,.07,.4,.03,.55-.15h.38c.04,.25,.19,.37,.44,.35,.57-.2,1.04,.31,1.59,.23,.33,.66,.82,.74,1.43,.41l1.01,.17c.52,.26,.97,.99,1.64,.25,.73-.15,1.19,.52,1.87,.6,2.67,.33,5.27,1.07,7.95,1.33,.98,.09,1.91,.66,2.94,.39v.05c-.09,.72,.34,.81,.92,.84,1.11,.06,2.25,.05,3.3,.33,1.49,.4,2.96,.53,4.48,.44h.38c.03,.25-.03,.61,.32,.6,.43,0,.93,0,1.1-.56h1.2c.03,.42,.05,.91,.67,.65,1.11-.47,2.23-.12,3.35-.15,1.28-.03,2.45,.58,3.82,.26,.98-.23,2.3-.22,3.23,.33,.64,.38,1.4,.51,1.77,.32,1.55-.77,3.16-.31,4.73-.44,1.19-.1,2.4,.02,3.6,.02,1.11,0,2.25,.64,3.34-.15,.09-.07,.35,0,.47,.09,.66,.46,1.13,.11,1.57-.35,.13,0,.25,0,.38-.02,.92,.52,1.82-.06,2.74-.04,.25,0,.51-.19,.53-.52,.2-.02,.4-.03,.6-.05,.32,.35,.75,.44,1.19,.43,1.57-.03,3.14,.54,4.72,.02,.14-.05,.36,0,.48,.08,.31,.23,.53,.16,.88,0,.55-.23,1.18-.2,1.77,.06,.24,.11,.47,.27,.76,.18,1.24-.38,2.46-.8,3.78-.77,.24,0,.35-.16,.39-.38,.13,0,.27,0,.4-.02,.58,.8,1,.3,1.43-.17h.58c.11,.45,.47,.56,.85,.57,.67,.02,1.35-.11,1.99-.07,.81,.05,1.15-.3,1.45-.89h.57c.05,.35-.03,.76,.42,.94,.87,.35,2.89-.31,3.47-1.13,.26-.02,.52-.04,.79-.05,.76,.3,1.4-.06,2.03-.41,.07,0,.14,0,.2,.02,.17,.37,.5,.36,.84,.41,.9,.13,1.94-.44,2.68,.55,.05,.07,.31-.03,.48-.03,1.01,0,.81-1.04,1.28-1.51,.26,0,.52-.03,.78-.04,2.48,.09,4.92-.07,7.12-1.41,.12,0,.25,0,.37,0,1.4,.17,2.72-.27,4.07-.47,.68-.1,1.36-.51,2.09,.02,.32,.23,.92,0,1.13-.22,1.42-1.41,3.52-1.04,5.11-2.05,.54-.34,1.49-.14,2.17-.51,.67-.37,1.49-.41,2.06-.99,.14-.06,.29-.13,.43-.19,1.28,.08,2.46-.32,3.6-.84,.39-.17,.99-.12,1.03-.78,1.26-.73,2.69-1.04,4.05-1.48,2.94-.95,5.7-2.31,8.54-3.49,3.19-1.32,6.23-2.94,9.29-4.54,2.23-1.16,4.28-2.59,6.48-3.79,1.35-.73,2.8-1.51,3.92-2.66,.13-.13,.35-.17,.53-.25,.68-.08,1.61,.34,1.72-.88,0-.07,.24-.1,.33-.19,.89-.98,2.54-1.18,2.81-2.78,2.93-1.87,5-4.7,7.69-6.87,1.91-1.54,3.49-3.54,5.09-5.46,2.69-3.22,5.38-6.45,7.52-10.05,1.69-2.84,3.28-5.75,4.57-8.82,.95-2.26,1.86-4.53,2.69-6.83,1.46-4.09,2.29-8.33,3.02-12.6,.3-1.74,.14-3.49,.39-5.22,.29-2.01,.2-4.04,.22-6.06,.03-2.67-.43-5.29-.89-7.9-.66-3.73-1.45-7.46-2.8-11-.99-2.6-2.02-5.19-3.27-7.69-1.22-2.43-2.45-4.86-3.99-7.09-2.36-3.42-4.73-6.83-7.56-9.9-2.62-2.85-5.48-5.46-8.43-7.94-2.05-1.72-4.1-3.48-6.35-4.96-1.86-1.22-3.65-2.59-5.62-3.62-2.24-1.18-4.18-2.81-6.42-3.96-2.61-1.35-5.22-2.71-7.89-3.95-3.56-1.65-7.2-3.08-10.83-4.53-1.86-.74-3.77-1.36-5.7-1.9-2.17-.61-4.3-1.34-6.48-1.9-3.4-.88-6.88-1.35-10.31-2.09-2.66-.58-5.33-1.13-8.01-1.47-3.5-.45-6.96-1.11-10.49-1.39-2.95-.23-5.89-.58-8.84-.77-6.13-.41-12.27-.31-18.4-.13-4.76,.14-9.53,.43-14.26,1.11-2.33,.33-4.69,.41-7.03,.68-3.27,.38-6.54,.76-9.79,1.27-3.54,.56-7.08,1.19-10.59,1.95-3.57,.78-7.13,1.64-10.63,2.69-2.94,.88-5.77,2.1-8.66,3.15-1.45,.52-2.91,.99-4.37,1.49-1.17-.23-1.95,.65-2.9,1.04-.35,.14-.83,.16-.8,.73h0c-.36-.02-.73-.02-.91-.41,.1-.35,.95-.3,.59-.58-.97-.78-.16-1.6-.27-2.41-.16,0-.33-.04-.48,0-.42,.13-.88,.33-1.21-.07-.36-.45,.64-.36,.4-.82l.03-.03c.19,.08,.47,.37,.57,.04,.17-.57,.64-1.13,.26-1.79,1.36-.57,2.69-1.2,4.07-1.69,1.63-.57,2.92-1.75,4.58-2.28,2.42-.77,4.72-1.9,7.16-2.58,2.03-.56,4.05-1.17,6.1-1.63,1.45-.33,2.76-1.14,4.24-1.46,3.15-.68,6.34-1.18,9.51-1.78,3.4-.65,6.85-1,10.27-1.46,2.59-.35,5.2-.57,7.8-.86,3.67-.41,7.35-.8,11.03-.98,4.14-.21,8.28-.33,12.43-.29,3.3,.03,6.6,0,9.9,.24,3.55,.25,7.11,.31,10.65,.65,4.18,.4,8.34,.96,12.47,1.68,4.36,.75,8.75,1.37,13.11,2.16,3.61,.66,7.14,1.65,10.67,2.66,3.01,.86,5.92,1.94,8.82,3.11,3.29,1.33,6.65,2.51,9.87,3.99,2.72,1.25,5.41,2.59,7.99,4.18,2.24,1.38,4.48,2.76,6.72,4.15,2.67,1.66,5.22,3.53,7.8,5.34,1.47,1.03,2.75,2.32,4.17,3.39,1.53,1.15,2.98,2.4,4.39,3.67,1.2,1.09,2.35,2.29,3.5,3.46,2.76,2.8,5.15,5.92,7.58,8.99,1.46,1.84,2.66,3.89,3.9,5.91,1.05,1.71,1.94,3.5,3,5.2,1.28,2.05,2.11,4.35,2.98,6.61,.37,.95,.68,1.92,1.02,2.89-.31,.05-.36,.15-.23,.47,.22,.54,.49,1.12,.47,1.68-.03,.75,.1,1.41,.47,2.01,.46,.76,.69,1.54,.75,2.43s.2,1.84,1.15,2.33c0,.2,.01,.39,.02,.59-.5-.02-.73,.03-.65,.72,.11,.86,.26,1.77-.24,2.64-.27,.47-.1,1.01,.59,1.1,.95,.12,.78,.73,.6,1.33-.05,.17-.36,.33-.21,.51,.57,.68,.29,1.47,.32,2.21,.02,.46,.25,.66,.59,.83,0,.2,.02,.4,.03,.6-.56,.7-.8,1.53-.49,2.36,.26,.71,.22,1.26-.22,1.85-.13,.18-.31,.7-.14,.69,.99-.06,.35,.55,.33,.8-.13,1.62-.32,3.23,.14,4.83-.06,.4-.11,.81-.17,1.21-.54,.75-.78,1.54-.43,2.45-.02,.19-.05,.38-.07,.58-.38,.13-.46,.34-.14,.63-.01,.27-.03,.53-.04,.8-.6,.1-.54,.56-.58,1-.05,.63,.24,1.35-.17,1.86-.66,.82-.67,1.71-.61,2.65-.98,2.88-1.72,5.84-2.92,8.65-1.42,3.35-3.1,6.59-4.57,9.91-1.03,2.34-2.36,4.46-3.71,6.58-1.23,1.93-2.55,3.82-4.12,5.52-1.06,1.15-2.04,2.37-3.01,3.6-1.85,2.35-4.15,4.25-6.25,6.36-3.35,3.36-7.03,6.32-10.69,9.31-2.29,1.87-4.72,3.6-7.27,5.08-1.44,.83-2.79,1.81-4.31,2.55-1.13,.55-2.09,1.53-3.2,2.19-1.48,.88-2.86,1.89-4.52,2.51-1.72,.65-3.35,1.64-5.04,2.4-2.55,1.14-5.07,2.44-7.86,2.99-.49,.09-.94,.36-1.4,.55-.29,.03-.6-.07-.84,.18-.12,.03-.24,.07-.35,.1-.27-.09-.4,.06-.49,.28-.11,.03-.22,.05-.34,.08-.88-.1-1.52,.35-2.09,.94h-.33c.03-.95-.6-.81-1.17-.66-1.39,.36-2.77,.73-4.13,1.2-2.23,.78-4.57,1.2-6.9,1.66-3.1,.61-6.19,1.27-9.29,1.9-.27,0-.57-.22-.74-.19-.64,.13-1.46-.61-1.92,.37-.33,0-.66,0-1,.02-.28-.28-.55-.29-.81,.03-.34,.06-.67,.11-1.01,.17-.35-.27-.65-.33-.83,.18-.27,.16-.56,.21-.87,.2-1.95-.02-3.9,.14-5.83,.43-1.56,.24-3.12,.19-4.69,.24-2.55,.08-5.08,.37-7.63,.54s-5.11,.18-7.64,.49c-3.01,.36-6.02,.35-9.03,.55-.59,.04-1.2-.3-1.78,.04-.39,0-.79,0-1.18,.02-2.11-.18-4.28-.3-6.33-.1-2.85,.28-5.65-.23-8.48-.03-2.2,.15-4.43-.34-6.66-.13-.17,.02-.38,.05-.5-.03-.86-.57-1.82-.39-2.73-.35-1.75,.07-3.42-.54-5.16-.55-1.79,0-3.43-1.05-5.28-.71-1.1,.2-2.27-.25-3.35,.26-.14,0-.27,0-.41-.02-1.68-.81-3.51-.4-5.27-.6-.13-.02-.26-.04-.39-.05-.45-.7-1.05-.36-1.62-.23h-.39c0-.62-.46-.49-.85-.57-.93-.19-2.04,0-2.5-1.22-.07-.18-.47-.35-.69-.32-.92,.12-1.75-.16-2.6-.44-.19-.06-.5,0-.66,.12-.35,.26-.65,.17-1.03,.11-1.35-.23-2.68-.6-4.06-.64-1.34-.28-2.65-.68-3.93-1.11-1.83-.61-3.69-1.12-5.52-1.71-1.49-.48-3-.91-4.43-1.54-1.31-.58-2.59-1.17-4.02-1.42-1.81-.32-3.35-1.35-5.05-1.98-3.28-1.21-6.33-2.95-9.39-4.63-2.23-1.22-4.51-2.37-6.57-3.87-2.48-1.81-5.08-3.43-7.51-5.32-1.94-1.51-3.83-3.1-5.84-4.52-1-.71-1.87-1.72-2.81-2.58-3.03-2.74-5.64-5.89-8.68-8.62-1.09-1.31-2.17-2.64-3.28-3.94-.61-.7-.93-1.65-1.82-2.11h0c0-.39-.2-.58-.56-.65-.15-.26-.3-.51-.46-.77,.03-.27-.11-.4-.37-.43h0c0-.17-.05-.31-.23-.37-.07-.07-.13-.15-.2-.22,.01-.26-.12-.4-.37-.44-.14-.2-.28-.39-.42-.59,0-.25-.13-.39-.37-.45-.01-.05-.03-.1-.06-.15,0-.29-.1-.51-.39-.61h0c-.3-.68-.26-1.57-1.19-1.85,0-.06-.02-.12-.03-.17-.06-.07-.13-.14-.19-.21h0c0-.29-.15-.48-.4-.62-2.63-4.22-5.02-8.56-7.11-13.08-1.55-3.35-2.55-6.87-3.69-10.36-1.52-4.67-2.17-9.45-2.42-14.33-.18-3.5-.27-7-.02-10.49,.25-3.61,.73-7.21,1.77-10.69,.62-2.07,.91-4.26,1.88-6.2,1.58-3.17,2.22-6.67,3.71-9.87,.46-.99,.95-1.96,1.43-2.94,.87-.81,1.51-1.75,2-2.85,.25-.56-.04-.61-.34-.79,.06-.13,.12-.27,.18-.4,.25-.08,.53-.11,.75-.24,.64-.34,.51-.61-.11-.79,.63-1.57,1.59-2.96,2.43-4.42,.2-.34,.4-.69,.59-1.03,.25-.03,.38-.17,.36-.43h0c.37,.07,.78-.1,1.26,.25-.88,.23-.56,.93-.75,1.42-.14,.37-.26,.89,.2,1.06,.4,.14,.7-.25,.92-.6,.36-.57,.69-1.18,1.12-1.69,.47-.57,.94-1.07,.8-1.91-.09-.51,.25-.87,.69-1.11,1.05-.58,1.25-1.11,.85-2.26,.72-1.43,1.98-2.56,2.23-4.23,0-.03,.03-.06,.05-.08,1.65-1.83,3.15-3.8,4.82-5.6,1.58-1.71,3.33-3.29,5.02-4.91,1.03-.98,2.15-1.88,3.08-2.97,.26-.21,.53-.42,.79-.62,.85-.4,1.42-1.15,2.12-1.74,.42-.36,.56-.8,.47-1.33,3.13-2.31,6.26-4.61,9.6-6.61,.83-.49,1.59-1.13,2.57-1.34-.04,.29-.06,.59-.13,.88-.04,.18-.31,.33-.11,.52,.18,.17,.49,.16,.66,.03,.97-.75,2.13-1.12,3.22-1.61,.31-.14,.19-.46,.22-.71,.27-.02,.5-.11,.74-.24,1.55-.84,3.13-1.65,4.69-2.47,.43,.07,.72-.14,1.07-.38,1.02-.7,1.53-1.68,1.77-2.84h0c.48,.05,.95,.11,1.04-.56,.4-.21,.79-.43,1.19-.64,.27,.11,.61-.39,.85,.15,.33,.75,.83,.53,1.38,.22,.99-.55,2.09-.88,3.03-1.55,.12-.09,.36-.04,.34-.26,0-.18-.17-.33-.33-.32-.93,.09-.49-.43-.37-.8,2.21-1.04,4.38-2.17,6.65-3.08,2.2-.88,4.3-2.05,6.67-2.45,.59,.17,1.19,.06,1.77-.05,1.01-.19,1.82-1,2.92-.92,.68,.04,1.38,.02,1.97-.32,.93-.54,1.94-.87,2.91-1.3,.57,.11,1.01-.23,1.51-.38,1.71-.51,3.44-.94,5.14-1.48,.62-.2,1.39-.43,1.23-1.39,.68-.01,1.27-.26,1.81-.67,.21,0,.41-.01,.62-.02,.88-.03,1.73-.15,2.42-.78,1.79-.29,3.39-1.19,5.17-1.55,.8-.16,1.56,.01,2.37-.17,1.37-.31,2.71-.73,4.08-1.03,2.85-.63,5.6-1.62,8.54-1.92,1.52-.15,3.07-.2,4.55-.47,2.42-.45,4.88-.58,7.26-1.13,2.6-.61,5.22-.27,7.83-.53,4.26-.43,8.55-.28,12.83-.19,3.63,.08,7.26,.32,10.88,.56,1.97,.13,3.93,.44,5.9,.59,2.48,.18,4.95,.49,7.4,.88,3.25,.51,6.47,1.13,9.71,1.7,2.84,.51,5.65,1.15,8.46,1.82,3.03,.72,6.03,1.54,9.01,2.45,2.4,.74,4.63,1.88,6.94,2.84,.58,.24,1.07,.72,1.53,1.11,.92,.78-.23,.94-.64,1.39,.5,.32,1.17,.29,1.53,.81,.16,.23,.34,.45,.22,.73-.16,.38-.44,.15-.69,.12-.35-.05-.81-.26-1,.15-.19,.39-.4,.85,.06,1.29,.42,.4,.15,.74-.27,.93-.27,.12-.6,.21-.88,.17-1.2-.16-2.41-.54-3.47-.98-2.4-1-4.74-2.17-7.24-2.95-2.55-.79-5.11-1.58-7.73-2.1-1.94-.38-3.84-.98-5.81-1.25-3.82-.53-7.59-1.34-11.42-1.87-4.96-.68-9.95-1.11-14.93-1.49-4.63-.35-9.29-.38-13.95-.28-2.32,.05-4.63,.14-6.95,.21-.57,0-1.15-.04-1.72,0-.39,.03-.91-.25-1.13,.35h-.81c-.35-.24-.69-.27-1,.06-.32,0-.64,.02-.96,.03-.33-.03-.7-.18-.88,.27-.4,.03-.79,.06-1.19,.1-.59-.33-1.11-.08-1.62,.19-.32,.02-.64,.05-.96,.07-.25-.17-.54-.23-.84-.27-1.51-.22-2.81,.89-4.31,.71-.05,0-.13,.27-.19,.42-.78,.26-1.59,.29-2.4,.33-.02-.43,.07-.78,.58-.88,.3-.06,.42-.29,.43-.58,1.27-.15,2.54-.3,3.82-.45,.38-.01,.86,.27,1.06-.33h.37c.28,.54,.56,.55,.83-.01,.65,.17,1.1-.38,1.71-.46,.91-.13,1.82-.02,2.71-.19,2.16-.4,4.32-.69,6.52-.84,2.8-.2,5.6-.29,8.4-.3,4.56-.02,9.12,.1,13.69,.17,.8,.01,1.62-.06,2.4,.2,1.33,.41,2.7,.13,4.05,.23,.4,.06,.81,.12,1.21,.18,.33,.3,.67,.28,1.01,.03h.38c.07,.24,.15,.47,.43,.17,.17,0,.35-.04,.5,0,2.56,.68,5.22,.77,7.81,1.22,1.49,.45,3.09,.37,4.59,.91,.3,.11,1.01,.09,1.33-.46,.23-.39,.09-.79-.13-1.03-.38-.43-.94-.33-1.37-.07-.55,.33-1.15,.12-1.53-.06-.75-.35-1.5-.29-2.26-.34-2.54-.56-5.1-.96-7.69-1.06-.14-.36-.35-.43-.64-.14-.19-.01-.38-.03-.58-.04-.14-.37-.34-.46-.64-.15-1-.22-2.02-.21-3.04-.17-.49-.46-1.09-.14-1.64-.23-.33-.06-.64-.2-.68-.51-.06-.42,.4-.22,.59-.36s.56-.03,.6-.47c-.77-.07-1.5-.26-2.27-.3-1.62-.08-3.24-.3-4.86-.35-1.04-.03-2.05-.33-3.11-.24-.46,.04-.88,.2-1.38,.15-1.45-.17-2.91-.35-4.38-.14-.25,.04-.63-.09-.63,.3s.38,.31,.63,.3c1.85-.05,3.69,.08,5.53,.19,.84,.05,1.05,.28,.66,1.02h-.81c-.09-.16-.25-.19-.41-.18-.33-.07-.66-.13-.99-.2h-2.02c-.56,.06-1.21-.23-1.64,.37h-.39c-.09-.48-.46-.39-.78-.39-.83,0-1.66,0-2.48,.02-.95,.38-1.91,.55-2.92,.21-.09-.03-.2,0-.3,0-2.09,.23-4.17,.52-6.29,.39-.78-.05-1.59,.05-2.37,.2-2.51,.46-5.01,.94-7.54,1.2-1.15,.12-2.41,.06-3.36,.83-.33,.27-.58,.38-.94,.38-1.17,0-2.34-.04-3.51,0-.82,.03-1.68-.04-2.46,.3-2.35,1.01-4.94,1.09-7.35,1.86-.29-.24-.36-.01-.43,.21-.26,.02-.51,.04-.77,.07-1.4,.97-3.28,.5-4.66,1.55-.18,.13-.53,.04-.79,.06-.35,.03-.75-.14-1.04,.22-.2,.02-.4,.04-.6,.06-.1-.67,.09-1.05,.86-1.17,.59-.09,1.18-.33,1.65-.79-1.11,.14-2.22,.03-3.32,.34-1.81,.52-3.55,1.27-5.41,1.64-1.41,.28-2.82,.67-4.11,1.35-1.22,.28-2.48,.45-3.66,.85-2.57,.87-5.1,1.87-7.65,2.81-.43-.05-.89-.16-1.21,.23-.47,.56-1.12,.82-1.71,1.19-.57,.36-1.31,.25-1.77,.79-1.72,.68-3.48,1.19-5.13,2.1-2.38,1.32-4.89,2.41-7.32,3.63-.51,.25-1.17,.39-1.28,1.12-.38,.15-.74,.32-.63,.84-.34,.55-1,.47-1.49,.68-1.07,.47-1.82,1.44-2.96,1.77-.07,0-.15-.03-.2,0-1.24,.95-3.15,.84-3.97,2.47-.03,.07-.17,.08-.27,.12-1.3,.44-2.56,.95-3.5,2.01-.24,.11-.49,.2-.72,.34-1.31,.77-2.61,1.55-3.92,2.32-.36-.02-.48,.32-.72,.47-.34,.22-.74,.62-.38,.95,.31,.3,.7-.08,.91-.44,.13,0,.25,0,.38,0,.52,.61,1.19,.63,1.78,.26,.67-.41,.64,0,.71,.43-.14,.06-.27,.13-.41,.19-1.06-.28-1.56,.3-1.84,1.21-.2,.13-.4,.26-.6,.39-.07,.07-.13,.14-.2,.22-.15,.37-.59,.34-.83,.58-.56-.03-.91,.22-1.03,.77-.12,.25-.3,.41-.59,.43-.83-.15-2.32,.89-2.63,1.84-.19,.14-.38,.29-.57,.43-.36-.07-.58,.18-.87,.33-.93,.46-1.7,1.66-2.99,.85,0-.12,.02-.24,.03-.37,.78-.11,1.11-.82,1.62-1.27,.28-.25,.24-.59-.31-.46-.3,.07-.73-.23-.81,.41-.04,.37-.47,.62-.82,.64-.7,.05-.98,.46-1.16,1.04-1.16,1.07-2.3,2.17-3.49,3.19-.73,.63-1.37,1.33-1.96,2.09-.86-.15-.6,.66-.8,1.01-.76,1.3-2.06,2.09-2.91,3.28-1.12,1.57-2.7,2.75-3.61,4.52-.33,.63-.59,1.49-1.42,1.85-.72,.31-1.44,.87-1.53,1.61-.16,1.31-.79,2.11-1.88,2.75-.55,.32-.61,1.05-.25,1.52,.43,.57,.7,0,.97-.33,.2-.25,.4-.2,.51,.11,.1,.29,.36,.25,.59,.26,0,.07,0,.13-.02,.2-.42,.03-.86,.04-.37,.62-.07,.07-.13,.14-.2,.21-1.42,.71-1.58,2.38-2.6,3.43-.57,.59-1.12,1.24-1.81,1.61-.41,.22-.38,.29-.38,.66-.01,.75,.22,1.57-.33,2.23-.83,.98-1.04,2.21-1.38,3.38h0c-.56,.06-.37,.49-.4,.81-.68,1.78-1.36,3.56-2.25,5.25-.28,.05-.65-.09-.76,.32-.07,.29-.16,.54-.52,.47-.37-.07-.3-.39-.32-.65-.02-.2,0-.45-.26-.48-.35-.04-.32,.27-.36,.49-.11,.68-.12,1.41-.52,1.97-.54,.77-.54,1.53-.38,2.39,.12,.61,.15,1.27-.57,1.63-.39,.19-.33,.49-.13,.75,.31,.38,.6,.83,1.18,.82-.02,.19-.04,.39-.06,.58-.48,.02-.89,.08-.6,.75,.09,.2,.04,.45,.06,.68l-.02-.03ZM192.64,8.01c.55,.68,1.12,.89,1.87,.69,.34-.09,.7-.03,1.03,.24,.32,.27,.77,.15,1.17,.12,.37-.03,.35-.35,.35-.61,0-.19,.03-.5-.23-.47-1.36,.15-2.73-.66-4.18,.03h-.01Z"/><path class="cls-5" d="M224.18,127.97c-.02,.13-.03,.27-.05,.4-.32,.15-.8,.09-.9,.51-.33,1.35-1.37,2.47-1.3,3.96,0,.3-.34,.67,.03,.91,.48,.32,.56-.28,.83-.46,.1-.07,.26-.04,.39-.06-.61,2.22-1.1,4.48-1.88,6.64-.32,.88-.74,1.9-1.63,2.48-.33,.21-.57,.37-.59,.83,0,.21-.34,.62-.62,.56-.9-.19-1.28,.48-1.7,.98-.6,.72-1.56,.58-2.21,1.08-1.3,1-2.88,.96-4.37,1.21-.88,.15-1.73-.17-2.52-.56-2.34-1.17-4.65-2.42-6.54-4.25-.97-.94-1.6-2.21-2.13-3.46-1.45-3.39-2.33-6.97-3.26-10.53-.47-1.8-.37-3.71-.74-5.55-.53-2.6-.9-5.24-.91-7.88,0-2.92-.14-5.84,.06-8.77,.18-2.54,.2-5.09,.12-7.64-.05-1.65,.21-3.28,.43-4.9,.2-1.47,.25-2.93,.35-4.4,.18-2.75,.54-5.48,.93-8.21,.25-1.75,.46-3.53,.86-5.23,.57-2.39,.91-4.83,1.53-7.22,.46-1.79,1.06-3.54,1.78-5.17,.92-2.07,2.11-4.11,3.98-5.58,.25,.18,.44,.56,.82,.17,.15-.16,.36-.17,.55-.03,.77,.56,1.58,.19,2.13-.2,1.05-.73,2.12-1.17,3.4-1.26,.95-.07,2.02-.17,2.74,.23,1.19,.66,2.27,1.12,3.6,.68,.05,.07,.11,.14,.16,.2,.08,.07,.15,.14,.23,.21,.07,0,.12,0,.17,.06,.06,.05,.11,.1,.17,.16,.19,.23,.47,.31,.72,.31,.67,0,.83,.39,.73,.92-.08,.41,.13,.64,.34,.89,1.65,1.94,2.75,4.2,3.59,6.56,.55,1.53,.74,3.18,1.14,4.76,.52,2.08,.9,4.19,1.33,6.29,.25,1.19,.26,2.4,.41,3.59,.35,2.68,.65,5.38,.82,8.08,.16,2.37,.22,4.76,.15,7.14-.08,2.95-.34,5.9-.52,8.86-.5,.32-.3-.35-.55-.41-.05,.99-.72,1.78-.74,2.77,0,.26-.18,.48,.18,.66,.91,.45,.44,.8-.02,1.33-.41,.47-1.37,1.05-.74,1.73,.64,.69,.46,1.1,.09,1.71-.16,.27-.15,.64-.24,.97-.4,1.48,.11,3.07-.54,4.52-.09,.2-.05,.43,.13,.55,.47,.31,.2,.47,0,.84-.25,.49-1.1,.84-.84,1.32,.83,1.55,.07,2.91-.35,4.29-.37,1.21-.22,1.85,.96,2.42h.04Zm-7.26-46c-.03-.2-.06-.4-.08-.6-.18-2.11-.56-4.19-1-6.25-.48-2.25-.8-4.55-1.6-6.72-.22-.6-.74-1.18-.71-1.76,.07-1.45-.95-2.26-1.66-3.22-.65-.89-1.72-.88-2.26,0-1.11,1.78-2.07,3.66-2.58,5.71-.48,1.95-.75,3.94-1.13,5.91-.45,2.32-1.02,4.63-1.37,6.97-.5,3.29-.76,6.6-.92,9.93-.16,3.32-.68,6.62-.68,9.96,0,2.35-.04,4.71-.15,7.06-.12,2.47-.3,4.97,0,7.44,.24,1.99,.66,3.97,.88,5.95,.42,3.72,1.38,7.29,2.41,10.85,.5,1.74,1.34,3.37,2.9,4.5,.8,.58,1.48,1.12,2.02-.24,.09-.23,.34-.44,.56-.57,.96-.55,1.29-1.47,1.58-2.45,.94-3.13,1.76-6.27,2.23-9.53,.5-3.51,1.01-7,1.12-10.54,0-.33,0-.66,.17-.98,.37-.75,.31-1.56,.32-2.38,.02-1.41,.12-2.8,.38-4.2,.14-.73,.58-1.49,.35-2.22-.41-1.3-.23-2.57,.02-3.84,.24-1.22,.05-2.45,.12-3.67,.09-1.58-.02-3.17-.09-4.76-.08-1.81-.15-3.62-.34-5.43-.18-1.63-.23-3.27-.47-4.89l-.02-.02Z"/><path class="cls-5" d="M90.13,119.44v.65c-.1,.27-.21,.53-.31,.81-.16-.15,.02-.53-.42-.5-.23,.78,.27,1.51,.14,2.27l-.02,.05c-.13,.19-.25,.38-.38,.56-.11,1.56-.44,3.04-1.06,4.51-.58,1.38-1.25,2.72-1.8,4.12-.85,2.18-2.62,3.61-4.23,5.16-1.01,.97-2.08,1.89-3.3,2.61-.48,.28-.97,.45-1.54,.3-.16-.04-.36-.1-.5-.04-2.37,1.07-4.52-.15-6.43-1.08-1.92-.94-3.32-2.77-4.3-4.83-.66-1.39-1.21-2.81-1.72-4.24-.72-2-1.34-4.05-1.66-6.17-.3-1.95-.75-3.88-.88-5.85-.08-1.17-.33-2.35-.27-3.51,.2-3.56-.02-7.11,.24-10.68,.25-3.45,.51-6.91,.79-10.35,.18-2.22,.2-4.48,.73-6.67,.16-.67,.08-1.38,.15-2.08,.38-3.37,.78-6.73,1.4-10.08,.44-2.34,.42-4.77,.98-7.07,.5-2.03,.37-4.22,1.43-6.11,.02-.03,.04-.06,.03-.09-.23-2.18,1.53-3.68,1.96-5.64,.13-.6,.81-1.07,1.1-1.66,1.63-3.34,4.44-4.59,7.97-4.64,1.14-.02,2.26-.35,3.41-.17,.03,.36,.29,.4,.57,.4l.03,.03c-.03,.8-.61,1.8,.84,2.04,.25,.04,.96-.1,.7,.64,.13,.03,.26,.09,.38,.08,.21-.02,.27-.16,.21-.36-.05-.18-.17-.38,.16-.55,.32,.58,.67,1.16,1.52,.8,.36-.15,.39,.21,.54,.43,.36,.53,.45,1.16,1.05,1.65,.45,.37,1.23,.72,1.3,1.62,.02,.25,.72,.91,1.41,.5,1.39,2.54,1.69,5.32,2.1,8.13,.5,3.39,.66,6.79,.75,10.2,0,.17,0,.33-.01,.5-.25,.21-.25,.41,.01,.61,0,.23,.02,.46,.03,.69v.8c.02,.13,.04,.25,.06,.38-.09,.36-.25,.71-.26,1.07,0,.38-.3,.9,.34,1.11,0,.54-.01,1.09-.02,1.63-.24,.26-.23,.52-.01,.78,0,.31,0,.61,.01,.92-.62-.13-.59,.24-.48,.64,.09,.35,.31,.75,.11,1.05-.45,.7-.26,1.28,.2,1.86-.01,.34-.03,.67-.04,1.01-.57,.83-.37,1.83-.83,2.88,.52-.2,.47-.62,.79-.63,.11,.42,.09,.82-.12,1.2-.65,.5-.67,1.13-.49,1.88,.13,.56,.09,1.16,.12,1.73-.34,.03-.1-.4-.37-.34-.31,.83,.5,1.82-.45,2.53,.09,.12-.19,.59,.2,.36,.56-.32,.35,.1,.38,.3,.09,.54-.2,1.15,.3,1.62-.02,.2-.05,.4-.07,.61-.35,.04-.49,.22-.35,.55,.18,.42,.09,.86,.13,1.29,.06,.69-.04,1.19-1.06,.86,.34,.67,.91,1.13,.46,1.78-1.67,.74,.41,2.52-.93,3.38-.17,.11-.09,.44,.08,.64,.02,.02,.06,.04,.07,.07,.17,.52,.32,.96,.08,1.58-.25,.67-.32,1.48-.12,2.28,0,.02,0-.02,0-.05-.05,.04-.12,.07-.14,.12-.01,.03,.04,.09,.06,.14,.03-.06,.05-.11,.08-.21,.27,.2,.25,.42-.1,.56-.37,.15-.5,.47-.5,.8,.02,.69-.1,1.36-.23,2.11,.24-.17,.3-.49,.59-.28,.05,.42,.06,.83-.16,1.21-.68,.86-.19,1.9-.42,2.82v-.03Zm-17.01-51.01h0c-.13-.15-.25-.18-.38,.01-.52,.78-.57,1.51,.24,2.14l-.02,.08c-.81,.15-.79,.62-.45,1.2h0c0,.94,.03,1.98-.43,2.72-.39,.63-.37,1.11-.24,1.69,.13,.59,.02,1.06-.54,1.37-.23,.12-.6,.21-.52,.53,.26,1.04,.51,2.05,.3,3.15-.04,.21-.05,.39-.16,.62-.25,.48-.64,1.08,.34,1.27-.03,.13-.05,.26-.08,.39-.39,.06-.8-.08-1.14,.1-.18,.7,.76,1.26,.17,1.99,0,0,.07,.1,.12,.13,.55,.35,.51,.71,0,1.06-.33,.22-.34,.58-.17,.78,.29,.35,.17,.66,.14,1.01-.02,.3-.16,.7,.33,.82,.03,.21,.02,.41-.11,.6-.43,.44-.5,.91-.12,1.41,.04,.47,.12,.95,0,1.42-.44,.22-1.9-.57-.98,1,.05,.08-.06,.24-.08,.37-.09,.9-.33,1.83-.22,2.71,.1,.8,.08,1.45-.3,2.17-.3,.57-.55,1.27-.03,1.89,.78,.94,.58,1.95,.17,2.92-.18,.44-.44,.71,.16,1.03,.17,.09,.48,.71-.26,.7-.24,0-.35,.13-.48,.3-.57,.69-.32,1.18,.89,1.71v.8c-.24,.71-.49,1.41-.91,2.05-.19,.29-.18,.68-.07,.98,.17,.44,.07,.84-.15,1.15-.36,.5-.16,.68,.28,.89,.28,.13,.7,.2,.57,.68-.57,2.09-.17,4.07,.68,6,.08,.19,.12,.34,.12,.55,.02,1.12-.28,2.29,.74,3.24,.34,.31,.49,1.3,.39,1.44-.76,1.02,.31,1.54,.49,2.28,.21,.88,.96,1.56,.89,2.55-.04,.56,1.4,2.2,1.95,2.28,.3,.05,.53-.07,.67-.34,.87-.93,1.92-1.75,2.58-2.81,1.83-2.96,2.86-6.27,3.69-9.62,.88-3.55,1.34-7.19,1.91-10.8,.61-3.87,.98-7.8,1.1-11.74,.15-4.71,.08-9.42,.49-14.12,.14-1.58,.02-3.16,.02-4.74,0-3.23-.08-6.45-.53-9.64-.18-1.27,.02-2.56-.35-3.81-.5-1.7-1.06-3.35-2.06-4.85-.86-1.3-1.94-2.27-3.38-2.8-.49-.18-1-.15-1.34,.38-1.15,1.77-2.14,3.6-2.59,5.69-.36,1.68-.78,3.35-1.17,5.03h-.17Zm-5.2,32.47c-.11-.02-.18-.05-.23-.04-.1,.02-.11,.08-.01,.13,.03,.01,.07,.02,.1,.01,.04-.02,.08-.05,.15-.1h0Z"/><path class="cls-5" d="M164.86,138.97c-.67-1.32-1.48-2.57-2.03-3.96-.38-.96-.56-1.95-.66-2.96-.13-1.36-.51-2.68-.56-4.06-.06-1.81-.28-3.62-.34-5.43-.1-3.11,.05-6.23,.07-9.34,.02-2.41,.16-4.82,.29-7.21,.08-1.45-.23-2.91,.15-4.36,.13-.48,.17-1.11-.18-1.56-.41-.53,.22-.82,.2-1.29-.1-3.42,.64-6.78,.7-10.18,.03-1.63,.09-3.26,.18-4.88,.13-2.37,.48-4.72,.88-7.06,.48-2.81,1.45-5.48,2.03-8.27,.46-2.22,1.13-4.43,2.08-6.55,.62-1.38,1.5-2.58,2.21-3.89,.37-.67,1.01-1.43,1.91-1.69,.59,.22,.95,1.11,1.78,.61l.02-.02c.2-.02,.57-.03,.57-.05,.02-.86,.67-.45,1.07-.55,1.08-.28,2.01,.51,3.17,.34,.77-.11,1.9-.05,2.71,.53,.46,.33,.99,.45,1.5,.52,.43,.06,.62,.21,.8,.6,.17,.36,.4,.97,.77,.9,1.29-.26,1.8,.6,2.34,1.44,.36,.55,.46,1.24,.93,1.76,.16-.22,.07-.64,.51-.62,.91,2.21,.88,4.59,1.26,6.9,.27,1.62,.64,3.25,.54,4.87-.12,1.98,.07,3.94-.02,5.92-.18,4.23-1.03,8.37-1.38,12.57-.15,1.77-.23,3.55-.4,5.32-.18,1.96-1.2,3.54-2.6,4.8-.58,.52-1.61,.55-2.45,.75-1.85,.44-3.72,.79-5.55,1.29-1.99,.55-4.03,.63-6.06,.86-.55,.06-.84,.15-.89,.77-.17,2.24-.33,4.48-.32,6.74,0,1.31-.09,2.61-.18,3.92-.2,2.96,.04,5.92,.24,8.87,.17,2.42,.33,4.89,1.43,7.15,.89,1.82,2.16,3.27,4.01,4.17,.51,.25,1.04,.45,1.55,.7,.62,.3,1.2,.48,1.91,.17,.87-.38,1.69,.47,2.58,.27,.66,1.11,1.92,1.88,2.16,3.18,.11,.61,.31,1.63-.81,1.99-.47,.15-.35,.78-.43,1.17-.14,.67-.46,.8-1.09,.91-.78,.14-1.57-.15-2.32,.15h-.28c-.28,0-.56,0-.85,0-.68-.12-1.35-.33-2.05-.19-.33,0-.66-.02-.99-.03-.29-.32-.66-.18-1.01-.19-.21-.02-.41-.03-.62-.05-.15-.36-.5-.42-.8-.56-.76-.33-1.51-.67-2.27-1-1.37-.49-2.36-1.85-4-1.72-.03-.27,.06-.58-.27-.73-.05-.23-.06-.48-.35-.56-.08-.09-.15-.17-.23-.25-.1-.37-.29-.69-.59-.93h.03Zm15.62-61.57c.12-3.43-.4-7.03-.88-10.63-.19-1.45-1.03-2.57-2.2-3.41-.36-.26-.92-.54-1.2,.04-.65,1.33-1.38,2.6-1.64,4.13-.4,2.36-.98,4.7-1.57,7.02-.55,2.18-1.21,4.35-1.4,6.57-.45,5.36-.71,10.74-1.07,16.11-.05,.66,0,.82,.72,.61,2.01-.58,4.04-1.07,6.07-1.56,1.54-.37,1.58-.44,1.72-2.3,.18-2.28,.33-4.56,.65-6.83,.45-3.17,.88-6.32,.8-9.76h0Zm4.58-17.21c-.22-.37-.46-.5-.78-.4-.12,.04-.19,.21-.1,.33,.23,.29,.51,.2,.88,.06h0Zm-13.27-3.45s-.06,0-.08,.03c0,0,0,.05,.02,.07,.03,0,.06,0,.08-.03,0,0,0-.05-.02-.07Z"/><path class="cls-5" d="M147.86,128.38c0,.53,0,1.06,0,1.59-.28,1.17-.43,2.36-.73,3.53-.24,.95-.12,2,.09,3.04,.19,.93,.55,1.88,.41,2.87-.03,.19,0,.37-.28,.44-1.23,.27-1.26,.35-.74,1.49,.25,1.44,.02,1.93-1.15,2.54-.21,.11-.45,.18-.51-.02-.19-.66-.95-.7-1.26-1.27-.23-.43-.77-.34-1.18-.14-.23,.11-.45,.26-.67,.38-.86,.48-1.49,.69-1.53-.66,0-.15-.11-.4-.22-.44-1.66-.57-1.2-2.05-1.2-3.16,0-5.16,.1-10.31,.18-15.47,.11-7.08,.24-14.16,.36-21.23,.05-2.8-.03-5.6,.16-8.39,.23-3.33,.15-6.66,.28-9.99,.24-6.42,.39-12.85,.28-19.27,0-.74,.03-1.44,.44-2.13,.44-.76,.18-1.1-.67-1.15-1.95-.11-3.9-.29-5.86-.19-.72,.03-1.4-.17-2.09-.27-.69-.1-1.17-.34-.75-1.16,.13-.26-.03-.38-.26-.41-.97-.14-.62-.85-.58-1.4,.04-.58,.31-.94,.96-.87,.4,.05,.53-.2,.61-.52,.3-1.16,1.07-1.67,2.25-1.67,2.32,0,4.64-.05,6.96-.05,3.13,0,6.26,.3,9.4,.06,1.4-.11,2.76-.52,4.19-.43,.6,.04,1.19,.11,1.8,.05,.92-.08,2.81,1.75,2.44,2.34-.67,1.11-.59,2.38-.89,3.54-.27,1.07-.76,1.15-1.53,1.21-.8,.06-1.6,.11-2.41,.11-1.77,0-3.54-.02-5.31-.05-.38,0-.58,.05-.55,.48,.26,3.73,.14,7.46,.11,11.19-.03,3.74-.29,7.48-.13,11.21,.31,7.24-.1,14.48-.09,21.72,0,3.19-.05,6.4-.15,9.59-.26,.26-.26,.53,0,.8,0,.61-.02,1.23-.03,1.84-.16,.16-.15,.36-.15,.56,0,2.51,0,5.01,0,7.52v.02c-.37,.42-.42,.97-.57,1.47-.14,.45,0,.81,.58,.76h-.03Z"/><path class="cls-1" d="M172.11,162.68c.21,3.28-.63,6.41-2.94,8.9-1.91,2.06-4.12,4.08-7.02,4.36-2.33,.22-4.99,.27-6.86-1.51-1.77-1.67-3.25-3.71-3.78-6.18-.3-1.37-1.18-2.58-.98-4.08,.13-.99,.16-2,.22-3,0-.22,.09-.39,.23-.54,1.6-1.67,3.2-3.33,4.81-4.99,.38-.39,.87-.64,1.41-.73,.25-.04,.48-.14,.59-.34,1.1-1.94,3-1.61,4.65-1.38,1.84,.25,3.67,.91,5.21,1.97,1.65,1.14,3.43,2.27,4.15,4.31,.34,.98,.46,2.03,.32,3.2h0Zm-11.89-1.84s-.09-.02-.19,0c-1,.26-2.46,2.92-2.24,3.92,.28,1.24,.85,2.15,2.17,2.46,.49,.11,.84,.64,1.47,.42,1.39-.5,2.92-2.71,2.77-4.21-.09-.93-.45-1.84-1.41-2.16-.78-.26-1.65-.29-2.58-.43h.01Z"/><path class="cls-4" d="M80.63,18.44c.45-.54,1.19-.43,1.77-.79,.59-.37,1.24-.63,1.71-1.19,.32-.38,.78-.28,1.21-.23-.04,.29-.28,.33-.5,.42-.16,.06-.31,.19-.22,.38,.08,.18,.29,.17,.44,.12,1.24-.39,2.53-.69,3.71-1.22,2.35-1.07,4.82-1.81,7.28-2.55,.53-.16,.64-.36,.61-.81,1.29-.68,2.7-1.07,4.11-1.35,1.86-.37,3.6-1.12,5.41-1.64,1.1-.31,2.21-.21,3.32-.34-.47,.46-1.06,.7-1.65,.79-.76,.12-.96,.5-.86,1.17-.68,.22-1.4,.36-2.05,.67-1.05,.5-2.11,.69-3.27,.78-.94,.07-1.96-.08-2.86,.42-.38,.21-.8,.53-.61,.89,.15,.29,.79,.61,1.07,.51,1.5-.54,3.04-.9,4.57-1.3,1.12-.3,2.19-.86,3.35-1,.99-.12,.88-.45,.39-1.03,.29-.36,.69-.18,1.04-.22,.27-.03,.61,.07,.79-.06,1.38-1.05,3.26-.58,4.66-1.55-.11,.62,.15,.79,.76,.83,.9,.05,1.65-.38,2.47-.54,1.05-.2,2.11-.3,3.13-.64,.88-.3,1.8-.45,2.74-.46-.11,.64-.9,.34-1.17,.85,.27,.14,.53,.27,.79,.41-1.02,.65-2.23,.66-3.36,.9-2.13,.47-4.25,.95-6.38,1.38-2.9,.58-5.72,1.43-8.57,2.14-2.6,.65-5.14,1.52-7.71,2.26-2.67,.77-5.22,1.85-7.81,2.85-2.84,1.09-5.71,2.1-8.53,3.24-1.77,.72-3.47,1.6-5.19,2.43-3.19,1.55-6.38,3.09-9.55,4.69-1.56,.78-3.07,1.65-4.59,2.52-3.07,1.76-6.13,3.55-9.2,5.33-.07-.41-.04-.84-.71-.43-.59,.37-1.26,.35-1.78-.26,.29-.37,.63-.63,1.07-.84,.98-.47,1.93-1.02,2.82-1.64,.32-.22,.98-.47,.58-1.14,.94-1.06,2.2-1.57,3.5-2.01,.09-.03,.23-.05,.27-.12,.82-1.63,2.73-1.52,3.97-2.47,.04-.03,.13,0,.2,0,0,.23-.27,.43-.1,.66,.12,.16,.3,.07,.46,0,2.05-1,3.97-2.24,6.12-3.05,.36-.14,.53-.45,.66-.88h-.88c.27-.86,1.18-.8,1.78-1.16,.99-.59,2.07-1.17,3.18-1.35,.82-.13,1.71,.14,2.53-.33,.24-.14,.7-.09,.7-.44,0-.53-.57-.2-.95-.45,1.67-.66,3.05-1.65,4.67-2.17,.45-.14,.94-.31,.65-.97h0Z"/><path class="cls-3" d="M114.3,155.1c2.25-.16,4.4,.4,6.42,1.25,1.66,.71,3.1,1.87,3.39,3.86,.14,.97-.17,1.96-.88,2.59-1.29,1.15-2.65,2.15-4.36,2.77-1.63,.59-3.2,1.42-4.83,2.07-.61,.24-.46,1.13-.57,1.74-.18,1.02-.33,2.07-.33,3.1,0,.94-.47,1.48-1.22,1.76-.78,.29-1.94-.35-2.4-1.09-.74-1.19-.91-2.57-.5-3.77,.5-1.5,.3-3,.5-4.48,.17-1.29,0-2.62,.08-3.93,.05-.9-.38-.93-1.01-.69-.58,.23-1.14,.46-1.75,.61-.6,.15-.98,0-1.32-.42-.3-.36-.6-.73-.83-1.13-.85-1.5-.34-2.55,1.36-2.93,1.24-.27,2.46-.64,3.7-.91,1.51-.33,3.03-.52,4.57-.4h-.02Zm-.68,6.26h0c0,.37,.01,.74,0,1.11-.05,1.07,.05,1.11,1.01,.72,1.62-.67,2.97-1.73,4.39-2.71,.19-.13,.55-.2,.49-.56-.06-.33-.41-.4-.62-.44-1.22-.2-2.39-.66-3.69-.5-1.63,.19-1.63,.11-1.57,1.68v.71h0Z"/><path class="cls-3" d="M209.59,172.38c.34-1.74-.18-3.72,.2-5.69,.31-1.6,.25-1.6-1.37-1.46-1.1,.1-2.19,.08-3.29,.36-1.4,.36-3.54-2.09-3.17-3.51,.25-.94,1.08-.96,1.85-1.02,2.63-.2,5.3,.11,7.89-.59,.41-.11,.72,.09,1.08,.1,1.92,.06,3.81-.28,5.69-.55,2.04-.29,4.09,1.3,3.9,3.34-.08,.88-1.24,1.73-2.18,1.41-1.66-.56-3.26,0-4.88,.08-.47,.02-.72,.39-.78,.8-.23,1.48-.5,2.96-.5,4.46,0,1.69-.21,3.35-.39,5.02-.07,.63-.2,1.27-.84,1.71-.62,.42-1.07,.3-1.64-.07-1.56-1.02-1.67-2.55-1.57-4.39h0Z"/><path class="cls-3" d="M74.31,156.93c.16,1.08-.58,1.66-1.54,2.07-1.43,.61-3.09,.66-4.32,1.77-.29,.26-.8,.43-.76,.85,.04,.46,.59,.43,.95,.57,1.53,.58,3.01,1.34,3.67,2.91,1.07,2.55,.21,3.63-1.59,5.16-1.32,1.12-2.89,1.95-4.34,2.92-.59,.39-.94,1.2-1.85,1.02-.19-.04-.5,0-.57-.1-.47-.75-1-1.49-1.31-2.31-.39-1.03,.46-1.54,1.12-2.13,1.19-1.06,2.73-1.59,3.87-2.71,.2-.2,.6-.32,.47-.69-.11-.31-.44-.32-.75-.39-1.51-.36-2.88-1.04-3.73-2.35-.87-1.34-.99-3.1,.46-4.91,1.46-1.82,3.45-2.69,5.61-3.29,.65-.18,1.29-.39,1.93-.56,1.54-.42,2.72,.49,2.68,2.17h0Z"/><path class="cls-1" d="M118.34,97.36c.04,.65-.13,1.28-.32,1.89-.5,1.65-2.04,2.39-3.89,1.92-.39-.1-.8-.3-1.17-.25-1.63,.25-2.68-.93-3.31-1.91-.83-1.29-1.87-2.9-.59-4.64,.27-.37,.31-.9,.55-1.29,.67-1.11,1.45-1.84,2.95-2.07,1.56-.23,2.51,.17,3.38,1.3,.22,.28,.56,.59,.88,.64,.91,.14,1.08,.8,1.18,1.5,.14,.96,.22,1.93,.33,2.9h0Z"/><path class="cls-2" d="M187.75,207.15c.33,0,.66,0,1-.02,.35,.05,.82-.08,.96,.34,.19,.55,.65,.67,1.08,.88-1.3,.27-2.58,.74-3.89,.78-1.86,.06-3.65,.46-5.48,.66-1.65,.17-3.31,.23-4.96,.41-3.36,.36-6.76,.2-10.11,.77-.75,.13-1.55,.05-2.32,.03-2.75-.04-5.48,.4-8.21,.53-2.16,.1-4.34,.46-6.52,.09-.5-.08-.88-.18-.83-.75,.05-.64-.81-.31-.83-.84,.58-.34,1.19,0,1.78-.04,3.01-.2,6.02-.18,9.03-.55,2.53-.31,5.1-.32,7.64-.49s5.08-.47,7.63-.54c1.57-.05,3.13,0,4.69-.24,1.93-.29,3.87-.45,5.83-.43,.31,0,.6-.04,.87-.2,.29,0,.6,.1,.83-.18,.34-.06,.67-.11,1.01-.17,.29,.45,.56,.46,.81-.03h0Z"/><path class="cls-4" d="M39.33,44.72c1.3,.82,2.06-.38,2.99-.85,.29-.14,.5-.4,.87-.33-.88,1.08-1.96,1.96-3.04,2.83-2.15,1.72-4.07,3.7-6.02,5.64-2.4,2.39-4.71,4.86-6.72,7.59-1.11,1.5-2.36,2.89-3.3,4.52-.53,.91-1.33,1.66-2.01,2.48-.23-.01-.49,.03-.59-.26-.11-.32-.3-.36-.51-.11-.27,.33-.54,.9-.97,.33-.36-.48-.3-1.2,.25-1.52,1.09-.64,1.72-1.44,1.88-2.75,.09-.74,.81-1.3,1.53-1.61,.84-.36,1.1-1.22,1.42-1.85,.92-1.77,2.49-2.95,3.61-4.52,.85-1.19,2.15-1.99,2.91-3.28,.2-.35-.06-1.16,.8-1.02,.21,.88,.63,.89,1.2,.3,.12-.12,.26-.22,.35-.36,1.43-2.1,3.57-3.48,5.35-5.22h0Z"/><path class="cls-5" d="M116.71,118.71c.37,.55,1.09,.72,1.8,.88,.57,.13,1.35-.17,1.48,.79,0,.04,.19,.1,.26,.08,1.64-.6,1.65,1.28,2.61,1.73,.18,.08,0,.28-.15,.38-.26,.2-.22,.45-.13,.73,.44,1.32-.02,2.34-1.3,2.89-.05,.02-.18-.03-.19-.01-.7,1.44-1.74,1.16-2.86,.58-.13-.07-.32,0-.42-.18-.32-.55-.31-.54-.75-.05-.27,.3-.69,.7-.99,.55-.4-.21-.85-.43-1.03-1.05-.21-.73-.32-1.57-.93-2.15-.07-.07-.12-.29-.08-.35,.57-.77,.56-1.75,.93-2.61,.39-.91,.75-1.73,1.75-2.2h0Z"/><path class="cls-5" d="M109.78,71.43s-.02,.06-.02,.1c-.15,1.67-1.72,2.07-2.69,3-.2,.2-.53,.15-.77,.02-.65-.36-1.27-.34-1.84,.13-.43-.4,.12-.74-.02-1.23-.34,.38-.62,.7-.91,1-.39,.41-.93,.5-1.38,.26-.47-.25-.63-.7-.39-1.29,.2-.48-.11-.95-.29-1.42-.32-.83-.53-1.54-.03-2.55,.65-1.32,1.63-2.33,2.46-3.46,.97,1.19,2.91,.74,3.75,2.17,.54-.23,.61,.7,1.16,.46h0c-.14,1.11,.75,1.84,1,2.81h-.03Z"/><path class="cls-5" d="M120.68,57.8c-.9,1.06-1.58,1.11-2.58,.27-.09-.08-.23-.25-.2-.3,.45-.79-.16-1.31-.47-1.89-.18-.32,0-.52,.1-.74,.24-.55,.54-1.09,.59-1.71,.03-.38,.27-.51,.58-.59,.4-.1,.64-.32,.62-.78-.05-.85,.73-.85,1.11-.74,1.01,.27,2.22,.53,2.92,1.03,.88,.63,2.25,.81,2.68,1.98,.26,.71,.58,1.46,.35,2.27-.23,.82-.45,1.61-1.57,1.62-.65,0-.81,.79-1.39,1.06-1.29,.61-2.57,.03-2.74-1.48Z"/><path class="cls-5" d="M124.56,111.74c-.02,.08-.04,.15-.06,.23-.91,.13-1.43,1.57-2.63,.79-.01,0-.08,.08-.12,.11-.45,.41-.97,.51-1.54,.29h-.06v-.06c-.08-.23-.17-.49-.46-.43-.25,.05-.17,.32-.18,.51-.43,.46-1.47,.28-1.81-.35-.25-.46-.49-.92-.79-1.36-.82-1.19-.35-2.32,.33-3.37,.23-.35,.22-.68,.24-1.04,.05-.67,.26-1.26,1.06-1.27,.5,0,.53-.45,.82-.68,.19,.2,.37,.57,.57,.58,1.34,.07,2.35,1.24,3.74,1.09,.12-.01,.36,.05,.36,.05-.1,.82,.55,1.14,1.01,1.62,.49,.5-.35,.58-.33,1,1.19,.39,.46,1.17,.23,1.87-.27-.16-.23-.5-.44-.8-.22,.46-.15,.83,.05,1.19v.03Z"/><path class="cls-2" d="M107.97,208.4c1.09-.5,2.25-.05,3.35-.26,1.85-.34,3.49,.7,5.28,.71,1.74,0,3.4,.62,5.16,.55,.92-.04,1.88-.22,2.73,.35,.12,.08,.33,.05,.5,.03,2.23-.21,4.46,.28,6.66,.13,2.83-.19,5.63,.32,8.48,.03,2.05-.2,4.22-.09,6.33,.1-.08,.1-.14,.23-.25,.3-.29,.18-.83-.18-.93,.35-.07,.4,.53,.36,.64,.7-.09,.27-.32,.21-.51,.21-2.55,0-5.12,.16-7.65-.05-2.19-.18-4.41,.15-6.55-.19-3.23-.52-6.53,.04-9.72-.76-1.89-.48-3.81-.4-5.72-.52-1.45-.09-2.96-.47-4.41-.85-.62-.16-1.24-.18-1.86-.22-.61-.04-1.11-.19-1.54-.6h.01Z"/><path class="cls-5" d="M115.02,133.44c0,.13,0,.27-.01,.4-.46,.17-.64,.5-.58,.97-.53,.42-1.19,.69-1.43,1.44-.12,.38-.54,.43-.94,.44-.63,0-1.32-.11-1.57-.48-.32-.47-.49-.39-.93-.1-1.02,.66-1.81,.33-2.31-.8-.14-.32-.07-.86-.72-.74-.26,.05-.33-.33-.23-.44,.79-.8-.05-1.8,.41-2.69,.55-1.06,1.22-2.01,1.89-2.98,.09-.13,.28-.06,.35,.04,.7,.95,1.69,1.02,2.75,.94,.07,0,.15,.12,.23,.19l-.02,.08,.08,.03c.1,.15,.19,.31,.29,.46,.02,.23-.02,.5,.07,.69,.21,.4-.32,1.37,.54,1.17,.69-.16-.14-.83-.03-1.28,.89,.17,1.2,.84,1.37,1.62,.1,.47,.19,.94,.79,1.03h0Z"/><path class="cls-5" d="M104.11,138.5v.4c-.31,.39-.02,.37,.24,.36h0c-.08,.47,.36,.8,.36,1.25,.03,.69-.59,1.02-.97,1.32-.79,.62-1.68,1.17-2.68,1.46-.17,.05-.54,.03-.56-.04-.4-1.34-1.21-.48-1.63-.18-.93,.66-1.43,.11-1.79-.53-.82-1.42-1.02-3.04-.91-4.62,.05-.71,.67-1.39,1.04-2.08,.3-.13,.53-.08,.61,.27,.07,.29,.37,.47,.51,.33,.74-.77,1.43-.68,2.14,.02,1.57-.54,1.37,.75,1.61,1.57,.05,.16,.03,.34,.31,.38,.58-.96,1.13-.29,1.71,.08h.01Z"/><path class="cls-5" d="M104.42,80.55c0-.31,.18-.44,.46-.5,.16,.17-.21,.69,.41,.57s1.26-.05,1.84,.15c1.07,.36,1.97,1.22,3.22,1.05h.03c.02,.5,.17,.93,.63,1.2,.09,.39,0,.97,.74,.65,.28-.12,.27,.17,.21,.27-.51,.83-.1,2.29-1.72,2.42-.33,.03-1.23,0-.99,.96,.05,.21-.38,.38-.65,.29-1.22-.43-2.46-.65-3.75-.34-.23,.06-.44-.1-.51-.25-.37-.78-1.3-1.34-1.23-2.26,.06-.91-.38-1.91,.35-2.74,.23-.1,.25-.27,.17-.48,.36,.06,.75,.18,.98-.23,.16-.28,.16-.58-.2-.75h.01Z"/><path class="cls-5" d="M107.38,62.75c0-.13,.01-.27,.02-.4,.34-.78-.13-.82-.7-.76l.03-.04-.03,.04c.05-.29-.07-.44-.36-.45h0c0-.32,.02-.64,.02-.96,.03-.08,.05-.17,.08-.25,.47,.22,.7,.09,.94-.4,.13-.27,.05-.81,.59-.82,.72-.02,.61-.37,.27-.73-.21-.22-.29-.44-.28-.72,0-.07,.03-.12,.07-.18l.15-.18,.03-.02c.06-.07,.11-.13,.17-.2,.24-.51,.77-.81,1.18-1.01,.26-.13,.92,.27,1.38,.46,.66,.27,1.59,.22,1.78,1.24,.02,.09,.49,.08,.75,.12h.31c.07,0,.11,.06,.1,.13-.13,.25-.37,.26-.6,.27-.29,0-.54,.1-.59,.43-.05,.34,.24,.33,.46,.4,.35,.11,.35,.4,.24,.65-.18,.4,.09,.52,.32,.72,.36,.31,1.23,.13,1.01,1.02,.13,0,.27,.03,.4,.04,.02,.38-.41,.48-.5,.79-.49-.02-.95,.38-1.46,.12-.19-.1-.4-.16-.57-.02-.25,.2-.09,.42,.05,.62,.18,.24,.27,.48,.03,.72-.28,.29-.53,.14-.8-.04-.75-.49-1.66-.77-2.47-.67-.73,.09-1.01-.1-1.2-.64-.51,.05-.31,.75-.81,.72h0Z"/><path class="cls-2" d="M35.08,42.13c-.93,1.09-2.05,1.98-3.08,2.97-1.69,1.62-3.45,3.2-5.02,4.91-1.66,1.8-3.17,3.77-4.82,5.6-.02,.02-.05,.05-.05,.08-.25,1.67-1.51,2.81-2.23,4.23-.15,.13-.38,.22-.45,.38-.63,1.36-1.92,2.21-2.63,3.51-.13,.23-.28,.5-.59,.48-.36-.03-.33-.35-.39-.61-.03-.12-.13-.22-.2-.33,1.18-2.03,2.58-3.9,3.94-5.81,1.61-2.27,3.39-4.41,5.24-6.47,2.9-3.24,5.96-6.33,9.2-9.24,.66-.59,.81-.1,1.09,.3h0Z"/><path class="cls-2" d="M175.4,203.29c-.26,.02-.52,.04-.79,.05-1.3,.06-2.59,.13-3.89,.19h-.57c-1.43,.13-2.86,.26-4.29,.39h-.58c-.48,.02-.99-.18-1.43,.17-.13,0-.27,0-.4,.02-.64,.02-1.28,0-1.91,.05-2.87,.2-5.73,.49-8.62,.26-1.14-.09-2.31-.38-3.45,.05-.2,.02-.4,.03-.6,.05-.78-.23-1.5,.13-2.25,.19-.36,.03-.84-.2-1.02,.37-.13,0-.25,0-.38,.02-.89-.9-2.03-.5-3.06-.54-1.6-.07-3.2-.05-4.8-.08-.21,0-.35-.18-.44-.37,.47-.5,.95,0,1.42,0,3.17-.03,6.34,.12,9.5-.06,2.02-.12,4.05,.05,6.04-.19,1.57-.19,3.12-.36,4.7-.4,2.74-.07,5.45-.46,8.18-.62,2.94-.17,5.89-.28,8.83-.53,1.63-.14,3.26,.12,4.88,.34-.91,.48-1.9,.11-2.84,.23-.07,0-.14,0-.2-.02-.73-.13-1.4,.03-2.03,.41v.02Z"/><path class="cls-2" d="M191.4,206.95c3.1-.64,6.19-1.29,9.29-1.9,2.32-.46,4.66-.88,6.9-1.66,1.36-.48,2.75-.84,4.13-1.2,.57-.15,1.19-.29,1.17,.66-.28,.75-1.06,.73-1.6,.87-2.27,.58-4.47,1.37-6.77,1.88-2.01,.44-3.96,1.14-6,1.44-2.02,.29-3.97,.88-5.96,1.28-.27,.05-.53,.13-.74-.12-.09-.42-.57-.72-.4-1.22l-.02-.03Z"/><path class="cls-2" d="M116.06,204.48h-.38c-.05-.17-.11-.33-.3-.35-1.12-.15-2.24-.25-3.35-.43-1.04-.18-2.14-.17-3.08-.76,.03,0,.08,0,.1-.02,1.71-1.6,3.61-.34,5.39-.28,1.82,.07,3.63,.36,5.47,.33,1.36-.02,2.73,.18,4.08,.38,1.39,.21,2.79,.11,4.18,.18,1.44,.07,2.87,.21,4.31,.19,.24,0,.35,.16,.39,.38-.5,0-1.01,.04-1.51,0-.74-.06-1.51-.14-2.18,.12-1.11,.44-2.26,.58-3.39,.57-2.37-.03-4.73-.39-7.11-.27h-1.2c-.33-.03-.66,.02-.95-.23-.24-.21-.42-.14-.48,.19h0Z"/><path class="cls-2" d="M106.98,202.83c-1.04,.27-1.96-.29-2.94-.39-2.68-.26-5.29-1-7.95-1.33-.68-.08-1.14-.75-1.87-.6-.53-.2-1.03-.57-1.64-.25-.34-.06-.68-.12-1.01-.18-.33-.65-.93-.35-1.43-.41-.55,.08-1.02-.44-1.59-.23-.03-.27-.17-.4-.44-.35h-.38c-1.92-.99-3.87-1.9-6.08-2.04-.13,0-.26-.02-.38-.03,0-.19-.02-.38-.03-.57,1.59-.23,2.95,.63,4.41,.98,1.37,.33,2.49,1.28,3.85,1.66,.57,.16,1.1,.19,1.68,.09,1.44-.25,2.85-.11,4.25,.35,.47,.16,.98,.2,1.47,.26,3.02,.4,5.95,1.31,9,1.5,1.03,.06,.88,.93,1.1,1.55h-.02Z"/><path class="cls-4" d="M118.69,204.53c2.38-.12,4.74,.24,7.11,.27,1.13,.02,2.29-.12,3.39-.57,.67-.27,1.44-.18,2.18-.12,.5,.04,1.01,0,1.51,0,.33,0,.66-.02,.99-.03h.23c.94,.1,1.88-.2,2.82,.04,.09,.19,.23,.37,.44,.37,1.6,.03,3.2,0,4.8,.08,1.04,.04,2.17-.35,3.06,.54-.44,.47-.91,.81-1.57,.35-.12-.09-.38-.15-.47-.09-1.09,.79-2.23,.14-3.34,.15-1.2,0-2.41-.12-3.6-.02-1.57,.13-3.17-.33-4.73,.44-.37,.18-1.13,.06-1.77-.32-.93-.55-2.25-.56-3.23-.33-1.37,.32-2.54-.29-3.82-.26-1.12,.03-2.23-.32-3.35,.15-.62,.26-.64-.23-.67-.65h.02Z"/><path class="cls-3" d="M224.18,127.97c-1.18-.57-1.33-1.21-.96-2.42,.41-1.37,1.18-2.74,.35-4.29-.26-.48,.59-.83,.84-1.32,.19-.37,.46-.53,0-.84-.18-.12-.23-.35-.13-.55,.65-1.45,.14-3.04,.54-4.52,.09-.32,.07-.69,.24-.97,.37-.61,.55-1.02-.09-1.71-.63-.68,.33-1.26,.74-1.73,.46-.52,.93-.88,.02-1.33-.36-.18-.19-.4-.18-.66,.02-.98,.7-1.78,.74-2.77,.25,.06,.04,.72,.55,.41,.06,.42,.04,.84-.2,1.21-.14-.03-.32-.2-.38,.06-.05,.25,.15,.33,.36,.34-.28,2.97-.57,5.95-.83,8.92-.19,2.24-.35,4.48-.74,6.69-.32,1.81-.22,3.69-.86,5.45v.03Z"/><path class="cls-3" d="M187.96,61.74c-.44-.02-.35,.4-.51,.62-.46-.52-.57-1.21-.93-1.76-.55-.85-1.05-1.7-2.34-1.44-.37,.07-.6-.54-.77-.9-.18-.39-.37-.54-.8-.6-.52-.07-1.05-.2-1.5-.52-.81-.58-1.94-.64-2.71-.53-1.16,.17-2.09-.62-3.17-.34-.4,.1-1.04-.3-1.07,.55,0,.02-.37,.04-.57,.05-.03-.15-.03-.32-.26-.3-.02,0-.06,.04-.06,.06-.02,.22,.16,.22,.3,.25-.83,.5-1.19-.39-1.78-.61,2.35-1.5,4.77-2.16,7.43-.77,1.01,.53,2.13,.8,3.28,.96,1.87,.27,3.02,1.6,4.16,2.92,.59,.69,1.06,1.46,1.3,2.35h0Z"/><path class="cls-4" d="M54.5,29.59c-.03,.25,.09,.58-.22,.71-1.09,.5-2.25,.86-3.22,1.61-.17,.13-.48,.14-.66-.03-.2-.19,.07-.34,.11-.52,.07-.29,.09-.58,.13-.88,.35-.85,1.24-.96,1.9-1.35,2.39-1.42,4.79-2.84,7.26-4.13,.96-.5,1.84-1.23,2.98-1.36-.24,1.16-.76,2.14-1.77,2.84-.35,.24-.64,.45-1.07,.38,.09-.57,0-.89-.67-.51-.99,.56-2.07,.99-2.97,1.67-.62,.47-1.71,.47-1.8,1.56h0Z"/><path class="cls-4" d="M18.85,152.48c-.94-.08-1.78-1.06-2.02-2.35-.14-.74-.24-1.46-1.07-1.82-.29-.13-.59-.5-.67-.82-.21-.8-.7-1.17-1.47-1.29-.12-.02-.28-.08-.32-.17-.09-.19,.08-.31,.23-.38,.79-.35,.79-.7,.17-1.31-.58-.56-.28-1.54-.88-2.18-1.13-1.2-1.2-2.95-1.99-4.22-.79-1.28-.74-2.75-1.54-3.97-.27-.42-.46-1.26-.18-1.94,.91,.52,1.76,2.29,1.56,3.3-.05,.27-.15,.5-.02,.77,1.29,2.66,2.22,5.48,3.63,8.08,.78,1.44,1.51,2.91,2.58,4.16,.38,.44,.36,1,.62,1.47,.49,.87,.91,1.78,1.36,2.67h0Z"/><path class="cls-3" d="M217.37,57.27c-1.33,.43-2.41-.03-3.6-.68-.73-.4-1.8-.29-2.74-.23-1.28,.09-2.35,.53-3.4,1.26-.55,.38-1.37,.75-2.13,.2-.19-.14-.4-.12-.55,.03-.38,.39-.57,0-.82-.17,1.48-2.02,3.7-1.95,5.85-2.01,.59-.02,1.18,.15,1.74-.18,.63-.39,1.22,.07,1.71,.26,1.19,.46,2.46,.66,3.63,1.17,.13,.06,.22,.23,.32,.36h-.01Z"/><path class="cls-4" d="M6.32,115.01c-.49-.2-.49-.64-.42-1.03,.4-2.07-.09-4.23,.64-6.27,.26-.73,.17-1.47,.15-2.2-.03-1.32,.17-2.58,.52-3.87,.21-.79-.12-1.69,.72-2.35,.21-.16,.22-.95,.02-1.19-.7-.85-.33-1.41,.33-1.96,.18-.15,.07-.31,.05-.45-.1-.62,.24-.77,.76-.74,.03,.97,.14,1.91-.45,2.82-.25,.38-.22,.97-.23,1.47,0,1.4-.86,2.61-.92,3.99-.08,1.86-.06,3.72-.22,5.57-.19,2.09-.78,4.13-.95,6.23v-.02Z"/><path class="cls-4" d="M27.98,164.81c-.7-.72-2.21-.61-2.13-2.16,.04-.65-.37-1.12-1.04-1.27-.25-.06-.44-.11-.5-.4-.14-.69-.85-.64-1.24-.97-.36-.3,.17-1.06-.34-1.54-.5-.47-.85-1.09-1.73-.97-.7,.09-1.01-.56-1.37-1.03-.42-.55-1.34-.99-.35-1.86,.12-.1-.18-.79-.4-1.13-.24-.37-.28-.66-.05-1.01,.96,.62,1.59,1.57,2.16,2.48,1.41,2.26,2.72,4.57,4.85,6.28,.5,.4,.68,1.16,1.03,1.74,.25,.41,.48,.78,.85,1.06,.08,.26,.16,.51,.24,.77h.02Z"/><path class="cls-4" d="M53.08,184.67c-.75,.16-1.33-.35-2-.53-1.65-.43-2.83-1.63-4.22-2.5-.88-.56-1.58-1.79-2.94-1.53-.04,0-.11-.07-.15-.13-.92-1.26-2.46-1.71-3.55-2.69s-2.51-1.87-2.73-3.57c.26,0,.53,0,.79,.02,.91,.32,1.06,1.29,1.55,1.94,1,1.33,2.4,2.04,3.7,2.92,1.53,1.04,3.08,2.04,4.54,3.18,1.13,.88,2.32,1.85,3.84,2.09,.53,.09,.95,.28,1.16,.8h0Z"/><path class="cls-3" d="M90.33,56.28c-.69,.41-1.39-.25-1.41-.5-.07-.9-.85-1.26-1.3-1.62-.6-.49-.69-1.12-1.05-1.65-.15-.22-.18-.58-.54-.43-.84,.35-1.19-.23-1.52-.8-.32,.17-.21,.37-.16,.55,.06,.2,0,.34-.21,.36-.12,0-.25-.05-.38-.08,.26-.74-.46-.6-.7-.64-1.45-.23-.87-1.24-.84-2.04,3.71,1.08,6.59,3.16,8.1,6.85h.01Z"/><path class="cls-4" d="M100.67,8.49c.16,.96-.6,1.19-1.23,1.39-1.7,.54-3.44,.96-5.14,1.48-.5,.15-.95,.49-1.51,.38-.8-.38-1.53,.04-2.28,.22-.42,.1-.87,.47-1.15-.2,1.97-.74,3.89-1.65,5.95-2.07,1.73-.35,3.37-1.05,5.14-1.23,.08,.01,.15,.03,.23,.04h0Z"/><path class="cls-4" d="M9.73,92.73c-.59,0-.87-.44-1.18-.82-.21-.26-.26-.56,.13-.75,.72-.35,.69-1.01,.57-1.63-.16-.86-.16-1.63,.38-2.39,.39-.56,.41-1.29,.52-1.97,.03-.22,0-.53,.36-.49,.26,.03,.24,.28,.26,.48,.02,.26-.05,.58,.32,.65,.36,.07,.44-.18,.52-.47,.11-.41,.48-.27,.76-.32-.02,.23,.05,.51-.06,.69-1.27,2.1-1.54,4.54-2.38,6.79-.03,.09-.12,.15-.18,.23h-.02Z"/><path class="cls-4" d="M15.61,63.36c.07,.11,.17,.21,.2,.33,.06,.26,.04,.58,.39,.61,.31,.02,.47-.25,.59-.48,.7-1.3,2-2.15,2.63-3.51,.07-.16,.3-.26,.45-.38,.4,1.16,.2,1.68-.85,2.26-.44,.24-.78,.6-.69,1.11,.15,.84-.32,1.34-.8,1.91-.43,.52-.76,1.12-1.12,1.69-.22,.35-.52,.74-.92,.6-.47-.17-.35-.68-.2-1.06,.19-.49-.13-1.19,.75-1.42-.48-.35-.89-.18-1.26-.25,.08-.58,.69-.86,.82-1.42h.01Z"/><path class="cls-4" d="M207.81,196.63c-.57,.58-1.39,.62-2.06,.99-.68,.37-1.63,.17-2.17,.51-1.59,1-3.7,.63-5.11,2.05-.21,.21-.81,.45-1.13,.22-.73-.53-1.41-.12-2.09-.02-1.35,.21-2.68,.64-4.07,.47,0-.13,.02-.25,.02-.38,.2,0,.4,0,.6-.02,.7-.02,1.45,.18,2.04-.41,.13,0,.25,0,.38,0,.3,.05,.58,.05,.66-.33,2.75-.27,5.36-1.18,8.03-1.79,1.64-.37,3.21-1.07,4.9-1.28Z"/><path class="cls-4" d="M15.01,78.96c.35-1.17,.55-2.4,1.38-3.38,.55-.66,.32-1.48,.33-2.23,0-.37-.03-.44,.38-.66,.69-.37,1.24-1.02,1.81-1.61,1.02-1.05,1.18-2.73,2.6-3.43-.71,1.47-1.44,2.92-2.48,4.19-.22,.28-.33,.65-.48,.99-.87,2.03-2.33,3.76-3.05,5.87-.07,.2-.29,.27-.5,.28v-.02Z"/><path class="cls-4" d="M71.31,192.97c-.55,.18-.96,.07-1.53-.22-.68-.35-1.55-.48-2.33-.75-.95-.32-1.89-.64-2.82-1-1.59-.6-3.08-1.38-4.6-2.1-1.19-.56-2.41-1.13-3.32-2.16,.97-.1,1.51,.76,2.32,1.06,1.46,.55,2.88,1.24,4.27,1.96,1.06,.55,2.19,.95,3.27,1.47,1.16,.56,2.55,.68,3.79,1.16,.35,.13,.85,.04,.95,.58Z"/><path class="cls-4" d="M87.5,204.53c1.38,.04,2.71,.41,4.06,.64,.38,.06,.68,.15,1.03-.11,.16-.12,.47-.18,.66-.12,.85,.28,1.68,.56,2.6,.44,.22-.03,.62,.15,.69,.32,.46,1.22,1.57,1.04,2.5,1.22,.39,.08,.85-.05,.85,.57-1.13,.06-2.14-.49-3.22-.69-1.21-.22-2.44-.39-3.63-.69-1.86-.47-3.82-.61-5.54-1.58h0Z"/><path class="cls-4" d="M78.55,40.46c.24,.47-.77,.37-.4,.82,.33,.41,.79,.2,1.21,.07,.15-.04,.32,0,.48,0,.11,.81-.69,1.63,.27,2.41,.35,.28-.49,.23-.59,.58,.18,.39,.55,.39,.91,.41-.59,.5-1.28,.8-2.02,1.02-.24-.15-.2-.41-.23-.64,.04-.19,.02-.49,.14-.57,.82-.54,.41-1.37,.45-2.03,.04-.7-.61-.45-.98-.31-.62,.24-1.21,.53-1.98,.39,.53-1.3,1.64-1.72,2.75-2.15h0Z"/><path class="cls-3" d="M90.95,112.17c-.2-.76-.14-1.57,.12-2.24,.24-.62,.08-1.06-.08-1.58,0-.03-.05-.05-.07-.07-.17-.2-.25-.53-.08-.64,1.34-.86-.73-2.64,.93-3.38h0v1.35c.27-.33,.28-.63,.55-.74-.06,.54-.12,1.07-.17,1.61-.13-.01-.32-.51-.37,.04-.02,.26,0,.52,0,.77-.37,.44-.14,.91,0,1.37v-1.37c.1-.13,.2-.26,.29-.39-.26,2.86-.54,5.71-1.34,8.48-.29-.21-.35,.12-.59,.28,.13-.75,.25-1.42,.23-2.11,0-.33,.13-.65,.5-.8,.34-.14,.37-.35,.1-.6l-.02,.02Z"/><path class="cls-3" d="M104.11,138.5c-.57-.37-1.13-1.04-1.71-.08-.28-.05-.27-.22-.31-.38-.24-.82-.05-2.11-1.61-1.57-.71-.7-1.39-.79-2.14-.02-.13,.14-.44-.04-.51-.33-.08-.35-.31-.4-.61-.27,.3-.56,.66-.87,1.32-.45,.18,.11,.49,.16,.68,.09,1.19-.45,2.34,.04,3.29,.48,.86,.39,1.82,1.22,1.59,2.54h.01Z"/><path class="cls-4" d="M288.78,110.76c-.34-.18-.57-.38-.59-.83-.03-.74,.25-1.53-.32-2.21-.15-.18,.15-.34,.21-.51,.18-.6,.35-1.21-.6-1.33-.68-.08-.86-.62-.59-1.1,.5-.87,.35-1.78,.24-2.64-.08-.69,.14-.74,.65-.72,.65,3.08,1.16,6.16,1,9.33h0Z"/><path class="cls-3" d="M107.38,62.75c.5,.03,.3-.67,.81-.72,.19,.53,.47,.73,1.2,.64,.81-.1,1.72,.18,2.47,.67,.28,.18,.53,.33,.8,.04,.23-.24,.14-.49-.03-.72-.15-.19-.3-.41-.05-.62,.17-.14,.37-.08,.57,.02,.51,.26,.97-.14,1.46-.12-.63,1.37-1.86,2.07-3.1,2.74-.39,.21-.75,.09-.7-.46,.03-.47-.06-.7-.61-.52-.31,.1-.71,.31-.73-.4,0-.28-.49-.03-.77,0-.48,.04-1.25,.55-1.3-.53l-.02-.02Z"/><path class="cls-3" d="M146.62,141.33c-.52-1.14-.49-1.22,.74-1.49,.29-.06,.26-.25,.28-.44,.14-.99-.22-1.94-.41-2.87-.21-1.04-.33-2.09-.09-3.04,.3-1.17,.45-2.36,.73-3.53,.07,3.33,.37,6.66-.14,9.99-.04,.27,0,.52,.03,.79,.05,.5-.16,.6-.52,.2,.49-.05,.23-.36,.19-.58-.02-.11-.14-.13-.22-.05-.26,.22,.02,.42,.04,.63-.36-.11-.45,.2-.62,.38h0Z"/><path class="cls-4" d="M69.91,19.87c-.12,.38-.56,.89,.37,.8,.17-.02,.32,.14,.33,.32,.01,.22-.23,.18-.34,.26-.93,.67-2.04,1-3.03,1.55-.56,.31-1.06,.53-1.38-.22-.24-.54-.58-.04-.85-.15,.3-.54,.89-.68,1.37-.92,1.17-.57,2.28-1.25,3.53-1.65h0Z"/><path class="cls-4" d="M9.09,131.63c-.92-.57-1.31-1.45-1.36-2.48-.06-1.11-.2-2.14-.63-3.22-.54-1.38-.54-2.96-.36-4.49,.58,.92,.51,2,.78,3,.47,1.74,.49,3.59,1.46,5.2,.35,.58,.12,1.32,.11,1.98h0Z"/><path class="cls-4" d="M81.21,196.44c0,.19,.02,.38,.03,.57-.53,.41-1.1,.14-1.52-.09-1.1-.58-2.18-1.12-3.45-1.14-.15,0-.38-.11-.42-.23-.49-1.19-1.6-1.16-2.59-1.37-.65-.14-1.16-.48-1.54-1.02,.89-.41,1.48,.4,2.22,.58,1.12,.28,2.17,.83,3.24,1.26,.03,.42,.32,.42,.63,.38,.32,.02,.64,.04,.97,.06,.6,.68,1.45,.77,2.26,.97,.06,0,.12,0,.18,.03h-.01Z"/><path class="cls-4" d="M288.42,121.89c-.46-1.6-.27-3.21-.14-4.83,.02-.25,.66-.86-.33-.8-.16,.01,.01-.51,.14-.69,.44-.59,.49-1.14,.22-1.85-.3-.83-.07-1.65,.49-2.36,.36,.87,.16,1.79,.2,2.68,.11,2.51-.2,5-.43,7.49-.01,.12-.1,.24-.16,.36h0Z"/><path class="cls-3" d="M223.18,133.24c-.13,.02-.29,0-.39,.06-.27,.18-.35,.77-.83,.46-.36-.24,0-.61-.03-.91-.07-1.49,.97-2.6,1.3-3.96,.1-.42,.59-.36,.9-.51-.04,.54-.09,1.07-.13,1.61-.22-.28-.18-.66-.28-.99-.23,.59-.42,1.16,.13,1.63-.06,.14-.12,.27-.19,.41-.18,.06-.3,.18-.22,.36,.06,.15,.14,0,.21-.04,.08,.69-.29,1.27-.47,1.9v-.02Z"/><path class="cls-3" d="M115.1,61.16c-.13,0-.27-.03-.4-.04,.22-.89-.65-.7-1.01-1.02-.23-.2-.5-.32-.32-.72,.11-.25,.11-.54-.24-.65-.22-.07-.51-.05-.46-.4,.05-.33,.3-.41,.59-.43,.24,0,.48,0,.6-.27,1.22,.6,1.85,2.39,1.24,3.52h0Z"/><path class="cls-4" d="M287.76,100.84c-.95-.49-1.09-1.44-1.15-2.33s-.3-1.67-.75-2.43c-.36-.6-.5-1.27-.47-2.01,.02-.55-.25-1.14-.47-1.68-.13-.32-.08-.43,.23-.47,1.35,2.83,1.75,5.95,2.61,8.92Z"/><path class="cls-4" d="M190.8,200.86c-2.2,1.34-4.63,1.5-7.12,1.41,.17-.5,.51-.62,1.01-.51,.44,.1,.85,.04,1.05-.45,.19-.02,.38-.03,.57-.04,.59,.05,1.13-.08,1.63-.4,.94-.08,1.89-.16,2.83-.24,0,.08,0,.16,.02,.24h0Z"/><path class="cls-3" d="M110.35,81.81c-1.25,.18-2.15-.69-3.22-1.05-.58-.19-1.22-.27-1.84-.15-.62,.12-.25-.4-.41-.57,.13-.31,.43-.61,.68-.48,1.24,.66,3.03,.19,3.75,1.87,.41-.2,.5-.83,1.11-.65,.2,.33-.59,.66-.07,1.01v.02Z"/><path class="cls-2" d="M18.64,161.2c.89,.45,1.21,1.4,1.82,2.11,1.12,1.29,2.19,2.62,3.28,3.94-1.07-.09-1.53-1.03-2.21-1.63-1.36-1.18-2.49-2.57-2.88-4.41h0Z"/><path class="cls-4" d="M108.95,202.94c.94,.59,2.03,.58,3.08,.76,1.11,.19,2.24,.29,3.35,.43,.19,.02,.26,.19,.3,.35-1.52,.09-2.99-.04-4.48-.44-1.06-.28-2.2-.27-3.3-.33-.59-.03-1.02-.12-.92-.84,.2,0,.39,0,.59,.02,.09,.17,.24,.21,.42,.19,.33,0,.62-.26,.97-.14h0Z"/><path class="cls-3" d="M92.66,99.2c-.5-.47-.21-1.08-.3-1.62-.03-.2,.17-.62-.38-.3-.39,.23-.11-.24-.2-.36,.94-.71,.14-1.7,.45-2.53,.27-.06,.03,.37,.37,.34-.03-.57,0-1.18-.12-1.73-.18-.75-.16-1.38,.49-1.88-.24,2.69,.18,5.41-.3,8.09h0Zm.09-3.54c-.03-.05-.06-.1-.09-.15-.03,.05-.07,.1-.07,.15s.05,.1,.08,.15c.03-.05,.05-.1,.08-.15Z"/><path class="cls-3" d="M120.21,113.16c.57,.22,1.08,.12,1.54-.29,.04-.04,.11-.12,.12-.11,1.19,.77,1.71-.67,2.63-.79,.39,1.05,.24,1.39-.85,1.57-.66,.11-1.14,.9-1.96,.46-.34-.18-.67-.83-1.26-.21-.13,.14-.08-.43-.22-.63Z"/><path class="cls-2" d="M89.35,11.75c.28,.68,.73,.3,1.15,.2,.75-.18,1.48-.6,2.28-.22-.97,.44-1.98,.76-2.91,1.3-.59,.35-1.28,.36-1.97,.32-.12-.3-.25-.61-.63-.67,.55-.62,1.36-.68,2.07-.94h.01Z"/><path class="cls-2" d="M166.3,141.45c1.64-.13,2.63,1.23,4,1.72,.22,.33,.31,.64-.26,.58-.23-.02-.37,0-.49,.19-.67,.15-1.26-.4-1.43-.71-.46-.8-1.36-1.05-1.81-1.78h-.01Z"/><path class="cls-4" d="M250.54,174.76c-.27,1.6-1.92,1.8-2.81,2.78-.08,.09-.32,.12-.33,.19-.11,1.21-1.04,.8-1.72,.88,.2-.64,.86-.81,1.31-1.15,1.19-.88,2.17-2.06,3.54-2.7h.01Z"/><path class="cls-4" d="M177.63,202.9c.94-.12,1.93,.25,2.84-.23,.12,0,.24,0,.37,0,.69-.11,1.38-.23,2.07-.34-.47,.47-.27,1.5-1.28,1.51-.16,0-.43,.1-.48,.03-.74-.99-1.78-.42-2.68-.55-.34-.05-.68-.04-.84-.41h0Z"/><path class="cls-3" d="M169.54,143.94c.12-.17,.27-.21,.49-.19,.57,.06,.48-.24,.26-.58,.76,.33,1.51,.67,2.27,1,.3,.13,.65,.2,.8,.56-1.36,.15-2.62-.18-3.82-.8h0Z"/><path class="cls-4" d="M87.28,12.69c.38,.06,.51,.37,.63,.67-1.1-.08-1.91,.73-2.92,.92-.58,.11-1.17,.22-1.77,.05,.13-.26,.37-.38,.62-.46,1.14-.4,2.29-.79,3.43-1.18h0Z"/><path class="cls-2" d="M38.47,38.44c.09,.53-.05,.97-.47,1.33-.69,.59-1.27,1.33-2.12,1.74,.08-1.68,1.21-2.48,2.59-3.07Z"/><path class="cls-3" d="M107.95,57.26c0,.28,.07,.5,.28,.72,.34,.37,.45,.72-.27,.73-.54,0-.46,.55-.59,.82-.23,.49-.47,.62-.94,.4,.17-1.08,.13-2.28,1.51-2.67h0Z"/><path class="cls-2" d="M182.91,202.31c-.69,.11-1.38,.23-2.07,.34,.07-.27-.07-.66,.36-.74,1.51-.28,2.99-.76,4.55-.61-.21,.49-.61,.55-1.05,.45-.49-.11-.84,0-1.01,.51-.26,0-.52,.03-.78,.04h0Z"/><path class="cls-4" d="M191.4,206.95c-.17,.51,.31,.8,.4,1.22-.34,.06-.68,.12-1.02,.18-.42-.21-.89-.33-1.08-.88-.15-.42-.61-.29-.96-.34,.46-.98,1.28-.24,1.92-.37,.17-.03,.47,.19,.74,.19h0Z"/><path class="cls-4" d="M129.19,8.8c.07-.15,.15-.43,.19-.42,1.51,.18,2.8-.93,4.31-.71,.31,.04,.59,.1,.84,.27-.56,.7-1.38,.27-2.07,.45-1.05,.28-2.18,.29-3.28,.41h.01Z"/><path class="cls-4" d="M6.74,121.09c-.41-.53-.48-1.16-.43-1.8,.09-1.2,.1-2.38-.17-3.56-.02-.09,.12-.22,.18-.32,.72,1.85,.71,3.75,.42,5.68Z"/><path class="cls-1" d="M122.78,9.75c-.26-.13-.52-.27-.79-.41,.27-.51,1.06-.21,1.17-.85,.34-.01,.67-.03,1.01-.04,.12,.31-.49,.45-.21,.76,.1,.1,.38,.08,.57,.05,.36-.07,.44-.36,.44-.68v-.3c.14,0,.28,0,.42-.01,.06,.39,.25,.78-.03,1.15-.81,.44-1.72,.2-2.57,.34h-.01Z"/><path class="cls-4" d="M286.21,133.06c-.07-.94-.06-1.84,.61-2.65,.42-.51,.13-1.23,.17-1.86,.03-.44-.03-.9,.58-1,.1,1.97-.62,3.75-1.36,5.51Z"/><path class="cls-4" d="M10.6,72.08c.31,.18,.6,.23,.34,.79-.49,1.09-1.13,2.04-2,2.85,.09-.64,.01-1.35,.81-1.65,.31-.12,.15-.47,.25-.7,.19-.43,.01-1.04,.6-1.28h0Z"/><path class="cls-4" d="M212.87,194.82c-.04,.66-.64,.6-1.03,.78-1.14,.52-2.32,.92-3.6,.84,.69-.72,1.71-.59,2.54-.99,.64-.32,1.39-.42,2.1-.62h0Z"/><path class="cls-4" d="M125.35,9.41c.28-.38,.09-.77,.03-1.15,.73-.51,1.62-.38,2.42-.58-.01,.29-.13,.53-.43,.58-.51,.1-.6,.45-.58,.88-.45,.25-.95,.23-1.44,.28h0Z"/><path class="cls-2" d="M31.63,168.44c-.52,.03-.84-.37-1.01-.71-.37-.72-.98-1.18-1.55-1.66-.41-.35-.54-.72-.52-1.21,.68-.13,.66,.58,.95,.87,.8,.82,1.7,1.59,2.14,2.71h-.01Z"/><path class="cls-3" d="M91.76,104.28c.46-.65-.12-1.11-.46-1.78,1.02,.33,1.13-.17,1.06-.86-.04-.43,.05-.87-.13-1.29-.14-.33,0-.51,.35-.55,.16,1.51-.22,2.98-.28,4.48h-.54Z"/><path class="cls-2" d="M102.29,207.78c1.76,.2,3.58-.21,5.27,.6-1.78,0-3.57,.13-5.27-.6Z"/><path class="cls-2" d="M33.44,170.9c-.19-.6-.8-.82-1.17-1.27-.29-.36-.62-.68-.62-1.18,1.07,.68,2.06,1.44,2.62,2.64l-.03,.02c-.24-.15-.51-.24-.8-.21Z"/><path class="cls-4" d="M80.43,44.74c-.03-.57,.46-.59,.8-.73,.95-.38,1.73-1.26,2.9-1.04-1.12,.83-2.38,1.36-3.71,1.77h0Z"/><path class="cls-3" d="M109.78,71.43c-.24-.97-1.14-1.7-1-2.81,.67,.15,1.23,.26,.86,1.25-.15,.39,.5,.98,.14,1.56Z"/><path class="cls-3" d="M115.02,133.44c-.6-.09-.69-.56-.79-1.03-.17-.78-.48-1.45-1.37-1.62v-.37c.28,.14,.57,.56,.78-.06,.59,.23,.98,.64,.82,1.3-.18,.73,.36,1.19,.55,1.79h.01Z"/><path class="cls-4" d="M43.77,43.12c.31-.95,1.8-1.99,2.63-1.84-.79,.74-1.49,1.6-2.63,1.84Z"/><path class="cls-3" d="M93.16,86.65c-.46-.58-.64-1.15-.2-1.86,.2-.31-.02-.7-.11-1.05-.11-.4-.14-.77,.48-.64-.06,1.18-.11,2.37-.17,3.55Z"/><path class="cls-2" d="M112.87,130.41v.38c-.11,.45,.73,1.12,.03,1.28-.87,.2-.34-.77-.54-1.17-.1-.19-.05-.46-.07-.69h.49l.09,.04c-.02,.05-.01,.11,.02,.16h-.02Z"/><path class="cls-3" d="M147.86,126.13c0-2.51,0-5.01,0-7.52,0-.2,0-.4,.15-.56-.05,2.69-.1,5.38-.14,8.08Z"/><path class="cls-4" d="M35.88,172.71c-1.17,.59-1.56,.35-1.63-1h.61c.06,0,.12,.02,.18,.02,.04,.4,.33,.4,.63,.38,.06,0,.12,0,.19,.02,0,.2,0,.39,.02,.59h0Z"/><path class="cls-3" d="M89.53,122.66c.14-.76-.36-1.49-.14-2.27,.44-.02,.26,.36,.42,.5,.11-.27,.21-.54,.31-.81,.01,.91-.03,1.8-.6,2.57h.01Z"/><path class="cls-3" d="M93.08,89.91c-.32,.01-.27,.43-.79,.63,.46-1.04,.26-2.04,.83-2.88,.15,.75,.11,1.5-.04,2.25Z"/><path class="cls-3" d="M147.86,128.38c-.59,.05-.71-.31-.58-.76,.15-.5,.2-1.05,.57-1.47,0,.74,.15,1.48,0,2.23h0Z"/><path class="cls-4" d="M79.41,38.67c.37,.66-.09,1.22-.26,1.79-.1,.34-.38,.05-.57-.04,.11-.34,.26-.66,.23-1.03-.02-.39,.13-.7,.6-.73h0Z"/><path class="cls-4" d="M49.65,38.89c.28-.91,.78-1.49,1.84-1.21-.41,.71-1.09,1.02-1.84,1.21Z"/><path class="cls-2" d="M78.17,45.13c.03,.23,0,.48,.23,.64-.03,.09-.04,.23-.11,.27-.38,.24-.85,.87-1.15,.56-.43-.45,.23-.72,.56-1.01,.16-.14,.17-.43,.46-.46h.01Z"/><path class="cls-2" d="M105.52,7.03c-.69,.63-1.54,.75-2.42,.78,.68-.65,1.55-.73,2.42-.78Z"/><path class="cls-3" d="M93.35,79.77c-.63-.2-.34-.73-.34-1.11,0-.36,.17-.71,.26-1.07,.33,.72,.12,1.45,.08,2.18Z"/><path class="cls-3" d="M90.13,119.44c.24-.93-.26-1.96,.42-2.82-.12,.94,.22,1.96-.42,2.82Z"/><path class="cls-4" d="M287.81,125.55c-.35-.9-.11-1.7,.43-2.45-.02,.84,.06,1.7-.43,2.45Z"/><path class="cls-4" d="M55.1,185.9c-.66-.43-1.63-.34-2.02-1.22,.9,.04,1.54,.49,2.02,1.22Z"/><path class="cls-3" d="M111.01,83.02c-.46-.27-.61-.7-.63-1.2,1.18,.06,1.23,.17,.63,1.2Z"/><path class="cls-2" d="M81.03,196.41c-.81-.2-1.66-.29-2.26-.97,.85,.09,1.68,.25,2.26,.97Z"/><path class="cls-2" d="M213.21,202.85c.58-.58,1.21-1.03,2.09-.94-.6,.53-1.25,.94-2.09,.94Z"/><path class="cls-4" d="M11.42,70.66c.62,.18,.75,.44,.11,.79-.23,.12-.5,.16-.75,.24-.05-.51,.2-.83,.64-1.02h0Z"/><path class="cls-2" d="M14.02,154.67c.92,.28,.88,1.18,1.19,1.85-.85-.33-.83-1.21-1.19-1.85Z"/><path class="cls-2" d="M193.83,200.04c-.59,.59-1.34,.4-2.04,.41,.58-.62,1.31-.5,2.04-.41Z"/><path class="cls-2" d="M100.67,8.49c-.08-.01-.15-.03-.23-.04,.6-.47,1.27-.71,2.04-.62-.54,.4-1.13,.65-1.81,.66Z"/><path class="cls-4" d="M141.97,7.23c.22-.6,.74-.32,1.13-.35,.57-.04,1.14-.01,1.72,0-.93,.25-1.88,.42-2.85,.36h0Z"/><path class="cls-3" d="M108.79,68.62c-.54,.24-.62-.69-1.16-.46,.8-.9,.96-.18,1.16,.46Z"/><path class="cls-3" d="M104.42,80.55c.35,.17,.36,.47,.2,.75-.23,.4-.62,.28-.98,.23,.23-.35,.67-.53,.78-.98Z"/><path class="cls-4" d="M9.13,94.74c-.02-.23,.02-.48-.06-.68-.29-.67,.12-.73,.6-.75-.02,.54-.14,1.04-.54,1.43Z"/><path class="cls-4" d="M56.32,186.7c-.62,.07-1.03-.2-1.22-.8,.61-.04,1.09,.11,1.22,.8Z"/><path class="cls-4" d="M100.28,207.5c.57-.13,1.17-.48,1.62,.23-.55-.04-1.13,.22-1.62-.23Z"/><path class="cls-2" d="M187.96,200.86c-.5,.32-1.04,.45-1.63,.4,.44-.57,.98-.69,1.63-.4Z"/><path class="cls-3" d="M175.98,144.99c.7-.14,1.37,.07,2.05,.19-.7,.16-1.38-.02-2.05-.19Z"/><path class="cls-2" d="M38.29,173.75c-.26,0-.53,0-.79-.02h0c-.14-.26-.28-.53-.42-.79,.6-.02,1.01,.24,1.22,.81h-.01Z"/><path class="cls-4" d="M135.51,7.87c.52-.28,1.03-.52,1.62-.19-.53,.16-1.04,.5-1.62,.19Z"/><path class="cls-5" d="M91.76,104.27h.55v.6c-.27,.11-.28,.41-.55,.74v-1.35h0Z"/><path class="cls-4" d="M63.82,23.08c-.09,.66-.57,.61-1.04,.56,.13-.59,.58-.59,1.04-.56Z"/><path class="cls-2" d="M35.88,172.71c0-.2,0-.39-.02-.59,.48,.06,.87,.2,.82,.8-.3,.07-.55-.08-.8-.21Z"/><path class="cls-5" d="M223.85,130.62c-.55-.47-.36-1.04-.13-1.63,.1,.33,.06,.7,.28,.99-.05,.21,.06,.46-.15,.64Z"/><path class="cls-4" d="M46.99,40.85c.13-.55,.47-.81,1.03-.77-.18,.48-.55,.7-1.03,.77Z"/><path class="cls-2" d="M27.98,164.81c-.08-.26-.16-.51-.24-.77,.51,.03,.8,.28,.8,.81-.19,0-.37-.03-.56-.04Z"/><path class="cls-3" d="M114.44,134.82c-.07-.48,.11-.81,.58-.97,.14,.52-.05,.84-.58,.97Z"/><path class="cls-3" d="M124.56,111.74c-.2-.36-.27-.72-.05-1.19,.21,.29,.17,.64,.44,.8-.02,.24-.25,.27-.39,.39Z"/><path class="cls-4" d="M37.07,172.94c.14,.26,.28,.53,.42,.79-.57,.06-.85-.19-.84-.76,.14,0,.28-.02,.42-.03Z"/><path class="cls-3" d="M106.7,61.59c.57-.06,1.04-.02,.7,.76-.01-.46-.54-.43-.7-.76Z"/><path class="cls-4" d="M140.16,7.29c.32-.33,.65-.3,1-.06-.31,.35-.65,.3-1,.06Z"/><path class="cls-3" d="M104.72,140.52c0-.45-.44-.77-.36-1.25,.34,.35,.77,.68,.36,1.25Z"/><path class="cls-4" d="M21.71,67.42c-.49-.58-.05-.59,.37-.62,.01,.29,.03,.58-.37,.62Z"/><path class="cls-2" d="M164.86,138.97c.31,.24,.5,.56,.59,.93-.52-.11-.55-.52-.59-.93Z"/><path class="cls-3" d="M173.98,144.78c.35,0,.72-.13,1.01,.19-.36,.06-.71,.06-1.01-.19Z"/><path class="cls-5" d="M92.06,106.93c-.1,.13-.2,.26-.29,.39h0c0-.26-.02-.52,0-.78,.05-.56,.24-.06,.37-.04-.03,.14-.05,.29-.08,.43Z"/><path class="cls-4" d="M138.32,7.59c.18-.45,.55-.3,.88-.27-.19,.43-.53,.36-.88,.27Z"/><path class="cls-3" d="M93.32,82.18c-.22-.26-.23-.52,.01-.78,.11,.26,.11,.52-.01,.78Z"/><path class="cls-3" d="M119.51,113.18c.02-.19-.07-.46,.18-.51,.29-.06,.38,.2,.45,.43-.21,.03-.42,.06-.63,.08Z"/><path class="cls-3" d="M148.03,116.21c-.25-.27-.26-.53,0-.8,.08,.27,.09,.53,0,.8Z"/><path class="cls-2" d="M34.86,171.7h-.61c0-.2,0-.4-.02-.59l.03-.02c.36,.05,.57,.24,.6,.62h0Z"/><path class="cls-4" d="M14.61,79.77c.04-.32-.16-.75,.4-.81,.02,.35-.03,.66-.4,.81Z"/><path class="cls-3" d="M112.85,130.26l-.09-.04c.27-.31,.54-.86,.83,0-.25,.02-.5,.04-.74,.05h0Z"/><path class="cls-2" d="M18.07,160.54c.36,.07,.57,.27,.56,.65-.38-.05-.59-.25-.56-.65Z"/><path class="cls-5" d="M112.85,130.26c.25-.02,.5-.04,.74-.05,.06,.04,.08,.09,.06,.15-.21,.62-.51,.2-.78,.06-.03-.05-.03-.11-.02-.16h0Z"/><path class="cls-2" d="M35.67,172.1c-.3,.02-.59,.03-.63-.38,.3-.03,.59-.03,.63,.38Z"/><path class="cls-2" d="M194.87,199.7c-.08,.38-.36,.38-.66,.33,.08-.39,.36-.39,.66-.33Z"/><path class="cls-2" d="M190.8,200.86c0-.08,0-.16-.02-.24,.06-.27,.15-.44,.41-.15,0,.13,0,.25-.02,.38-.12,0-.25,0-.37,0Z"/><path class="cls-3" d="M93.19,75.72c-.26-.2-.27-.4-.01-.61,0,.2,0,.41,.01,.61Z"/><path class="cls-3" d="M82.2,49.4c-.29,0-.54-.03-.57-.4,.36-.11,.52,.06,.57,.4Z"/><path class="cls-4" d="M287.61,126.76c-.32-.29-.25-.49,.14-.63,.05,.23,.1,.46-.14,.63Z"/><path class="cls-2" d="M77.81,195.38c-.31,.04-.6,.05-.63-.38,.29,0,.58,0,.63,.38Z"/><path class="cls-3" d="M106.36,60.18c0,.32-.02,.64-.02,.96-.3-.33-.35-.65,.02-.96Z"/><path class="cls-2" d="M165.68,140.16c.28,.08,.29,.34,.35,.56-.37-.03-.35-.3-.35-.56Z"/><path class="cls-2" d="M13.4,153.68c.25,.13,.39,.33,.4,.62-.42-.02-.42-.31-.4-.62Z"/><path class="cls-5" d="M226.62,106.9c-.22-.02-.41-.09-.36-.34,.05-.26,.24-.09,.38-.06,0,.13,0,.27,0,.4h-.01Z"/><path class="cls-2" d="M15.21,156.53c.29,.1,.4,.31,.39,.61-.39-.04-.4-.32-.39-.61Z"/><path class="cls-2" d="M15.66,157.28c.24,.06,.37,.2,.37,.45-.3,0-.41-.16-.37-.45Z"/><path class="cls-3" d="M89.13,123.28c.13-.19,.25-.38,.38-.56,.12,.35-.12,.47-.38,.56Z"/><path class="cls-2" d="M215.64,201.83c.09-.22,.22-.37,.49-.28-.07,.26-.23,.35-.49,.28Z"/><path class="cls-2" d="M17.25,159.35c.26,.03,.4,.15,.37,.43-.26-.03-.38-.17-.37-.43Z"/><path class="cls-2" d="M107.97,203.09c-.17,.02-.32-.02-.42-.19,.31-.3,.36-.06,.42,.19Z"/><path class="cls-3" d="M104.36,139.26c-.27,0-.56,.03-.24-.36,.08,.12,.16,.24,.24,.36Z"/><path class="cls-2" d="M216.48,201.45c.24-.26,.55-.15,.84-.18-.22,.31-.54,.2-.84,.18Z"/><path class="cls-3" d="M103.64,81.53c.08,.21,.06,.38-.17,.48,.01-.18-.04-.38,.17-.48Z"/><path class="cls-2" d="M16.44,158.32c.26,.03,.39,.17,.37,.44-.27-.02-.39-.17-.37-.44Z"/><path class="cls-3" d="M106.34,61.14c.29,.02,.41,.17,.36,.45-.32,0-.4-.18-.36-.45Z"/><path class="cls-4" d="M14.8,64.78c.02,.26-.1,.4-.36,.43,.05-.2,.16-.35,.36-.43Z"/><path class="cls-3" d="M93.21,77.22v-.8c.12,.27,.12,.53,0,.8Z"/><path class="cls-5" d="M223.64,131.34c-.06,.05-.14,.2-.21,.04-.08-.18,.04-.31,.22-.36,0,.11,0,.21-.02,.32h.01Z"/><path class="cls-2" d="M17.02,158.98c.18,.06,.23,.2,.23,.37-.16-.07-.22-.2-.23-.37Z"/><path class="cls-3" d="M178.88,145.17h.28c-.1,.1-.19,.07-.28,0Z"/><path class="cls-3" d="M113.76,57.5h-.31c.1-.05,.21-.13,.31,0Z"/><path class="cls-2" d="M111.99,129.75l-.08-.03,.02-.08c.05,.02,.07,.06,.05,.11h.01Z"/><path class="cls-4" d="M48.85,39.5c.07-.07,.13-.14,.2-.22-.07,.07-.13,.14-.2,.22Z"/><path class="cls-2" d="M13.8,154.29c.06,.07,.13,.14,.19,.21-.06-.07-.13-.14-.19-.21Z"/><path class="cls-3" d="M108.36,56.69c-.06,.07-.11,.13-.17,.2,.06-.07,.11-.13,.17-.2Z"/><path class="cls-3" d="M217.76,57.68c-.08-.07-.15-.14-.23-.21,.08,.07,.15,.14,.23,.21Z"/><path class="cls-2" d="M134.1,204.08h-.23c.08-.1,.16-.1,.23,0Z"/><path class="cls-3" d="M108.17,56.91l-.15,.18c-.03-.12,.03-.18,.15-.18Z"/><path class="cls-3" d="M218.1,57.9c-.06-.05-.11-.1-.17-.16,.13-.03,.18,.03,.17,.16Z"/><path class="cls-2" d="M127.81,7.68c-.8,.21-1.69,.07-2.42,.58-.14,0-.28,0-.42,.01-.27,.02-.58-.09-.79,.18-.34,.01-.67,.03-1.01,.04-.94,.02-1.86,.16-2.74,.46-1.02,.34-2.08,.44-3.13,.64-.82,.15-1.58,.59-2.47,.54-.61-.04-.88-.21-.76-.83,.26-.02,.51-.04,.77-.07,.2,.04,.35,0,.43-.21,2.41-.77,5-.85,7.35-1.86,.78-.34,1.64-.26,2.46-.3,1.17-.04,2.34,0,3.51,0,.36,0,.62-.11,.94-.38,.95-.77,2.2-.71,3.36-.83,2.54-.27,5.04-.74,7.54-1.2,.78-.14,1.59-.24,2.37-.2,2.12,.12,4.2-.16,6.29-.39,.1,0,.21-.04,.3,0,1,.33,1.97,.17,2.92-.21,.11,.46,.48,.37,.8,.37h2.86c.55-.13,1.24,.37,1.64-.37h.58c.48,.61,.96,.63,1.44,0,.33,.07,.66,.13,.99,.2,.06,.25,.11,.5,.41,.18h.81c.11,.15,.27,.24,.43,.15,1.56-.8,3.17-.13,4.72-.05,.9,.05,1.95-.03,2.88,.43-.2,.33-.37,.61-.54,.89-.79-.26-1.6-.18-2.4-.2-4.56-.07-9.12-.19-13.69-.17-2.8,.01-5.6,.1-8.4,.3-2.19,.15-4.36,.44-6.52,.84-.89,.17-1.8,.06-2.71,.19-.61,.08-1.07,.63-1.71,.46-.28,0-.55,0-.83,.01h-.37c-.37,.05-.86-.25-1.06,.33-1.27,.15-2.54,.3-3.82,.45v.02Z"/><path class="cls-4" d="M169.33,5.45c.17-.28,.34-.56,.54-.89-.92-.46-1.97-.38-2.88-.43-1.55-.09-3.16-.76-4.72,.05-.16,.08-.32,0-.43-.15,.39-.74,.18-.97-.66-1.02-1.84-.11-3.68-.24-5.53-.19-.25,0-.63,.08-.63-.3s.39-.27,.63-.3c1.47-.21,2.93-.03,4.38,.14,.5,.06,.92-.11,1.38-.15,1.05-.08,2.06,.21,3.11,.24,1.62,.05,3.24,.28,4.86,.35,.77,.04,1.5,.22,2.27,.3-.04,.44-.41,.33-.6,.47s-.65-.06-.59,.36c.05,.31,.36,.45,.68,.51,.54,.1,1.15-.23,1.64,.23,0,.47,.48,.63,.61,1.01-1.35-.1-2.72,.19-4.05-.23h0Z"/><path class="cls-2" d="M80.63,18.44c.29,.66-.2,.82-.65,.97-1.62,.52-3.01,1.51-4.67,2.17,.38,.25,.96-.08,.95,.45,0,.35-.46,.3-.7,.44-.82,.48-1.71,.2-2.53,.33-1.11,.18-2.19,.76-3.18,1.35-.6,.36-1.51,.29-1.78,1.16h0c-.39,0-.79,0-1.18-.01,.11-.73,.77-.87,1.28-1.12,2.44-1.22,4.94-2.31,7.32-3.63,1.64-.91,3.41-1.42,5.13-2.1h.01Z"/><path class="cls-2" d="M173.38,5.68c-.13-.38-.62-.55-.61-1.01,1.02-.04,2.03-.06,3.04,.17,.17,.24,.4,.21,.64,.15,.19,.01,.38,.03,.58,.04,.17,.25,.4,.22,.64,.14,2.6,.1,5.16,.51,7.69,1.07,0,.48-.71,.52-.63,1.04-2.6-.45-5.25-.54-7.81-1.22-.16-.04-.34,0-.5,0-.1-.17-.25-.2-.43-.17h-.38c-.33-.34-.67-.31-1.01-.03-.4-.06-.81-.12-1.21-.18h0Z"/><path class="cls-2" d="M107.56,11.14c.49,.58,.6,.91-.39,1.03-1.16,.14-2.23,.7-3.35,1-1.53,.41-3.07,.76-4.57,1.3-.28,.1-.92-.22-1.07-.51-.19-.37,.23-.68,.61-.89,.9-.5,1.91-.35,2.86-.42,1.15-.09,2.22-.28,3.27-.78,.64-.31,1.36-.45,2.05-.67,.2-.02,.4-.04,.6-.06h-.01Z"/><path class="cls-2" d="M96.62,12.57c.03,.45-.08,.65-.61,.81-2.46,.74-4.92,1.48-7.28,2.55-1.18,.54-2.46,.83-3.71,1.22-.15,.05-.36,.06-.44-.12-.09-.19,.07-.32,.22-.38,.22-.09,.46-.13,.5-.42,2.55-.94,5.08-1.93,7.65-2.81,1.18-.4,2.44-.57,3.66-.85h0Z"/><path class="cls-2" d="M39.33,44.72c-1.78,1.74-3.91,3.12-5.35,5.22-.09,.14-.24,.24-.35,.36-.57,.6-.99,.58-1.2-.3,.58-.76,1.22-1.46,1.96-2.09,1.2-1.03,2.33-2.13,3.49-3.19,.56,.15,.79-1.04,1.48-.37,0,.12-.02,.24-.03,.37Z"/><path class="cls-4" d="M149.48,204.48c1.14-.42,2.31-.14,3.45-.05,2.89,.23,5.75-.06,8.62-.26,.64-.04,1.27-.04,1.91-.05-.04,.22-.15,.38-.39,.38-1.32-.03-2.55,.39-3.78,.77-.29,.09-.52-.07-.76-.18-.58-.26-1.22-.29-1.77-.06-.36,.15-.57,.21-.88,0-.12-.09-.34-.12-.48-.08-1.58,.51-3.15-.06-4.72-.02-.43,0-.87-.08-1.19-.43h0Z"/><path class="cls-4" d="M184.73,7.28c-.08-.52,.63-.57,.63-1.04,.76,.05,1.5,0,2.26,.34,.38,.18,.98,.39,1.53,.06,.44-.26,.99-.36,1.37,.07,.22,.25,.37,.64,.13,1.03-.32,.54-1.04,.56-1.33,.46-1.49-.54-3.09-.46-4.59-.91h0Z"/><path class="cls-2" d="M68.07,25.3h.88c-.13,.43-.29,.74-.66,.88-2.14,.81-4.07,2.05-6.12,3.05-.16,.08-.34,.17-.46,0-.17-.23,.1-.43,.1-.66,1.14-.32,1.89-1.29,2.96-1.77,.49-.21,1.15-.13,1.49-.68,.62-.23,1.37-.19,1.81-.83h0Z"/><path class="cls-2" d="M53.88,33.17c.4,.67-.26,.92-.58,1.14-.89,.62-1.84,1.17-2.82,1.64-.44,.21-.78,.48-1.07,.84-.13,0-.25,0-.38,0,.07-.33,.14-.65,.2-.98,1.31-.78,2.61-1.55,3.92-2.32,.23-.13,.48-.22,.72-.34h0Z"/><path class="cls-4" d="M192.64,8.01c1.45-.69,2.82,.12,4.18-.03,.26-.03,.23,.28,.23,.47,0,.27,.02,.58-.35,.61-.39,.03-.84,.16-1.17-.12s-.69-.33-1.03-.24c-.75,.19-1.32-.02-1.87-.69h.01Z"/><path class="cls-2" d="M54.5,29.59c.09-1.09,1.18-1.09,1.8-1.56,.9-.68,1.98-1.11,2.97-1.67,.67-.38,.75-.06,.67,.51-1.57,.82-3.14,1.63-4.69,2.47-.24,.13-.47,.23-.74,.24h0Z"/><path class="cls-4" d="M81.63,197.04c2.21,.14,4.16,1.06,6.08,2.04-.15,.18-.36,.21-.55,.15-1.72-.59-3.44-1.19-5.16-1.78-.22-.07-.35-.18-.37-.41h0Z"/><path class="cls-4" d="M170.72,203.54c1.3-.07,2.59-.13,3.89-.19-.58,.83-2.6,1.48-3.47,1.13-.46-.18-.38-.58-.42-.94Z"/><path class="cls-4" d="M165.87,203.93c1.43-.13,2.86-.26,4.29-.39-.3,.59-.64,.94-1.45,.89-.64-.04-1.33,.09-1.99,.07-.37,0-.74-.12-.85-.57h0Z"/><path class="cls-4" d="M39.37,44.36c-.69-.68-.92,.52-1.48,.37,.17-.58,.45-1,1.16-1.04,.35-.02,.78-.27,.82-.64,.08-.64,.5-.34,.81-.41,.55-.13,.59,.22,.31,.46-.51,.45-.83,1.16-1.62,1.27h0Z"/><path class="cls-4" d="M145.6,205.09c.18-.57,.65-.34,1.02-.37,.75-.06,1.48-.42,2.25-.19-.02,.33-.29,.52-.53,.52-.91-.02-1.82,.56-2.74,.04Z"/><path class="cls-4" d="M155.56,4.02c-.82,0-1.65,.01-2.47,0-.32,0-.69,.08-.8-.37,.83,0,1.66-.02,2.48-.02,.32,0,.7-.09,.78,.39h.01Z"/><path class="cls-4" d="M49.24,35.83c-.07,.33-.14,.65-.2,.98-.21,.37-.59,.74-.9,.44-.35-.33,.04-.73,.38-.95,.24-.15,.37-.5,.72-.47Z"/><path class="cls-4" d="M68.07,25.29c-.44,.64-1.18,.6-1.81,.83-.11-.52,.25-.68,.63-.83h1.18Z"/><path class="cls-4" d="M116.06,204.48c.05-.33,.23-.4,.48-.19,.28,.25,.62,.2,.95,.23-.17,.56-.67,.55-1.1,.56-.36,0-.3-.35-.32-.6h-.01Z"/><path class="cls-4" d="M92.57,200.26c.61-.32,1.11,.05,1.64,.25-.67,.74-1.12,0-1.64-.25Z"/><path class="cls-4" d="M175.4,203.29c.63-.38,1.3-.54,2.03-.41-.63,.36-1.26,.71-2.03,.41Z"/><path class="cls-4" d="M90.13,199.68c.5,.05,1.1-.25,1.43,.41-.61,.33-1.1,.25-1.43-.41Z"/><path class="cls-4" d="M163.86,204.1c.44-.35,.95-.14,1.43-.17-.43,.46-.86,.96-1.43,.17Z"/><path class="cls-4" d="M157.6,3.64c-.41,.75-1.1,.25-1.64,.37,.44-.61,1.08-.32,1.64-.37Z"/><path class="cls-4" d="M159.62,3.64c-.48,.63-.96,.61-1.44,0h1.44Z"/><path class="cls-4" d="M34.24,171.11c0,.2,0,.4,.02,.59-.3-.24-.75-.33-.82-.8,.29-.03,.55,.06,.8,.21Z"/><path class="cls-4" d="M187.75,207.15c-.25,.49-.52,.48-.81,.03,.26-.32,.53-.31,.81-.03Z"/><path class="cls-4" d="M131.62,7.22c.21-.58,.69-.29,1.06-.33-.2,.61-.68,.32-1.06,.33Z"/><path class="cls-4" d="M174.59,5.86c.35-.28,.68-.32,1.01,.03-.34,.25-.68,.27-1.01-.03Z"/><path class="cls-4" d="M133.06,6.89c.28,0,.55,0,.83-.01-.27,.56-.55,.55-.83,.01Z"/><path class="cls-4" d="M185.93,207.35c-.22,.29-.54,.19-.83,.18,.17-.52,.48-.46,.83-.18Z"/><path class="cls-4" d="M177.66,5.17c-.24,.08-.47,.11-.64-.14,.29-.29,.5-.21,.64,.14Z"/><path class="cls-4" d="M176.44,4.98c-.24,.06-.47,.09-.64-.15,.3-.3,.5-.21,.64,.15Z"/><path class="cls-4" d="M115.25,9.03c-.08,.21-.23,.25-.43,.21,.07-.22,.14-.44,.43-.21Z"/><path class="cls-4" d="M161.02,4.02c-.3,.32-.36,.07-.41-.18,.17,0,.32,.02,.41,.18Z"/><path class="cls-4" d="M88.09,199.09c.28-.05,.41,.08,.44,.35-.26,.02-.4-.1-.44-.35Z"/><path class="cls-4" d="M175.98,5.89c.18-.04,.33,0,.43,.17-.28,.3-.36,.07-.43-.17Z"/><path class="cls-3" d="M69.29,108.52c.38,.78,.15,1.6,.13,2.39-.1,3.84,.16,7.64,1.25,11.36,.54,1.85,.8,3.8,1.52,5.56,.6,1.47,1.24,2.98,2.21,4.28,.14,.19,.36,.15,.56,.15-.14,.27-.37,.39-.67,.34-.55-.09-1.99-1.73-1.95-2.28,.07-.99-.68-1.67-.89-2.55-.17-.74-1.24-1.26-.49-2.28,.1-.13-.06-1.12-.39-1.44-1.02-.95-.72-2.12-.74-3.24,0-.21-.04-.36-.12-.55-.85-1.93-1.25-3.91-.68-6,.13-.48-.29-.55-.57-.68-.45-.2-.64-.39-.28-.89,.22-.3,.31-.71,.15-1.15-.12-.3-.13-.69,.07-.98,.42-.64,.67-1.34,.91-2.05h-.02Z"/><path class="cls-3" d="M70.41,92.92c-.38,3.63-.66,7.26-.79,10.91-.04,1.3-.22,2.59-.34,3.89-1.21-.53-1.46-1.02-.89-1.71,.13-.16,.24-.3,.48-.3,.74,0,.42-.61,.26-.7-.6-.32-.35-.59-.16-1.03,.4-.97,.61-1.98-.17-2.92-.52-.62-.27-1.32,.03-1.89,.38-.72,.4-1.38,.3-2.17-.11-.88,.13-1.8,.22-2.71,.01-.13,.12-.29,.08-.37-.92-1.57,.54-.78,.98-1h0Z"/><path class="cls-3" d="M72.97,70.66c-.15,2.89-.8,5.71-1.16,8.57-.17,1.33-.37,2.66-.55,3.99-.98-.19-.59-.79-.34-1.27,.12-.22,.12-.41,.16-.62,.21-1.1-.03-2.11-.3-3.15-.08-.32,.29-.41,.52-.53,.56-.31,.67-.77,.54-1.37-.12-.58-.14-1.07,.24-1.69,.46-.75,.44-1.78,.43-2.71,.01-.03,.03-.06,.04-.09-.02,.03-.03,.06-.05,.08-.34-.59-.36-1.05,.45-1.2h.02Z"/><path class="cls-3" d="M71.18,83.61c-.17,1.96-.2,3.94-.54,5.89-.49-.12-.35-.52-.33-.82,.03-.36,.15-.67-.14-1.01-.17-.2-.15-.56,.17-.78,.5-.34,.54-.71,0-1.06-.05-.03-.13-.13-.12-.13,.59-.72-.35-1.28-.17-1.99,.34-.18,.75-.04,1.14-.1h0Z"/><path class="cls-3" d="M73.32,68.43c.02,.74-.01,1.47-.33,2.16-.8-.63-.76-1.36-.24-2.14,.13-.2,.25-.17,.38-.01-.19,.18-.32,.37,0,.66v-.66h.19Z"/><path class="cls-3" d="M70.53,90.09c.05,.48,.05,.95-.12,1.41-.39-.51-.32-.98,.12-1.41Z"/><path class="cls-3" d="M67.93,100.91c-.07,.05-.1,.08-.15,.1-.03,.01-.07,0-.1-.01-.09-.05-.09-.11,.01-.13,.06-.01,.12,.02,.23,.04h0Z"/><path class="cls-3" d="M90.95,112.27c-.02,.06-.05,.11-.08,.17-.02-.05-.07-.11-.06-.14,.02-.05,.09-.08,.14-.12v.09Z"/><path class="cls-3" d="M185.06,60.2c-.36,.14-.65,.23-.88-.06-.09-.12-.03-.29,.1-.33,.32-.1,.56,.03,.78,.4h0Z"/><path class="cls-3" d="M171.79,56.74s.03,.07,.02,.07c-.02,.02-.06,.02-.08,.03,0-.03-.03-.07-.02-.07,.02-.02,.06-.02,.08-.03Z"/><path class="cls-5" d="M173.57,56.89c-.15-.03-.32-.03-.3-.25,0-.02,.04-.06,.06-.06,.22-.02,.23,.15,.26,.3l-.02,.02h0Z"/><path class="cls-5" d="M91.76,107.31v1.37c-.15-.46-.37-.93,0-1.37h0Z"/><path class="cls-5" d="M147.24,140.94c0-.21-.29-.41-.04-.63,.09-.08,.2-.06,.22,.05,.04,.22,.3,.53-.19,.58h0Z"/><path class="cls-5" d="M92.75,95.67c-.03,.05-.06,.1-.08,.15-.03-.05-.08-.1-.08-.15s.05-.1,.07-.15c.03,.05,.06,.1,.09,.15Z"/><path class="cls-4" d="M124.17,8.45c.22-.27,.52-.16,.79-.18v.3c0,.32-.08,.62-.44,.68-.19,.04-.47,.06-.57-.05-.29-.31,.33-.44,.21-.76h.01Z"/><path class="cls-5" d="M72.52,71.87s.03-.06,.05-.08c-.01,.03-.03,.06-.04,.09h-.01Z"/><path class="cls-5" d="M73.13,68.43v.66c-.32-.3-.19-.48,0-.66h0Z"/></svg>