<?xml version="1.0" encoding="utf-8"?>
<!-- Generator: Adobe Illustrator 27.2.0, SVG Export Plug-In . SVG Version: 6.00 Build 0)  -->
<svg version="1.1" id="Layer_1" xmlns="http://www.w3.org/2000/svg" xmlns:xlink="http://www.w3.org/1999/xlink" x="0px" y="0px"
	 viewBox="0 0 289 211.8" style="enable-background:new 0 0 289 211.8;" xml:space="preserve">
<style type="text/css">
	.st0{fill:#FFFFFF;}
	.st1{fill:#15A6ED;}
</style>
<path class="st0" d="M43.9,95.7L43.9,95.7C44,95.8,43.9,95.8,43.9,95.7z"/>
<path class="st0" d="M44.9,88.4c-0.1-0.4-0.1-0.7-0.1-1C44.8,87.7,44.9,88.1,44.9,88.4z"/>
<path class="st0" d="M41.5,83.8c0,0.1-0.1,0.2-0.1,0.3C41.4,84,41.4,83.9,41.5,83.8z"/>
<path class="st0" d="M43.1,83.4c-0.4-0.5-0.8-0.8-1.2-1.3c0,0,0.1,0,0.1-0.1c0.4,0.4,0.7,0.8,1.2,1.3c-0.7,1.1-1.3,2.1-1.9,3.1
	c0.5,1.1,1,2.5,1.6,3.9c0,0-0.1,0.1-0.1,0.1c-0.6-1.4-1.2-2.8-1.6-3.9C41.8,85.5,42.4,84.5,43.1,83.4z"/>
<path class="st0" d="M41.6,101c0.1-0.1,0.2,0,0.3,0.1c0,0.1,0,0.2-0.1,0.3c-0.1,0-0.2-0.1-0.3-0.1C41.5,101.2,41.5,101,41.6,101z"/>
<path class="st0" d="M43.1,62.3c-0.1-0.1-0.1-0.1-0.2-0.1l0,0c0.6-1.4,1.1-2.8,1.7-4.2c-0.1,2.7-0.2,5.4-0.3,8
	c-1.3,0.1-1.2-0.8-1.2-1.6c0-0.7,0.1-1.4,0.1-2.1C43.2,62.3,43.1,62.3,43.1,62.3z"/>
<path class="st1" d="M175.7,182.4c3,0.6,5.6,1.6,7.7,3.5c1,1,2,2,3,3c1.5,1.5,1.2,6-0.6,7.2c-0.3,0.2-1,0-1.3,0.3
	c-0.7,0.5-1.7,1.1-1.9,1.9c-0.5,2.3-1.9,3.6-4.2,3.2c-2.1-0.4-4.1-0.9-6.1-1.6c-4-1.5-6.5-8.1-4.3-11.4c1.3-2,3-3.9,5.3-5
	C174.1,183.2,174.9,182.8,175.7,182.4z M177.9,195.5c0.5-1.3,0.7-2,0.9-2.7c0.2-0.8,0.7-1.6,0.5-2.3c-0.1-0.7-0.8-1.6-1.4-1.8
	c-0.6-0.2-2.1,0-2.2,0.4c-0.4,1.5-0.8,3.1-0.5,4.5C175.4,194.4,176.9,194.9,177.9,195.5z"/>
<path class="st0" d="M77.2,37.5c0.1,1.5-0.7,2.3-2.1,2.7c-0.7,0.2-1.4,0.6-2,0.5c-3.7-0.4-4.5,2.6-5.8,4.9C66.5,47.1,66,47.9,64,47
	c-1.3-0.6-3.1-0.1-4.6-0.5c-0.8-0.2-2-1.3-2-2c0.1-2.1,0.2-4.1-0.7-6.1c-0.5-1.1,1.2-2.7,2.5-2.7c2-0.1,4-0.5,5.9-0.6
	c2.5-0.2,5-0.4,7.5-0.6c0.2,0,0.5,0.1,0.7,0C76,34.1,77.2,34.9,77.2,37.5z M74.4,37.9c0-0.3-0.1-0.5-0.1-0.8
	c-2.6,0.2-5.3,0.4-7.9,0.7c-1.6,0.2-3.2,0.4-4.6,1.1c-1.4,0.7-1.8,2.2-1.6,3.9c0.2,1.6,1.3,1.2,2.4,1.1c0.3,0,0.7,0.1,1,0.1
	c1.4,0.2,2.1-0.2,2.7-1.7c0.9-2.1,2-4.1,4.9-4C72.3,38.3,73.3,38,74.4,37.9z"/>
<path class="st0" d="M62.3,49.4c1.8-0.2,3.6-0.4,5.4-0.7c1.9-0.3,3.6-0.3,4.8,1.6c0.3,0.4,0.9,0.7,1.5,0.7c1.7,0.2,2.7,1.2,3.5,2.6
	c0.6,1.1-0.8,3.7-2.4,4c-2.2,0.5-4.6,0.6-6.9,0.8c-0.2,0-0.4,0-0.5-0.1c-1.4-2.1-2.8-1.1-4.4-0.2c-0.8,0.5-1.8,0.8-2.8,1
	c-2.6,0.5-3.1,0.1-3.2-2.6c0-1.1-0.2-2.1-0.5-3.1c-0.6-1.9-0.1-3,1.9-3.5c1.2-0.3,2.4-0.6,3.7-0.9C62.2,49.2,62.3,49.3,62.3,49.4z
	 M75,53.9c-1.9,0.2-3.6,0.5-4.5-1.3c-0.8-1.7-2.3-1.5-3.8-1.4c-1.6,0.1-3.2,0.2-4.8,0.4c-0.3,0-0.8,0.2-0.9,0.4
	c-0.7,1.5-1.3,3.1-1.9,4.6c0.2,0.2,0.3,0.4,0.5,0.6c1.7-0.8,3.5-1.5,5.1-2.5c0.9-0.6,1.7-0.6,2.6-0.3c1.7,0.5,3.4,0.9,5.1,1.5
	C73.9,56.2,74.3,55.2,75,53.9z"/>
<path class="st0" d="M79.2,62.4c0.1,0.6,0.3,1.6,0.4,2.6c0.1,1.4-1.4,3-2.6,2.6c-3.9-1.2-6.5,0.6-8.4,3.6c-1.1,1.7-2.5,1.4-3.6,0.7
	c-2.2-1.5-4.5-3.2-5.1-6.2c-0.2-1-0.3-1.7,1-1.9c0.4,0,0.9-0.4,1-0.7c1.4-3.3,4.3-3,7.1-3.2c2.3-0.1,4.6,0,6.9-0.3
	C78.5,59.2,79.2,59.6,79.2,62.4z M62.3,66c0.2,0.4,0.4,0.8,0.6,1.3c1.2,2.5,3.8,2.8,5.6,0.6c1.8-2.2,3.9-4,7.1-3.5
	c1.5,0.2,1.8-0.5,1.6-1.8c-0.3-0.1-0.7-0.2-1-0.2c-3.2,0-6.3-0.1-9.5,0.2c-1.1,0.1-2,1.4-3,2.2C63.2,65,62.8,65.5,62.3,66z"/>
<path class="st0" d="M90.1,85.9c-1.8-0.7-3-0.1-4.1,1.3c-0.7,0.8-2,1.1-3,1.8c-0.6,0.4-1.3,1-1.7,1.7c-0.9,1.3-2.2,1.6-3.1,0.3
	c-0.9-1.3-1.7-2.8-2.3-4.3c-1.3-3.3-1.2-3.2,1.5-5.7c1.3-1.2,2.4-2.7,4.2-3.2c0.7-0.2,1.5-0.1,2.2,0c1.4,0.2,2.7,0.5,4,0.8
	c1.1,0.3,2.5,0.3,3.4,0.9c2,1.4,2.1,4.4,0.3,5.9C91.1,85.7,90.5,85.7,90.1,85.9z M89.6,82.5c-0.5-0.5-0.8-0.9-1.1-0.9
	c-1.6-0.3-3.2-1-4.8-0.7c-1.7,0.3-3.5,1.1-5,2.1c-1.1,0.8-0.6,3.5,0.6,4.4c0.3,0.2,1,0.4,1.3,0.2c0.8-0.3,1.4-0.9,2.2-1.4
	C84.9,84.8,86.1,82,89.6,82.5z"/>
<path class="st0" d="M102,121.6c-1.6,1-3.4,0.6-4.9,0c-2.1-0.8-4.1-1.3-6.3-1c-0.6,0.1-1.8-0.8-1.8-1.3c0-2.2,0-4.5,0.5-6.6
	c0.4-1.8,2.4-1.7,3.9-1.8c2.2-0.1,4.5,0,6.8,0c0.2,0,0.4-0.1,0.6-0.2c1.4-0.5,2.4,0.2,2.2,1.7c-0.2,1.6,0.4,2.6,1.7,3.5
	c3.1,2,2.8,5-0.7,6.6c-0.5,0.2-1.2-0.3-1.9-0.5C102,121.9,102,121.8,102,121.6z M104,119.2c-1.2-1.4-2.6-2.5-3.4-4
	c-1.2-2.1-2.9-2.1-4.8-1.9c-4,0.4-4.3,0.7-4.7,3.9c1.5,0.4,3,0.8,4.5,1.2c1.3,0.3,2.6,0.6,3.9,0.9c1,0.2,2,0.5,3,0.7
	c0,0.2,0,0.3,0,0.5C102.9,120.2,103.4,119.7,104,119.2z"/>
<path class="st0" d="M87.9,102.4c0-1.4,1.4-2.4,2.8-2.2c0.9,0.1,1.9-0.1,2.8-0.3c0.9-0.2,1.8-0.5,2.6-0.8c0.7-0.3,1.6-0.5,2.1-1
	c1.3-1.1,2-1.1,2.6,0.6c0.4,1.3,0.7,2.5,2.5,2.2c0.4-0.1,1,0.7,1.3,1.3c0.6,1.2,1.2,2.4,1.4,3.7c0.2,0.8,0.1,2-0.3,2.6
	c-0.6,0.8-1.6,0.2-2.5-0.1c-1.4-0.5-3-0.7-4.5-0.7c-2.7-0.1-5.2,0.7-7.6,1.8c-1,0.5-1.6-0.1-1.6-0.9c-0.1-1.9-0.4-3.7-1.5-5.3
	C87.8,103.1,87.9,102.7,87.9,102.4z M98,101.1c-0.2,0.1-0.8,0.6-1.3,0.5c-1.9-0.4-3.1,0.8-4.5,1.6c-0.9,0.6-1.3,1.4-0.8,2.3
	s1.2,1.3,2.3,0.8c1.2-0.5,2.8-1.5,3.7-1.1c1.5,0.7,2.8,0.3,4.3,0.2c0.4,0,0.8-0.3,1.2-0.5c-0.2-0.4-0.4-0.9-0.7-1.1
	C100.9,102.9,99.6,102.1,98,101.1z"/>
<path class="st0" d="M60.3,28.5c0.6-2.4,1.6-5.1,4.4-6.8c0.7-0.4,1.4-1.4,1.8-1.2c2.1,0.7,4.2,1.7,6.1,2.7c2,1.1,3.9,2.6,5.9,3.7
	c1.8,1,2.3,2.7,0.8,4.2c-2.4,2.4-2.8,2.4-5.9,1c-1.3-0.6-2.8-0.7-4.2-0.8c-2.3-0.1-4.7,0.1-7.1,0.1C60.9,31.3,60.1,30.6,60.3,28.5z
	 M77,30.1c0.1-0.2,0.2-0.4,0.3-0.5c-0.4-0.4-0.8-0.9-1.3-1.3c-2.1-1.5-4.2-2.9-6.4-4.3c-1.2-0.8-2.6-1.4-4.1-0.5
	c-1.8,1.2-3.3,2.7-2.9,5C67.5,29.6,72.5,27.1,77,30.1z"/>
<path class="st0" d="M99.8,129.4c0.7,0.5,1.3,1.1,2,1.4c2,0.9,2.3,2.7,0.5,4c-1.3,0.9-2.6,1.9-4.2,0.6c-0.1-0.1-0.4,0.1-0.6,0.2
	c-1.1,1.2-2.1,0.9-3.3,0.1c-1.8-1.3-3.8-2.4-5.7-3.4c-1.4-0.7-1.8-1.7-1.1-3.2c0.7-1.5,1.3-3,1.8-4.5c0.7-2.4,2.4-2.8,4.7-2.2
	c2,0.6,3.4,2.5,5.8,2.2c1.4-0.2,1.4,1.3,1.2,2.4C100.7,127.7,100.2,128.4,99.8,129.4z M98.8,132.3c-0.4-1-1.1-1.9-1-2.7
	c0-1.5-0.5-2.3-1.6-3.3c-2.6-2.3-4.9-1.8-5.8,1.6c-0.2,0.9,0.1,2.4,0.7,2.9c1.9,1.4,4.1,2.3,6.1,3.4C97.6,133.7,98.3,133,98.8,132.3
	z"/>
<path class="st0" d="M87.5,158.6c-1.8-1.6-5.1-0.3-6.6-3.3c-0.5-1.1-2.1-1.8-3.4-2.3c-2.4-1.1-2.8-2.4-1-4.2
	c0.8-0.8,1.4-1.8,2.1-2.8c1.5-2,2.5-2.1,4.4-0.3c1.1,1,2.3,1.9,3.5,2.9c0.2,0.2,0.5,0.4,0.8,0.4c3.3-0.1,2.7,2.8,3.4,4.7
	c0.1,0.3,0.2,0.7,0.3,0.9c1,1.9,0.4,3.2-1.7,3.6C88.7,158.2,88.2,158.4,87.5,158.6z M86.6,153.3c-0.6-1.1-1.1-2.3-1.9-3.2
	c-1.5-1.9-2.8-2.3-4.7-1.5c-1.4,0.6-1.6,1.3-0.5,2.3c1.5,1.3,3.2,2.5,4.8,3.7c0.3,0.2,0.9,0.2,1.2,0
	C86.1,154.4,86.3,153.8,86.6,153.3z"/>
<path class="st0" d="M14.2,189.2c0.3,0.1,0.6,0.2,0.9,0.3c3.5,1.2,4.8,2.8,4.9,6.7c0.1,2.9-2.2,4.2-4.3,5.5
	c-0.5,0.3-1.1,0.7-1.6,0.9c-0.6,0.3-1.6,0.7-1.8,0.5c-0.8-0.7-1.6-1.8-0.7-2.9c0.7-0.8,1.6-1.5,2.4-2.1c1.3-0.9,3.2-1.4,2.9-3.3
	c-0.3-1.8-2.2-1.7-3.6-1.9c-1.7-0.2-2.6-1.4-2.8-2.7c-0.2-1.2,0.3-2.7,0.9-3.8c0.7-1.2,2-2.1,3-3.1c1.1-1,3.7-0.3,4.1,1.1
	c0.4,1.2-0.1,1.8-1.2,2.3c-1.2,0.5-2.3,1.3-3.5,1.9C14.1,188.8,14.2,189,14.2,189.2z"/>
<path class="st0" d="M274.3,181.2c1.8,0.2,3.2,0.4,3.7,2.4c0.4,1.4-0.3,1.7-1.3,1.9c-3.5,0.7-7,1.3-10.6,1.9c-2.7,0.5-5.4,1-8.1,1.3
	c-0.6,0.1-1.6-0.7-1.9-1.3c-0.2-0.4,0.4-1.7,0.8-1.9c1.8-0.7,3.7-1.2,5.6-1.7c3.2-0.8,6.5-1.6,9.7-2.4
	C273,181.3,273.7,181.2,274.3,181.2z"/>
<path class="st0" d="M67.7,75.8c0-0.1,0.1-0.2,0.1-0.4c0.1-0.1,0.2-0.2,0.3-0.3l0.1-0.1c0.1-0.1,0.2-0.2,0.3-0.4
	c0.1-0.1,0.1-0.2,0.2-0.4c0.2-0.1,0.3-0.2,0.5-0.3c0.1,0,0.2,0,0.4,0c0.5,0.2,1,0.4,1.5,0.6c-0.1,0.1-0.1,0.1-0.2,0.2
	c0.2,0.2,0.5,0.4,0.7,0.7c-0.2,0.5-0.7,1.1-0.6,1.5c0.6,1.6,2.6,2.3,4.1,1.1c2.1-1.7,3.6-4.5,7.1-4.1c0-0.2,0-0.5-0.1-0.7
	c-2-0.5-4-0.9-6.1-1.4c-0.1,0.1-0.3,0.1-0.4,0.2c-0.7,0.2-1.4,0.4-2.1,0.6c-0.5-0.4-0.9-0.8-1.4-1.3c1.4-2.4,1.5-2.5,4.5-1.9
	c0.4,0.5,0.7,1,1.2,1.8c0.3-0.8,0.4-1.2,0.5-1.6c0.2,0,0.5,0.1,0.7,0.1c0.3,0.1,0.5,0.1,0.8,0.2c0.6,0,1.3,0.2,1.9,0.1
	c1.8-0.4,3.1,0.7,3.4,2.9c0.3,2.2-0.5,3.4-2.5,3.4c-2.8,0.1-4.6,1.7-6.3,3.6c-0.7,0.7-1.4,1.4-2,2.1c-2.2-1.5-4.3-2.9-6.4-4.3
	c-0.1-0.1-0.1-0.4-0.2-0.6C67.6,76.8,67.7,76.3,67.7,75.8z"/>
<path class="st0" d="M88.1,20.8c-0.4,0.8-0.4,1.3-0.7,1.6c-1,1-2.1,1.9-3.2,2.8C83,25.9,82,25.9,80.8,25s-2.8-1.5-4.2-1.7
	c-2.8-0.4-2.8-0.3-3.4-3.1c-0.2-1-0.6-2.1-0.5-3.1c0-0.7,0.6-1.4,1-2c0.3-0.4,0.9-0.6,1.2-0.9c1.5-1.4,3.5-1.3,4.6,0.5
	c1.5,2.1,4,2.5,5.9,3.9C86.4,19.3,87.2,20,88.1,20.8z M84.1,21.6c-0.7-0.9-1.1-1.8-1.7-2.3c-1.5-1.1-3.2-2.2-4.9-2.9
	c-0.7-0.3-2.1,0.3-2.6,1c-0.6,0.9,0.5,3,1.3,3.2c1.8,0.5,3.6,1,5.3,1.6C82.8,22.7,83.6,22.2,84.1,21.6z"/>
<path class="st0" d="M91.3,137.7c0.7,0.3,1.4,0.5,2.1,0.8c0.4,0.4,0.7,0.9,1.1,1.3c0.1,0.1,0.2,0.2,0.3,0.3h0.1H95
	c0.1,2.4,1,4.6,1.1,6.9c0,1-1.9,2.1-3.3,3.5c-0.9-1.2-1.5-2-2.2-2.8c-0.5-0.6-1.2-1-1.8-1.4c-0.8-0.5-1.5-1.1-2.3-1.6
	c-1.1-0.6-1.8-2.2-3.5-1.2c-0.3,0.2-1.2-0.4-1.5-0.9c-0.2-0.3,0-1.1,0.2-1.6c0.7-1.3,1.4-2.6,2.1-3.9c0.4,0.2,0.8,0.5,1.1,0.7
	c0.2,0.3,0.4,0.7,0.7,1c0,2.4,3.2,5.7,5.6,5.5c0.3,0,0.6-0.4,0.8-0.7c0.8-1.5-0.1-2.6-1-3.7c0.4-0.3,0.8-0.5,1.2-0.8
	c-0.1-0.1-0.1-0.2-0.2-0.4c-0.7,0-1.5,0-2.2,0v-0.1l0,0C90.3,138.6,90.8,138.1,91.3,137.7z"/>
<path class="st0" d="M69.2,152.6c2,0.6,3.7,1.1,5.3,1.6c0.4,0.1,0.7,0.6,0.9,0.9c0.8,1.1,1.5,2.2,2.4,3.2c1.1,1.2,1,2.5-0.2,3.4
	c-0.9,0.7-1.6,1.6-2.4,2.4c-0.5,0.5-1.2,1.1-1.8,1.1c-0.5,0-1-0.8-1.4-1.3c-1.3-1.6-2.3-3.5-3.8-4.9c-1.9-1.7-2.1-2.1-0.5-4.2
	c0.2-0.3,0.2-0.7,0.4-0.9C68.4,153.4,68.8,153,69.2,152.6z M72,155.8c-1.7,0-2.1,0.6-1.5,1.5c0.7,1.1,1.5,2.1,2.3,3.1
	c0.6,0.9,1.2,0.7,1.6,0c0.3-0.5,0.6-1.2,0.4-1.6C74.3,157.2,73.3,156,72,155.8z"/>
<path class="st0" d="M101.6,190.4c-0.3,0.1-0.7,0.3-1,0.4c-0.2-0.5-0.3-0.9-0.5-1.4c-1.6,0.3-1.4,1.2-0.9,2.1c-1.4,0.9-2,3-1.4,5
	c0.4,1.3,1.2,2.6-0.7,3.3c-1,0.4-2.2-1.4-2.5-3c-0.7-3.1-0.4-6.1-0.3-9.2c0-0.9,0-1.8,0-2.6c-0.2-0.7-0.4-1.3-0.7-2.2
	c1.2,0.3,2,0.5,2.9,0.8c-0.3,0.5-0.5,0.9-0.7,1.4c-0.3,0-0.5,0-1.3,0.1c0.5,0.5,0.7,0.7,1.2,1.2c0.1-0.8,0.1-1,0.1-1.3
	c0.3,0.1,0.7,0.2,1,0.4c0.2,0.9,0.4,1.9,0.6,2.8c1-0.4,2-0.7,3-1.1c0,0.3,0.1,0.6,0.1,0.7c0.8,0,1.5,0,2.1,0c0.4-0.5,0.9-1,1.3-1.5
	c-0.1-0.4-0.2-0.8-0.3-1.2c0-0.2-0.1-0.4-0.1-0.6c0.9,0.3,1.9,0.7,2.8,1c-0.1,0.1-0.1,0.2-0.2,0.4c0.3-0.1,0.6-0.3,0.9-0.4
	c0,0.2,0,0.5,0,0.7c-0.1,0.1-0.2,0.2-0.3,0.3c-0.1,0.1-0.2,0.3-0.3,0.4c-0.6-0.5-1.2-0.7-1.4,0.3c-1.1,0.7-2.2,1.5-3.2,2.3
	C101.4,189.6,101.6,190.1,101.6,190.4z M95.5,187.4c-0.2,0-0.5,0-0.7,0c0,0.5,0.1,1,0.1,1.5c0.2,0,0.4,0,0.6,0
	C95.5,188.4,95.5,187.9,95.5,187.4z M96.2,186.9c0-0.1,0-0.1-0.1-0.1H96C96,186.9,96,186.9,96.2,186.9
	C96.1,187,96.1,186.9,96.2,186.9z"/>
<path class="st0" d="M82.5,92.4c1.6-1.1,3.4-2,4.6-3.4c1.5-1.6,3.1-1.2,4.8-1c0.6,0.1,1.3,0.2,1.9,0.2c2.5-0.1,4,1.2,5,3.3
	c0.7,1.6-0.7,3-2.3,3.5c-1.9,0.6-3.6,2-5.4,3.1c-0.4,0.3-0.8,0.5-1.3,0.8c-0.2-0.5-0.5-1-0.7-1.5c2.1-1.7,4.2-3.3,6.3-5
	c0.4-0.3,0.4-1,0.6-1.7c-1.8,0.6-3,0.3-4.3-0.7c-1.2-1-6,1.3-7.2,3.1c-0.4,0.6-0.9,1-1.4,1.5c-0.5,0-1-0.1-1.5-0.1
	C82,93.7,82.2,93.1,82.5,92.4z"/>
<path class="st0" d="M61,159.4c0.4,0.3,0.9,0.6,1.3,1.1c1,1.3,1.9,2.5,3.8,2.4c0.4,0,1,0.9,1.2,1.5c0.1,0.2-0.6,0.8-0.9,1.1
	c-0.5,0.4-1,0.7-1.5,1.1c-0.8,0.7-1.5,1.3-2.5,0.4c-0.3-0.3-0.9-0.3-1.3-0.4c-0.6-0.1-1.4,0.2-1.7-0.1c-1.2-1-2.3-2.2-3.2-3.4
	c-0.2-0.3,0.1-1.5,0.5-1.7C57.9,160.7,59.4,160.2,61,159.4z"/>
<path class="st0" d="M95.6,185.1c0.2-0.4,0.5-0.9,0.7-1.4c-0.9-0.2-1.7-0.5-2.9-0.8c0.3,0.9,0.5,1.5,0.7,2.2
	c-1.1,0.2-2.2,0.4-3.3,0.6c-1.2,0.2-2.4,0-2.4-1.3c0-0.7,0.9-1.7,1.6-2c1.5-0.6,3.1-0.8,4.7-1.1c0,0.4,0.1,0.8,0.1,0.8
	c0.8,0.3,1.4,0.6,2,0.8c0-0.7,0-1.3,0-2c2.1,0.2,4.3,0.2,6.4,0.7c1.9,0.4,3.3,1.7,3.4,3.9c-0.3,0.1-0.6,0.3-0.9,0.4
	c0.1-0.1,0.1-0.2,0.2-0.4c-0.9-0.3-1.9-0.7-2.8-1c-1.9-0.2-3.7-0.4-5.6-0.6c-0.2-0.2-0.3-0.3-0.5-0.5c0.1,0.2,0.1,0.4,0.2,0.5
	c-0.3,0.5-0.5,0.9-0.8,1.4C96.3,185.3,95.9,185.2,95.6,185.1L95.6,185.1z"/>
<path class="st0" d="M43.2,109.8c-0.3,0-0.7,0.1-1.1,0.5c0.1-0.1,0.1-0.3,0.2-0.5C42.6,109.7,42.9,109.7,43.2,109.8z"/>
<path class="st0" d="M44.4,81C44.4,81,44.4,81,44.4,81C44.4,81,44.4,81,44.4,81c0-0.1,0.1-0.1,0.1-0.1c0.1,0.1,0.2,0.1,0.3,0.2h0
	c0,0,0.1,0.1,0.1,0.1c0,0,0,0,0,0c0,0,0,0.1,0,0.1c-0.1,0-0.2-0.1-0.3-0.2C44.6,81.1,44.5,81.1,44.4,81C44.4,81.1,44.4,81,44.4,81z"
	/>
<path class="st0" d="M44.8,87.4c0,0.3,0.1,0.7,0.1,1C44.8,88,44.8,87.7,44.8,87.4z"/>
<path class="st0" d="M44.9,85.2L44.9,85.2c-0.8,0.4-0.6,0.8-0.1,1.3c0,0.1,0,0.1,0,0.1C44.1,86,43.9,85.5,44.9,85.2z"/>
<path class="st0" d="M45.1,81.5L45.1,81.5c-0.3,0.2-0.6,0.3-0.9,0.5v0.7l-0.1-0.1V82C44.4,81.8,44.8,81.7,45.1,81.5z"/>
<path class="st0" d="M266.5,201.3c-2.2-3.8-1.3-7.7-0.9-11.6c0-0.5,1.1-0.9,1.7-1.4c0.3,0.5,1,0.9,1,1.4c0.2,2.5,0.2,4.9,0.2,7.4
	c0,0.5,0,1,0.1,1.4C269,200.1,268.4,201,266.5,201.3z"/>
<path class="st0" d="M91,18.4c-2.2,0-3.6-0.9-4.7-2.3c-0.3-0.4-0.4-1.3-0.1-1.8c0.2-0.4,1-0.5,1.6-0.5c0.7-0.1,1.5-0.2,2.2,0.1
	c0.9,0.3,2.1,0.7,2.4,1.5c0.3,0.7-0.2,1.9-0.5,2.8C91.8,18.3,91.1,18.3,91,18.4z"/>
<path class="st0" d="M89.2,97.4c0.2,0.5,0.5,1,0.7,1.5c-1.5,1.7-3.6,1.6-5.6,1.6c-0.4,0-1-0.4-1.2-0.8c-0.8-1.4-1.4-2.9-2.1-4.3
	c-0.2-0.3-0.4-0.7-0.6-1c0-1.4,0.5-2.1,2-1.8c-0.3,0.6-0.5,1.3-0.8,2c0.5,0,1,0.1,1.5,0.1c0.1,0.3,0.5,0.7,0.4,0.9
	C83,97,84,97.7,85.1,98.1c0.6,0.2,1.5-0.3,2.3-0.4c0.4-0.1,0.8-0.1,1.1-0.2c0.1,0,0.2,0,0.3,0C89,97.4,89.1,97.4,89.2,97.4z"/>
<path class="st0" d="M85,138c-0.4-0.2-0.8-0.5-1.1-0.7c1.2-0.9,2.3-1.8,3.6-2.5c0.3-0.2,1,0.3,1.5,0.7c0.8,0.7,1.6,1.5,2.4,2.2
	c-0.5,0.4-1,0.9-1.6,1.3c-0.2-0.1-0.4-0.1-0.6-0.2c-0.1-0.3-0.2-0.6-0.3-0.8c0.1-0.4,0.2-0.7,0.4-1.4c-1.3,0-2.5,0-3.6,0
	C85.4,137.1,85.2,137.6,85,138z"/>
<path class="st0" d="M43.1,62.3c-0.1,0-0.1,0-0.2-0.1C43,62.2,43,62.2,43.1,62.3z"/>
<path class="st0" d="M71.4,75.5c-0.2-0.2-0.5-0.4-0.7-0.7c0.1-0.1,0.1-0.1,0.2-0.2c-0.5-0.2-1-0.4-1.5-0.6c0.8-0.9,1.7-1.7,2.5-2.6
	c0.5,0.4,0.9,0.8,1.4,1.3c-0.1,0.1-0.2,0.2-0.2,0.3c-0.1,0.1-0.1,0.2-0.2,0.3C72.4,74.1,71.9,74.8,71.4,75.5z"/>
<path class="st0" d="M101.6,190.4c0-0.3-0.2-0.8,0-0.9c1-0.8,2.1-1.5,3.2-2.3l0,0c0.1,0.4,0.2,0.7,0.4,1.1
	C103.9,189,102.8,189.7,101.6,190.4z"/>
<path class="st0" d="M97,180.9c0,0.7,0,1.3,0,2c-0.6-0.3-1.2-0.5-2-0.8c0,0,0-0.4-0.1-0.8c0.2,0,0.4,0,0.7,0
	c0.2-0.1,0.5-0.1,0.7-0.2C96.5,181,96.7,181,97,180.9z"/>
<path class="st0" d="M99.1,191.5c-0.5-0.9-0.7-1.8,0.9-2.1c0.2,0.5,0.3,0.9,0.5,1.4C100.1,191.1,99.6,191.3,99.1,191.5z"/>
<path class="st0" d="M45.1,81.5v2.2c-0.3-0.4-0.5-0.7-0.9-1l-0.1-0.1V82C44.4,81.8,44.8,81.7,45.1,81.5z"/>
<path class="st0" d="M45,75.5c-0.3-1.1-0.6-2.2-0.9-3.3l0,0c0.2,0,0.4,0,0.5-0.1C44.8,73.2,46.2,74.2,45,75.5z"/>
<path class="st0" d="M78.3,69.8c-0.1,0.4-0.3,0.8-0.5,1.6c-0.5-0.8-0.9-1.3-1.2-1.8C77.1,69.6,77.7,69.7,78.3,69.8z"/>
<path class="st0" d="M104.8,187.2c0.3-1,0.8-0.8,1.4-0.3c-0.2,0.3-0.5,0.7-0.7,1C105.2,187.7,105,187.5,104.8,187.2L104.8,187.2z"/>
<path class="st0" d="M43.9,48.1c-0.3-0.2-0.6-0.5-0.9-0.8c-0.1-0.1-0.2-0.2-0.3-0.2c0.1-0.1,0.2-0.3,0.3-0.4
	c0.3,0.1,0.6,0.2,0.8,0.3c0,0.1,0,0.2,0,0.2C43.8,47.5,43.9,47.8,43.9,48.1z"/>
<path class="st0" d="M44.9,85.2L44.9,85.2c0,0.4,0,0.8-0.1,1.3c0,0.1,0,0.1,0,0.1C44.1,86,43.9,85.5,44.9,85.2z"/>
<path class="st0" d="M94.5,139.8c-0.4-0.4-0.7-0.9-1.1-1.3c0.2,0.1,0.5,0.1,0.7,0.2c0.1,0.1,0.3,0.3,0.4,0.4l0,0
	C94.6,139.3,94.5,139.5,94.5,139.8z"/>
<path class="st0" d="M44.1,114.5c0.1-0.9,0.2-1.9,0.3-2.8C44.3,112.7,44.2,113.6,44.1,114.5z"/>
<path class="st0" d="M44.8,71.6c0,0-0.1,0.1-0.1,0.1c0,0,0,0,0,0.1c-0.1,0.1-0.2,0.2-0.3,0.2c0,0-0.1,0.1-0.1,0.1
	c-0.1-0.2-0.3-0.3-0.4-0.5c-0.1-0.1-0.1-0.2-0.2-0.3c0.4,0.1,0.7,0.2,1.1,0.3C44.7,71.6,44.8,71.6,44.8,71.6z"/>
<path class="st0" d="M43.9,49.3c0,0.2,0,0.4,0.1,0.6c-0.1-0.1-0.3-0.3-0.4-0.4c-0.1-0.1-0.1-0.1-0.2-0.2c0.2-0.2,0.4-0.3,0.6-0.5
	C44,49,43.9,49.1,43.9,49.3z"/>
<path class="st0" d="M44.9,88.4c-0.1-0.4-0.1-0.7-0.1-1C44.8,87.7,44.9,88.1,44.9,88.4z"/>
<path class="st0" d="M67.7,75.8c0,0.5,0,1,0,1.4C67.6,76.8,67.7,76.3,67.7,75.8z"/>
<path class="st0" d="M44.8,88.9v0.9C44.3,89.5,44.3,89.1,44.8,88.9z"/>
<path class="st0" d="M44.7,70.4c-0.1-0.4-0.1-0.8-0.2-1.2C44.6,69.6,44.6,70,44.7,70.4z"/>
<path class="st0" d="M104.8,187.2c0.2,0.2,0.5,0.5,0.7,0.7c-0.1,0.1-0.2,0.2-0.4,0.4C105,187.9,104.9,187.6,104.8,187.2z"/>
<path class="st0" d="M94.5,139.8c0-0.3,0-0.5,0.1-0.8c0.1,0.3,0.2,0.5,0.3,0.8c0,0.1,0,0.2-0.1,0.3C94.7,140,94.6,139.9,94.5,139.8z
	"/>
<path class="st0" d="M80.5,94.3c0.2,0.3,0.4,0.7,0.6,1C80.9,95,80.7,94.6,80.5,94.3z"/>
<path class="st0" d="M69.1,74.1c-0.2,0.1-0.3,0.2-0.5,0.3C68.7,74.3,68.9,74.2,69.1,74.1z"/>
<path class="st0" d="M96.3,181c-0.2,0.1-0.5,0.1-0.7,0.2C95.8,181.1,96,181.1,96.3,181z"/>
<path class="st0" d="M79.7,70.1C79.5,70,79.2,70,79,69.9C79.2,70,79.5,70,79.7,70.1z"/>
<path class="st0" d="M68,75.2c-0.1,0.1-0.2,0.2-0.3,0.3C67.9,75.4,67.9,75.3,68,75.2z"/>
<path class="st0" d="M94.8,140.1c0-0.1,0-0.2,0.1-0.3c0.1,0.1,0.1,0.2,0.2,0.3H95H94.8z"/>
<path class="st0" d="M44.2,72.1c0.2-0.1,0.4-0.3,0.6-0.4c0,0.1,0,0.2-0.1,0.4C44.5,72.1,44.4,72.1,44.2,72.1z"/>
<path class="st0" d="M45,81.2c0,0,0,0.1,0,0.1c-0.1,0-0.2-0.1-0.3-0.2c-0.1,0-0.2-0.1-0.3-0.1c0.1,0,0.3,0.1,0.4,0.1h0
	C44.9,81.1,45,81.1,45,81.2C45,81.1,45,81.1,45,81.2z"/>
<path class="st0" d="M106.5,186.5c0.1-0.1,0.2-0.2,0.3-0.3C106.7,186.3,106.6,186.4,106.5,186.5z"/>
<path class="st0" d="M94.6,139c-0.1-0.1-0.3-0.3-0.4-0.4C94.3,138.8,94.5,138.9,94.6,139z"/>
<path class="st0" d="M68.4,74.8c-0.1,0.1-0.2,0.2-0.3,0.4C68.2,75,68.3,74.9,68.4,74.8z"/>
<path class="st0" d="M41.9,101.1c0,0.1-0.1,0.2-0.1,0.3c-0.1,0-0.2-0.1-0.3-0.1c0-0.1,0.1-0.3,0.1-0.3
	C41.7,100.9,41.8,101,41.9,101.1z"/>
<path class="st0" d="M41.5,83.8c0,0.1-0.1,0.2-0.1,0.3C41.4,84,41.4,83.9,41.5,83.8z"/>
<path class="st0" d="M44.1,97.2L44.1,97.2C44,97.3,44,97.3,44.1,97.2L44.1,97.2z"/>
<path class="st0" d="M44,95.8C44,95.8,43.9,95.8,44,95.8L44,95.8z"/>
<path class="st0" d="M75.9,72c-0.1,0.1-0.3,0.1-0.4,0.2C75.6,72.1,75.7,72,75.9,72z"/>
<path class="st0" d="M88.5,138.6c-1.1-0.8-2-0.7-2.9,0.3c-0.2-0.3-0.4-0.7-0.7-1c0.2-0.4,0.4-0.9,0.7-1.4c1.1,0,2.3,0,3.6,0
	c-0.2,0.6-0.3,1-0.4,1.4C88.7,138.2,88.6,138.4,88.5,138.6z"/>
<path class="st0" d="M91,140.2c-0.4-0.4-0.8-0.8-1.2-1.2c0.7,0,1.5,0,2.2,0c0.1,0.1,0.1,0.2,0.2,0.4C91.8,139.7,91.4,140,91,140.2z"
	/>
<path class="st0" d="M100.2,187.2c1.1-0.7,2.1-1.3,3.2-2c0.1,0.4,0.2,0.8,0.3,1.2c-0.5,0.5-0.9,1-1.3,1.5c-0.6,0-1.3,0-2.1,0
	C100.2,187.8,100.2,187.5,100.2,187.2z"/>
<path class="st0" d="M95.5,187.4c0,0.5,0,1,0,1.5c-0.2,0-0.4,0-0.6,0c0-0.5-0.1-1-0.1-1.5C95,187.4,95.2,187.4,95.5,187.4z"/>
<path class="st0" d="M95.6,185.1c0,0.3,0,0.5-0.1,1.3c-0.5-0.5-0.7-0.7-1.2-1.2C95,185.2,95.3,185.1,95.6,185.1L95.6,185.1z"/>
<path class="st0" d="M96.2,186.9L96.2,186.9c-0.1,0-0.1-0.1-0.2-0.1h0.1C96.2,186.8,96.2,186.9,96.2,186.9z"/>
<path class="st1" d="M88.5,97.5c-0.4,0.1-0.8,0.1-1.1,0.2c-0.8,0.2-1.7,0.7-2.3,0.4c-1.1-0.4-2-1.1-1.5-2.7c0.1-0.2-0.2-0.6-0.4-0.9
	c0.5-0.5,1-0.9,1.4-1.5c1.2-1.8,5.9-4.1,7.2-3.1c1.3,1,2.5,1.3,4.3,0.7c-0.2,0.7-0.2,1.4-0.6,1.7c-2,1.7-4.2,3.4-6.3,5
	c-0.1,0-0.2,0.1-0.4,0.1C88.7,97.4,88.6,97.4,88.5,97.5z"/>
<path class="st0" d="M97.7,184c-0.1,0.1-0.2,0.1-0.3,0.1c-0.1-0.2-0.1-0.4-0.2-0.5C97.4,183.7,97.5,183.8,97.7,184z"/>
<path class="st0" d="M88.5,97.5c0.1,0,0.2,0,0.3,0C88.7,97.5,88.6,97.5,88.5,97.5z"/>
<path class="st0" d="M110.2,22.2c0-0.1,0-0.2-0.1-0.2h0.1C110.3,22,110.2,22.1,110.2,22.2z"/>
<path class="st0" d="M88.5,138.6c0.1-0.2,0.2-0.4,0.3-0.6c0.1,0.3,0.2,0.6,0.3,0.8C88.9,138.8,88.7,138.7,88.5,138.6z"/>
<path class="st0" d="M73.1,73c-0.1,0.1-0.1,0.2-0.2,0.3C73,73.2,73,73.1,73.1,73z"/>
<path class="st0" d="M45.3,97.1c-0.2-2.4-0.2-4.8-0.3-7.2c-0.1,0-0.1-0.1-0.2-0.1c-0.5-0.3-0.5-0.6,0-0.9c0.1,0,0.1-0.1,0.2-0.1
	v-0.4c0-0.3-0.1-0.7-0.1-1c0-0.3,0.1-0.5,0.1-0.8c-0.1,0-0.1-0.1-0.2-0.1c0,0.1,0,0.1,0,0.1c-0.7-0.6-0.9-1.1,0.1-1.4v0.1
	c0.1,0,0.1,0,0.2-0.1c0-0.5,0.1-0.9,0.1-1.4c0,0-0.1-0.1-0.1-0.1c-0.3-0.4-0.6-0.6-0.9-1l-0.1-0.1V82c0.3-0.2,0.7-0.3,1-0.5v0
	c0,0,0.1,0,0.1,0c0-0.1,0-0.2-0.1-0.3c0,0,0,0-0.1,0c0,0,0,0.1,0,0.1c-0.1,0-0.2-0.1-0.3-0.2c0.1,0,0.2,0.1,0.3,0.1v-0.1v-5.5
	c-0.3-1-0.5-2-0.8-3l0-0.5l0-0.4c0.1,0,0.3,0.1,0.4,0.1c0,0,0,0,0,0v-0.1c0,0,0-0.1,0-0.2c0-0.4-0.1-0.7-0.1-1.1
	c-0.1-0.4-0.1-0.8-0.2-1.2c0-0.5-0.1-0.9-0.1-1.3l0.3-10l-0.1-0.7c0-0.4-0.1-0.7-0.1-1.1c-0.2-1.8-0.3-3.5-0.5-5.3c0,0,0,0,0.1,0
	c0-0.2,0.1-0.5,0.1-0.7c-0.2-0.2-0.4-0.4-0.6-0.6c0,0,0.1-0.1,0.1-0.1c0.1-0.1,0.2-0.2,0.3-0.3c0.1,0,0.1-0.1,0.2-0.2v-0.7
	c-0.4-0.3-0.8-0.7-1.2-1c0,0,0,0,0.1-0.1c0.1-0.1,0.2-0.2,0.2-0.3c0.2,0.1,0.4,0.2,0.6,0.2c0.1,0,0.1,0,0.2,0.1
	c-0.6-5.1-2.2-10-4-14.8c-1.1-2.9-2.6-5.7-4.1-8.4c-1.4-2.6-3.1-4.5-5.4-6.1c-0.3-0.2-0.7-0.4-1.1-0.4c-2.4,0.1-4.9,0.2-7.3,0.5
	c-1.2,0.1-2.4,0.5-3.5,1.1c-3.4,1.9-5.4,5-7.4,8.2C9,30.9,8.5,34.9,7.3,38.6c-0.9,2.7-1.2,5.5-1.8,8.2C5,49.2,4.3,51.6,4,54
	c-0.3,3.1-0.3,6.3-0.5,9.4c-0.2,3.2-0.4,6.5-0.6,9.7c0,1.8,0.1,3.6-0.2,5.3c-0.9,4.7-0.1,9.5,0,14.2H2.4c0,0.2,0,0.5-0.2,0.6
	c0,0,0.1,0.1,0.1,0.1v0v4.8H2.2c0,0.2-0.1,0.5-0.1,0.7c0.2,0.9,0.5,1.9,0.7,2.8c0,0.2,0.1,0.5,0.1,0.7c0.7,0.3,1.1,0.8,1.3,1.3
	c-0.2-0.4-0.6-0.8-1.3-1.1c0.2,1.5,0.3,3.2,0.4,4.8c-0.1,0.1-0.1,0.2-0.1,0.3c-0.2,0.6-0.3,1.2-0.4,1.8c0,0.8-0.1,1.7,0,2.5
	c0.4,6.1,0.9,12.1,1.4,18.2c0.1,0.9,0.7,1.7,1.1,2.6c0,0,0,0,0,0c0.1,0.2,0.1,0.4,0.1,0.6c0.2,0,0.3,0,0.5-0.1l0,0.2
	c-0.1,0-0.3,0.1-0.4,0.1c-0.2,0.6-0.5,1.2-0.5,1.6c0.8,4,1.4,7.9,2.4,11.8c0.9,3.3,2,6.5,3,9.8v0.1c0.4,1.2,0.8,2.4,1.2,3.6
	c0.2,0,0.4-0.1,0.5-0.1l0.1,0.2c-0.3,0-0.5,0.1-0.8,0.2c0.8,1.5,1.5,3.1,2.5,4.4s2.2,2.8,3.6,3.4c3.7,1.5,7.4,0.9,10.5-1.7
	c3-2.6,5.7-5.6,6.9-9.6c1-3.1,2.1-6.1,3-9.2c1-3.3,1.7-6.7,2.5-10c0.8-3.3,1.7-6.6,2.2-9.9c0.7-4.4,0.8-9,1.2-13.5
	c0.1-0.9,0.2-1.9,0.3-2.8c0.1-0.4,0.1-0.7,0.2-1.1c-0.3-0.3-0.7-0.7-1.1-0.9c0.6,0,1,0.5,1.5,1c0.2-2.3,0.3-4.6,0.5-6.9
	c0.1-1,0.5-1.9,0.5-2.9C45.7,99.7,45.4,98.4,45.3,97.1z M36.8,95.1c0.2,0,0.4-0.1,0.6-0.2l0,0.1c-0.2,0.1-0.4,0.1-0.6,0.2
	C36.8,95.2,36.8,95.1,36.8,95.1z M36.9,88.3c0-0.1,0.1-0.2,0.1-0.3C37,88.1,37,88.2,36.9,88.3z M37.3,88.1c0,0.1,0,0.3-0.1,0.3
	C37.2,88.4,37.3,88.2,37.3,88.1z M37.2,81.5c0-0.1,0.1-0.2,0.1-0.4c0.1,0,0.2,0,0.3,0.1l0,0.4C37.5,81.5,37.3,81.5,37.2,81.5z
	 M37.6,79.1l0,0.3c0,0-0.1,0-0.1,0C37.5,79.3,37.5,79.1,37.6,79.1C37.6,79.1,37.6,79.1,37.6,79.1z M36.7,96.2c0.2,0.3,0.5,0.6,0.7,1
	l0,0.2c-0.1,0.1-0.1,0.2-0.2,0.3c-0.3-0.5-0.6-0.9-0.9-1.3C36.5,96.3,36.5,96.3,36.7,96.2z M29.5,33.8c0,0.2,0,0.4-0.1,0.7
	C29.5,34.3,29.5,34,29.5,33.8z M9.3,89.7H9.2l0-0.1c0.3,0.2,0.7,0.4,1,0.7C9.9,90.1,9.6,89.9,9.3,89.7z M9.3,86.3
	C9.3,86.3,9.4,86.4,9.3,86.3C9.3,86.4,9.3,86.4,9.3,86.3L9.3,86.3C9.3,86.3,9.3,86.3,9.3,86.3z M9.3,82L9.3,82
	c0.1-0.2,0.3-0.3,0.4-0.5C9.6,81.7,9.5,81.8,9.3,82z M15.8,148L15.8,148c0.1-0.2,0.2-0.3,0.2-0.5C16,147.7,15.9,147.8,15.8,148z
	 M16.5,160.2c0,0-0.1-0.1-0.1-0.1l-0.2-0.7c0.2,0.2,0.3,0.3,0.5,0.5c0.1,0.2,0.2,0.8,0,1c0,0,0,0.1-0.1,0.1
	C16.7,160.7,16.7,160.3,16.5,160.2z M27.5,150.8c-1.1,2.5-1.9,5.3-4.6,6.7c-1.1,0.6-1.9,0.3-2.4-0.8c-0.6-1.2-1.2-2.4-1.8-3.7
	c-0.5-1.2-1-2.5-1.5-3.7c-0.1,0-0.2,0.1-0.4,0.1c0,0,0-0.1,0-0.1c0,0,0.4-0.2,0.6-0.3c0-0.3-0.1-0.7-0.2-1h-0.1
	c-0.3-0.4-0.5-0.6-0.7-1c0-0.1,0-0.2-0.1-0.3c0.2-1.3,1.1-2.7-0.7-3.6c0-0.1-0.1-0.2-0.1-0.3v-0.7c-0.5,0.4-0.9,0.7-1.4,1.1
	c0,0,0-0.1,0-0.1c0.5-0.4,0.9-0.7,1.4-1.1c-0.1-1.2,0-2.4-0.3-3.6c-0.9-3.8-2-7.5-2.8-11.3c-0.5-2.4-0.5-4.8-0.7-7.3
	c-0.2-4.3-0.5-8.6-0.7-12.9c0,0-0.1,0-0.1,0v-1c0,0,0.1,0,0.1-0.1c0-0.3-0.1-0.7-0.1-1c0-0.2-0.1-0.4-0.1-0.6
	c-0.1-1.8-0.3-3.6-0.4-5.4c0,0,0.1,0,0.1-0.1c0-0.3,0.1-0.7,0.1-1c0-0.1-0.1-0.1-0.1-0.2c0,0,0,0,0,0c0-0.8-0.1-1.4-0.2-2.1h0.1
	v-1.1c-0.1-0.4-0.1-0.7-0.2-1.1c0.1-0.2,0.3-0.5,0.4-0.7c-0.1,0-0.1-0.1-0.2-0.2c0-0.3-0.1-0.7-0.1-1.1c0,0,0.1-0.1,0.1-0.1v-0.7
	c0,0-0.1,0-0.1-0.1c0-2.5-0.1-5-0.1-7.4c0-0.6-0.1-1.1-0.2-1.7v0c0,0,0.1-0.1,0.1-0.1v-0.2c0.2-2.6,1.1-5.2,0.3-7.8
	c-0.1-0.4,0.3-0.8,0.3-1.2c0.4-4.4,0.7-8.9,1.2-13.3c0.4-3.8,0.9-7.6,1.5-11.3c0.8-5,2.5-9.6,4.3-14.3c0.7-1.7,1.4-3.5,2.3-5.1
	c0.3-0.5,1.4-0.8,2.1-0.8c3.4,0,4.8,2.5,6,5.2c0.1,0.4,0.4,0.8,0.6,1.2c0,0,0.1,0,0.1,0c0.2,0.3,0.4,0.8,0.6,1.1c0,0.1,0,0.2,0,0.2
	v0.6v0.1c0,0,0,0,0,0c0.5,1.2,1,2.2,1.5,3.4c0.1-0.5,0.1-1,0.1-1.5v0l0.1,0.3c0,0.4,0,0.9-0.1,1.3c0.4,1.5,1,3,1.3,4.6
	c0.8,3.7,1.6,7.4,2.2,11.2c0.3,2.2,0.3,4.5,0.5,6.7c0,0,0,0,0,0c0.2,1.3,0.3,2.5,0.5,3.8H37l0,0.1h-1.4v0.5v0.2V67
	c0.2-0.1,0.3-0.2,0.5-0.4l0.1,0.1c-0.2,0.2-0.4,0.3-0.6,0.5c0.1,0.2,0.1,0.5,0.2,0.7h0c0,0.7,0.1,1.6,0.1,2.3c0.3-0.3,0.8-0.6,1-0.8
	c0,0,0,0.1,0,0.1c0.1,0.2-0.6,0.6-1,0.9c-0.1,0.5-0.1,0.9-0.1,1.3c-0.1,0.7-0.1,1.4-0.1,2.1c0.6-0.6,0.9-1,0.9-1.3
	c0,0.3-0.3,0.8-0.9,1.4c0.2,1.4,0.4,2.8,0.6,4.2v4.5c0.1,0,0.2,0,0.4,0c0,0,0,0,0,0h-0.3v1.2c-0.1,0.1-0.3,0.3-0.4,0.4v0.7
	c0.1,0,0.2-0.1,0.4-0.1c-0.1,2.3-0.4,4.7-0.4,7c0,1.6,0,3.3,0,4.9c0,0-0.1,0-0.1,0.1c0,0.1,0.1,0.1,0.1,0.2c0,0,0,0,0,0
	c0,1.8,0.1,3.6,0.2,5.4v0c0,0,0,0,0,0c-0.1,0.2-0.2,0.5-0.3,0.7c0,0.2,0.1,0.4,0.1,0.6c0,0-0.1,0-0.1,0c0-0.1,0-0.2-0.1-0.2
	c0,0.1,0,0.2,0,0.2c-0.1,0-0.2-0.1-0.3-0.1c0.1,0.2,0.1,0.3,0.1,0.5c0.1,0.1,0.1,0.1,0.2,0.1c0.1,1.5,0.1,3.1,0.2,4.7
	c0.1-0.1,0.2-0.2,0.3-0.3c-0.2,0.2-0.3,0.3-0.5,0.5v1.4c0.1,0,0.1,0,0.2,0c-0.1,1.1-0.2,2.2-0.2,3.2c-0.1,0.2-0.2,0.4-0.2,0.6
	c-0.1,0.5-0.2,0.9-0.3,1.4c-0.1,0.2-0.1,0.5-0.2,0.7v0.7c0.1,0.1,0.1,0.1,0.2,0.2c0,0.8-0.1,1.6-0.2,2.3c-0.1,0.1-0.1,0.2-0.2,0.2
	v0.7c0,0.1,0.1,0.3,0.1,0.4c-0.1,0.5-0.2,1-0.2,1.6c0.2,0.3,0.5,0.7,0.9,1.1c-0.1,0-0.1,0-0.2,0c-0.2-0.4-0.5-0.7-0.8-1.1
	c-0.1,0.3-0.3,0.5-0.4,0.8c0,0,0,0.1,0.1,0.1c-0.4,2.3-0.9,4.7-1.3,7c0.3-0.1,0.7-0.1,0.9-0.2v0.1c-0.3,0.1-0.7,0.1-1.1,0.2v0.7
	c0,0,0,0.1,0.1,0.2c-0.3,0.9-0.6,1.7-0.9,2.5c0.2,0.2,0.5,0.3,0.7,0.3c0,0.1,0,0.1,0,0.2c-0.3-0.1-0.6-0.2-0.9-0.3
	c-0.8,3.3-1.6,6.7-2.4,10C28.7,146.4,28.4,148.7,27.5,150.8z M36.9,68.5c0,0.2,0,0.4,0,0.6C36.8,68.9,36.9,68.7,36.9,68.5z
	 M34.4,125.4L34.4,125.4L34.4,125.4C34.4,125.4,34.4,125.4,34.4,125.4C34.4,125.4,34.4,125.4,34.4,125.4z"/>
<g>
	<path class="st0" d="M156.1,12.4c-1.2-2.1-3.2-2.8-5.3-3c-1.3-0.2-2.7,0.6-4,0.7c-2.3,0.2-4.6,0.1-6.9,0.3c-1.7,0.2-3.3,0.6-5,0.7
		c-1.8,0.1-3.6-0.2-5.3,0.1c-3.8,0.7-7.5,0.4-11.3,0.3c-0.8,0-1.5-0.1-2.3,0c-3.5,0.5-6.9,1.1-10.4,1.7c-3.5,0.6-5.6,4.9-3.6,7.7
		c0.8,1.1,2.5,1.5,3.8,2.3c0.8-0.2,1.5-0.3,2-0.8l0.7,0.3c-1,0.2-1.8,0.3-2.7,0.5c2.7-0.1,5.4-0.2,8.1-0.3c0.7,0,1.3-0.3,1.9-0.4
		c-0.2-0.2-0.3-0.4-0.5-0.5c1.7,0,3.3,0,5,0.1c3.8,0.1,3.8,0.1,4.1,3.9c0,0.3,0.2,0.5,0.2,0.7c0,2.5,0,5.1,0,7.7
		c0,1.1,0,2.1-0.1,3.2c0.1,0.1,0.2,0.1,0.3,0.2l0,0.4c0,0.2-0.1,0.5-0.1,0.7c-0.2,0-0.3,0-0.5,0.1c0,0.2,0,0.5,0,0.7
		c0.2,0,0.4,0,0.5,0.1c0.1,0.1,0.1,0.2,0.2,0.3l0,0.1c-0.1-0.1-0.2-0.1-0.4-0.1c-0.6,1.4-0.1,2.7,0.3,4.1c-0.1,0-0.1,0.1-0.2,0.1
		c-0.1,0.4-0.3,0.7-0.4,1.1c0.6,0.2,0.8,0.4,0.9,0.7c-0.1-0.1-0.3-0.2-0.6-0.3c0.1,0.4,0.2,0.8,0.3,1.3c-0.1,0.1-0.1,0.2-0.2,0.3
		c0,0.4,0.1,0.8,0.1,1.2c0.2-0.2,0.4-0.5,0.7-0.9l0,0.6c-0.2,0.2-0.3,0.4-0.5,0.6c0,0.5,0.1,1.1,0,1.6c-0.1,0.1-0.2,0.2-0.3,0.3
		c0.1,0.4,0.3,0.7,0.3,1c0,2.2-0.1,4.3-0.1,6.5c0,2.8,0.1,5.5,0.1,8.3c0,2.7-0.1,5.3-0.1,8c0.3,0.1,0.5,0.3,0.8,0.3c0,0,0,0,0,0V75
		c-0.1-0.1-0.3-0.1-0.4-0.2c-0.8,0.8-0.8,1.9-0.5,2.9c-0.1,0-0.2,0-0.3,0c0,1.9,0.1,3.9,0,5.8c-0.2,2.6-0.4,5.3-0.6,7.9
		c-0.1,1.3-0.2,2.5-0.1,3.8c0.1,2.2,0.4,4.4,0.4,6.5c-0.1,4.8-0.5,9.7-0.6,14.5c-0.1,4.4-1.1,8.9-0.2,13.4c0.1-0.8,0.3-1.6,0.4-2.4
		l0.3,1.4c-0.1,0.4-0.2,0.9-0.2,1.3c0,0.3,0,0.7-0.1,0.8c0.2,0.1,0.5,0.2,0.8,0.3c0,0.1,0,0.1,0,0.2c-0.2-0.1-0.5-0.2-0.8-0.3
		c0,0.2-0.1,0.3-0.1,0.5c-0.1,0-0.1,0-0.2,0c0,0.1,0,0.1,0,0.2c0,0,0,0,0,0c0,0,0,0,0,0c0.1,0.7,0.1,1.4,0.2,2
		c0.4,0.2,0.7,0.5,1.1,0.8l0,0.1c-0.3-0.2-0.7-0.5-1-0.7c0,0.3,0,0.8,0.1,1.2c0,0-0.1,0-0.1,0c0,0.2,0,0.5,0,0.7
		c0.3,0.5,1.1,1.3,0.9,1.6c-0.1-0.4-0.7-0.9-0.9-1.4c-0.1,1.5-0.2,3.2-0.3,4.7c0,0,0,0,0,0c-0.1,0.5-0.1,1.1-0.2,1.7
		c0.7,0.1,1,0.2,0.8,0.7c0-0.3-0.4-0.4-0.9-0.4c0.2,0.3,0.4,0.7,0.5,1.1c-0.2,0.4-0.3,0.8-0.3,1.2c-0.1,2.8,0,5.6,0,8.4
		c0,3.2-0.1,6.5,0.1,9.7c0.1,1.5,0.8,3,1.5,4.3c0.7,1.2,3.4,1.9,4.5,1.4c2.5-1.1,4.4-2.6,4.5-5.6c0-0.6,0-1.3,0-2c0-0.2,0-0.5,0-0.7
		c0,0-0.1,0-0.1,0c-0.1-1-0.2-2.2-0.3-3.3c-0.2,0.1-0.4,0.2-0.5,0.3c0,0,0-0.1,0-0.1c0,0,0.3-0.2,0.6-0.4c0.1-0.5,0.1-1.1,0.2-1.7
		c0,0-0.1,0-0.1-0.1c0-0.3,0-0.6,0.1-0.8c-0.2,0.2-0.5,0.3-0.7,0.5c0,0-0.1,0-0.1-0.1c0.3-0.2,0.6-0.4,0.9-0.6
		c0-0.8-0.1-1.6-0.2-2.4c0-0.3,0.1-0.5,0.1-0.8c0-0.9-0.1-1.9-0.1-2.8c-0.1,0-0.1-0.1-0.1-0.1c-0.1-0.4-0.2-0.8-0.3-1.2
		c-0.2,0.2-0.4,0.4-0.7,0.7h0c0.2-0.2,0.5-0.5,0.8-0.8c0.1-0.5,0.1-0.9,0.1-1.4c0,0-0.1,0-0.1-0.1c0-0.2,0.1-0.4,0.1-0.5
		c0-0.2,0-0.5,0-0.7c0-0.3,0-0.5,0-0.8c-0.1-0.2-0.1-0.4-0.2-0.6c-0.3,0-0.5,0-0.8,0c0,0,0-0.1,0-0.1c-0.1,0-0.1,0-0.2,0
		c-0.3-0.3-0.6-0.5-0.9-0.8c-0.1,0.2-0.2,0.3-0.3,0.5c0,0,0,0,0,0c0.1-0.2,0.2-0.4,0.3-0.6c0.4,0.3,0.7,0.6,1.1,0.9
		c0.3,0,0.5,0,0.8,0c0-1.1,0-2.3,0-3.5c0,0-0.1,0-0.1,0c0-0.2-0.1-0.4-0.1-0.6c-0.3-0.1-0.6-0.1-0.8-0.1c0.2-0.2,0.5-0.2,0.9,0
		c0-0.2-0.1-0.5-0.1-0.7c-0.1-0.1-0.1-0.2-0.2-0.3c0-0.5-0.1-0.9-0.1-1.4c-0.2-1.4-0.3-2.8-0.4-4.2c-0.2,0.8-0.4,1.7-0.6,2.6
		c0.2-0.9,0.4-1.7,0.6-2.6c0-0.1,0.1-0.3,0.1-0.4c0-1.7,0-3.3,0-5c0-0.1,0-0.2,0.1-0.3c0.2-2.6,0.5-5.1,0.6-7.7
		c0.1-4.1,0.2-8.2,0.2-12.3c0-0.4-0.1-0.9-0.2-1.3c0,0-0.1,0-0.1,0c0-0.2,0-0.3-0.1-0.5c0,0,0.1,0,0.1,0c0-0.5,0.1-1,0.1-1.5
		c0,0,0,0-0.1,0c0,0,0-0.1,0-0.2c0,0,0.1,0,0.1,0c0.2-4.1,0.5-8.4,0.7-12.6c0,0,0.1-0.1,0.1-0.1v-0.1c0-0.1-0.1-0.1-0.1-0.2
		c-0.4-0.2-0.8-0.3-1.2-0.4l0-0.2c0.2,0.1,0.5,0.1,0.7,0.2c0-0.6,0.1-1.2,0.1-1.8c0,0,0,0,0.1,0c0,0,0,0-0.1,0
		c0.3-3.3,0.5-6.5,0.7-9.8c0.3-6.2,0.5-12.4,0.5-18.6c0-2.7-0.5-5.5-0.1-8.3c0-0.1,0-0.2,0-0.3c0-0.1-0.1-0.2-0.1-0.3
		c-0.1-0.2-0.1-0.5-0.2-0.7c0.1-0.5,0.1-0.9,0.1-1.4c-0.2-0.1-0.5-0.2-0.7-0.3l0-0.1c0.3-0.2,0.5-0.5,0.8-0.7
		c-0.1-0.3-0.1-0.7-0.2-1c-0.1-0.1-0.3-0.2-0.4-0.3l0-0.3c0.1,0.2,0.3,0.4,0.6,0.6c-0.1-0.9-0.1-1.7-0.2-2.5
		c-0.1,0.1-0.2,0.3-0.3,0.4l0.1-0.5c0-0.1,0.1-0.1,0.1-0.2c0.1-0.2,0.2-0.3,0.3-0.4c-0.1-0.3-0.1-0.7-0.2-1c0,0,0,0-0.1,0l0-0.1
		c0.1,0.1,0.3,0.1,0.4,0.2c-0.1-0.3-0.2-0.6-0.3-0.7l0.7-14.9c0-0.4,0.1-0.7,0.1-1.1c-0.1-2.4,0.1-2.7,2.5-2.8
		c2.2-0.2,4.4-0.5,6.6-0.7c1-0.1,1.9-0.2,2.9-0.3c2.1-0.2,4.2-0.1,6.2-1.1C155.9,18.8,157.3,14.7,156.1,12.4z M115,21.8
		c-1.3,0.1-2.6,0.4-3.5,0.6c0,0-0.1-0.1-0.1-0.1L115,21.8c0.1,0,0.1,0,0.1,0.1C115.1,21.8,115,21.8,115,21.8z M133.1,149.2
		C133.1,149.2,133.1,149.2,133.1,149.2c0,0-0.1,0.1-0.2,0.1c0,0.1,0.1,0.2,0.2,0.3c0,0,0,0-0.1,0c0-0.1-0.1-0.2-0.2-0.3
		C132.9,149.3,133,149.2,133.1,149.2z M132.3,139C132.3,139,132.3,139.1,132.3,139c-0.1,0.3-0.1,0.5-0.2,0.8c0,0,0,0,0,0
		C132.2,139.5,132.2,139.3,132.3,139z M125.9,104.8c-0.2,0-0.3,0-0.5,0c0.2-0.8,0.4-1.5,0.6-2.2L125.9,104.8z M125.7,107.5l-0.1,0.8
		c-0.2,0-0.5-0.1-0.8-0.2C125.1,108,125.4,107.7,125.7,107.5z M125.8,79.7L125.8,79.7c-0.1,0.2-0.2,0.2-0.3,0.3
		C125.7,79.9,125.8,79.8,125.8,79.7z M124.4,116.4c0.1-0.3,0.3-0.6,0.4-0.9l-0.1,1C124.6,116.5,124.5,116.4,124.4,116.4z
		 M124.7,137.9c0,0.5,0.2,1.1,0.2,1.6C124.9,139,124.7,138.4,124.7,137.9z M131.6,127.4c0.1-0.4,0.2-0.8,0.4-1.1
		C131.8,126.7,131.7,127,131.6,127.4z M133.3,86.8L133.3,86.8C133.3,86.8,133.3,86.8,133.3,86.8C133.3,86.8,133.3,86.8,133.3,86.8z"
		/>
	<path class="st0" d="M134.2,47.6c0.2,0.1,0.5,0.2,0.7,0.3c0-0.4,0.1-0.7,0.1-1C134.7,47.1,134.5,47.4,134.2,47.6z"/>
	<path class="st0" d="M134.9,49.3c0,0.2,0.1,0.5,0.2,0.7C135,49.8,135,49.5,134.9,49.3z"/>
	<path class="st0" d="M135.1,50.4c0,0.1,0,0.2,0,0.3C135.2,50.5,135.2,50.4,135.1,50.4z"/>
	<path class="st0" d="M135.1,50.7C135.2,50.7,135.2,50.6,135.1,50.7L135.1,50.7z"/>
</g>
<g>
	<path class="st0" d="M217.1,159.8c-0.7-1.5-2.1-1.8-3.5-2.2l-1.6-0.7c0,0,0,0,0.1,0l-0.1-0.1h-0.1c0,0,0.1,0.1,0.1,0.1l-0.8-0.4
		c0,0,0,0,0,0c-0.6-0.3-1.2-0.7-1.8-1c0,0.1,0,0.1,0,0.2c-0.1-0.1-0.2-0.1-0.2-0.2c0,0,0,0.1-0.1,0.1l-0.4-0.2
		c0.1-0.1,0.2-0.2,0.3-0.3c-1.4-1.2-2.8-2.4-4.1-3.6c-0.2-0.1-0.5-0.3-0.7-0.4c-1.5-1.9-3-3.8-4.6-5.8c0,0.1,0,0.1,0,0.2
		c-0.9-0.9-1.8-1.7-2.5-2.7l-2.4-5.6c-1.5-3.4-3.4-6.7-4.8-10.1c-1.2-2.8-2.2-5.7-3.3-8.5l-1.4-4.7c-0.2-1.7-0.4-3.3-0.7-5
		c-0.5-3.2-1.2-6.4-1.7-9.6c-0.2-1.7,0.6-3.1,1.6-3.2c2.5-0.2,4.9-0.3,7.3-0.5c5.8-0.4,11.5-1.2,17.3-1.3c3.5-0.1,5.8-1.5,7.6-4.1
		c0.1,0.1,0.1,0.3,0.2,0.4c0.6-1.9,1.1-3.8,1.7-5.7c-0.1,0.2-0.3,0.4-0.4,0.5l0-0.8c0.1-0.1,0.2-0.3,0.3-0.4c0-0.4,0-0.8,0.1-1.2
		c0,0,0.1,0,0.1,0c0-0.2,0-0.5,0-0.7c-0.1,0-0.2,0-0.4,0l0-0.5c0.1,0,0.2,0,0.3-0.1c0-0.1,0-0.1,0-0.2c0,0,0.1,0,0.1,0
		c0-0.8,0-1.7,0-2.5c-0.1,0-0.2,0-0.2,0l0-0.5c0,0,0.1,0,0.1,0c0-1,0.1-1.9,0.1-2.9c0-0.8,0-1.7,0-2.5l0,0l0,0c0-1.9,0.1-3.8,0-5.7
		c0-2.2-0.3-4.4-0.3-6.6l0-0.1c0-3.7,0.1-7.3-0.1-11c0-1.2-0.1-2.3-0.3-3.5v0l0,0c-0.4-3.5-1-7-1-10.5c-0.1-3.4-1.1-6.9-1.7-10.3
		c-0.1-0.1-0.2-0.2-0.2-0.3c0-0.2-0.1-0.5-0.1-0.7c-0.1,0.1-0.3,0.1-0.4,0.1c0,0,0,0,0,0c0,0,0,0,0,0c-0.1,0-0.2,0-0.3,0.1
		c0.1-0.2,0.2-0.4,0.3-0.6c0-0.1,0-0.2-0.1-0.3c-0.1-0.1-0.1-0.1-0.2-0.2c0-0.1-0.1-0.2-0.1-0.2c-0.2-0.3-0.5-0.7-0.7-1l0,0l0,0
		c-0.3-0.4-0.7-0.9-1-1.3v0l-0.9-1.2c-0.1-0.2-0.2-0.3-0.4-0.5l-2-2.6c0.1-0.1,0.1-0.3,0.2-0.4c-0.1-0.1-0.1-0.3-0.2-0.4
		c-0.2,0-0.3,0-0.5,0.1l-2.9-2.5c0-0.1,0-0.2,0-0.4c-0.2-0.1-0.4-0.1-0.6-0.1c-0.3-0.2-0.5-0.3-0.8-0.5c-0.1,0.1-0.1,0.3-0.2,0.4
		l-0.5-0.1c-0.9-0.3-1.8-0.7-2.4-0.7c-2.3,0.2-4.6,0.5-6.8,1.2c-1.1,0.3-2.1,0.8-3.1,1.4h0l0,0c-1,0.6-1.9,1.4-2.6,2.2l-0.9,0.8
		c-0.1,0-0.2,0.1-0.3,0.1c-0.2,0.1-0.3,0.2-0.5,0.3c-0.1,0.2-0.3,0.4-0.4,0.6l-0.7,1.1c-0.2,0.2-0.3,0.4-0.5,0.6c0,0,0,0-0.1,0
		c0,0,0,0.1,0,0.1c-0.1,0.2-0.2,0.3-0.3,0.5c0,0,0.1,0,0.1,0l-0.6,1c0-0.1,0-0.2,0-0.3c-0.9,1.7-1.9,3.5-2.9,5.3
		c0.1,0,0.1,0,0.2-0.1l-0.2,0.3c-0.1-0.1-0.1-0.1-0.2-0.2c-0.3,0.4-0.6,0.8-0.8,1.3c-0.5,1.4-1.1,2.8-1.6,4.3
		c-1.3,4.3-2.6,8.6-3.9,12.9c-0.5,1.6-0.7,3.3-1.1,4.9c0,0,0,0.1,0.1,0.1c-0.2,1.1-0.5,2.2-0.7,3.3c0,0-0.1,0.1-0.1,0.1
		c-0.1,0.1-0.1,0.3-0.1,0.4c0,0,0,0.1,0,0.2c0.1,0.1,0.1,0.1,0.2,0.2l0,0.3c-0.1,0-0.1,0-0.2,0c-0.1,0.2-0.3,0.4-0.4,0.6
		c0.1,0.1,0.1,0.2,0.1,0.3c-0.2,0.9-0.3,1.8-0.5,2.8c-0.1,0.1-0.2,0.2-0.2,0.3c0,0.7,0,1.4,0,2.1c0,0.6,0,1.2,0,1.8
		c-0.1,0.1-0.1,0.2-0.1,0.3l0,0c0,0,0,0,0,0c0,0,0,0.1,0,0.1v0.1c0.1,0.2,0.1,0.3,0.2,0.5c0,0,0.1,0,0.1,0.1
		c0.1,0.9,0.1,1.8,0.1,2.7c0,0.2-0.1,0.3-0.1,0.5c-0.1,0.5-0.1,0.9-0.1,1.4c0.1,0,0.1,0,0.2,0c0,0.2,0,0.4,0,0.7
		c0.2,0.1,0.3,0.1,0.4,0.2l0,0c-0.2-0.1-0.3-0.1-0.4-0.2c0,0.2,0,0.4,0,0.7c0.2-0.1,0.3-0.2,0.4-0.3l0,0c-0.1,0.1-0.3,0.2-0.3,0.2
		c-0.1,0.2-0.2,0.5-0.3,0.7c0,0.2,0.1,0.4,0.1,0.6c-0.1,0.1-0.1,0.1-0.2,0.2c0,0.8,0,1.7,0,2.5c0,0.1,0.1,0.1,0.1,0.2
		c-0.1,0.4-0.1,0.7-0.1,1c0.2,0,0.4-0.1,0.6-0.1v0c-0.3,0.1-0.5,0.1-0.8,0.2c0.1,0.2,0.1,0.5,0.1,0.7c0,0,0.1,0,0.1,0.1
		c0,0.5,0,0.9-0.1,1.3c0,0.2,0,0.5,0,0.7c-0.1,0.9-0.2,1.8-0.3,2.8c0,0,0,0.1-0.1,0.1c0,0,0,0,0,0.1c0,0.1,0,0.1,0,0.2
		c0-0.1,0-0.1,0.1-0.1c0.1,0.2,0.2,0.4,0.2,0.6c0.2-0.2,0.3-0.4,0.5-0.6c0.1,0.1,0.2,0.2,0.3,0.3c0,0-0.1,0.1-0.1,0.1
		c-0.1-0.1-0.1-0.1-0.2-0.2c-0.2,0.2-0.3,0.4-0.5,0.6c-0.1,0.2,0,0.2,0.1,0.3c0,0,0,0,0,0c0.1,1.5,0.3,3.2,0.3,4.8
		c0,2.1-0.1,4.2,0.3,6.3c0.8,4.6,1,9.2,1.6,13.8c0.3,2.4,0.8,4.6,1.4,6.9c0.5,2.3,1.2,4.6,1.9,6.9c0.9,3,1.6,6,2.6,8.9
		c0.8,2.5,1.9,5,3,7.5c0.9,2,1.9,4,3,5.9c0.3,0.5,0.6,1.1,0.9,1.6l0,0l0,0c1,1.8,2.1,3.5,3,5.3c1.6,3,3.6,5.7,6.1,8
		c0.4,0.5,0.6,1.1,1.1,1.9c0.6,0.6,1.3,1.1,2,1.7c0.1,0,0.1-0.1,0.2-0.1c1.9,1.9,3.8,3.7,5.8,5.6c0-0.2,0-0.4,0-0.6l0.1,0.1
		c0,0.3,0,0.6,0,0.9c0.3,0.2,0.7,0.4,1,0.6c0.1,0,0.2,0,0.3,0c0.1,0.1,0.2,0.1,0.3,0.1c0.2,0.1,0.5,0.2,0.7,0.3
		c0.7,0.2,1.4,0.4,2.1,0.6c0.1-0.1,0.2-0.2,0.3-0.2c2.9,1,5.4,0.8,7.5-2.1C219.2,165.1,219.2,161.6,217.1,159.8z M180.3,82.8
		c0.1-0.1,0.1-0.2,0.2-0.4C180.4,82.6,180.4,82.7,180.3,82.8C180.3,82.8,180.3,82.8,180.3,82.8z M182.1,86.1
		C182.1,86.1,182.2,86.1,182.1,86.1c0.1,0,0.2,0.1,0.3,0.1l-0.1,0.1C182.3,86.3,182.2,86.2,182.1,86.1z M179.1,76.7
		C179.1,76.7,179.1,76.7,179.1,76.7C179.1,76.7,179.1,76.7,179.1,76.7L179.1,76.7z M177.1,73.7c-0.2,0.1-0.4,0.2-0.5,0.3l-0.1-0.3
		C176.7,73.6,176.9,73.6,177.1,73.7z M207.1,31.4l0.1,0.2c0,0,0,0-0.2,0.1C207,31.6,207.1,31.5,207.1,31.4z M180.2,71.8
		c0.1-2,0-3.9,0.1-5.9c0.2-2.2,0.3-4.5,0.6-6.7c0.2-1.6,0.9-3,1.1-4.5c0.2-1,0-2.1-0.3-3.1c-0.4-1.2,0.1-2.3,0.8-2.8
		c1.1-0.8,1-1.8,1-2.8c0-0.3,0-0.7,0.1-1c0.7-2.4,1.3-4.8,2.1-7.1c0.7-2,1.6-3.9,2.6-5.7c1.4-2.5,2.8-4.9,4.3-7.2
		c0.9-1.4,2.9-1.9,4.7-1.7l2.8,1.2c0.3,0.2,0.5,0.4,0.8,0.6l2.7,1.7c0.2,0.7,0.5,1.4,0.7,2.1c0.6,1.2,1.2,2.4,1.8,3.6
		c0.1-0.1,0.2-0.1,0.3-0.2c0.4,0.9,0.8,1.7,0.9,2.6c0.2,1.9,0.1,3.9,0.1,5.9l0,0.6c-0.1,0-0.2-0.1-0.2-0.1c0.3,2.4,0.5,4.8,0.8,7.2
		l0.1,1.3l0.1,0.5c0-0.1,0-0.1-0.1-0.2c0.1,1.2,0.2,2.4,0.3,3.6c0.1,0,0.1,0,0.2-0.1l0.3,2c0-0.1-0.1-0.2-0.2-0.3
		c0.1,1.7,0.3,3.5,0.4,5.3c0.1-0.4,0.2-0.9,0.2-1.3l0.1,0.7c0,0,0,0.1,0,0.1c0,0.3-0.1,0.7-0.1,1c0.1,0.3,0.3,0.6,0.4,0.9l0.5,3.7
		c-0.1-0.7-0.2-1.3-0.3-1.9c-0.2-0.7-0.5-1.4-0.8-2.1c-0.3,1.7,1,3.4,0,5c0.1,0,0.2-0.1,0.2-0.1c0,0.3,0,0.6,0,0.9
		c0.8,0.3,1,0.7,0.5,1.1c-0.1-0.2-0.3-0.3-0.7-0.5c0,0.4,0.1,0.9,0.1,1.4c0,0,0.1-0.1,0.1-0.1c0,0.1,0,0.1,0,0.2
		c0.3,0.2,0.5,0.3,0.8,0.5c-0.1,0.2-0.3,0.3-0.4,0.5c-0.2-0.1-0.4-0.2-0.6-0.4c0.1,0.3,0.1,0.7,0.2,1.1c0.1-0.1,0.2-0.2,0.2-0.3
		c0.5,3.2-0.3,6.2-1.2,9.3c-0.1,0.4-0.5,0.9-0.9,1c-1.6,0.4-3.1,0.8-4.7,1c-2.2,0.3-4.3,0.5-6.5,0.7c-0.4,0.2-0.7,0.6-1.1,0.9
		c-0.3,0.1-0.7,0.3-1,0.4c-0.2,0-0.5,0-0.7-0.1c-0.4-1.2-1.3-0.9-2.1-0.6c-0.1,0.1-0.1,0.3-0.2,0.5c-0.1,0-0.1,0-0.2,0
		c-0.1-0.1-0.2-0.3-0.3-0.4c-0.2,0-0.5,0-0.7,0c0,0.5,0,1.1,0,1.6c-0.1,0-0.1,0-0.2,0c0-0.4,0-0.8,0-1.1c-0.1,0-0.3,0-0.5,0
		c0-0.2,0-0.3,0-0.5c-0.2,0-0.3,0-0.4,0c-0.1,0.2-0.3,0.3-0.4,0.5c-0.5,0-1,0-1.5,0.1c-0.1-0.2-0.2-0.3-0.3-0.5
		c-0.6,0.1-1.1,0.1-1.7,0.2c-0.2,0.2-0.4,0.3-0.6,0.4c-0.5-0.1-1-0.2-1.5-0.4c0-0.1-0.1-0.1-0.1-0.2c-0.2,0-0.5-0.1-0.7-0.1
		c-0.3,0.5-0.5,0.9-0.8,1.4c-0.1,0.1-0.1,0.2-0.1,0.3c-0.1-0.1,0-0.3,0.1-0.5c0,0.1,0.1,0.1,0.1,0.2c0.3-0.5,0.5-0.9,0.8-1.4
		c-0.3-2.2-0.7-4.3-1-6.5c-0.1-0.6-0.3-1.1-0.4-1.7c-0.2,0.1-0.4,0.1-0.6,0.1C180,74.4,180.2,73.1,180.2,71.8z M196.3,158.1
		c0-0.1,0-0.2,0-0.3l0,0C196.3,157.9,196.3,158,196.3,158.1z M203,150.9C203,150.9,203,150.9,203,150.9
		C203,150.9,203,150.9,203,150.9l-0.3-0.4c0,0,0,0,0.1-0.1c0.1,0.1,0.2,0.2,0.3,0.3C203.1,150.8,203,150.9,203,150.9z M204.7,153.6
		c0.7,0.3,1.5,0.5,2.1,0.9L204.7,153.6z"/>
	<path class="st0" d="M208.1,50.1c0-0.1,0-0.2,0-0.3c-0.1,0.1-0.2,0.1-0.3,0.2C207.9,50,208,50.1,208.1,50.1z"/>
</g>
<g>
	<path class="st0" d="M286.7,88.3l0-0.4c0.1,0,0.1-0.1,0.2-0.1c-0.1-0.4-0.1-0.7-0.1-1.1l0,0c0-2,0-4.1-0.1-6.3c0,0,0.1-0.1,0.1-0.1
		c0,0-0.1,0.1-0.1,0.1c0-0.1,0-0.1,0-0.2c0,0,0,0,0,0c0-0.5-0.1-0.8-0.1-1.3c-0.1,0-0.1,0.1-0.2,0.1l0.1-0.4c0,0,0.1,0,0.1-0.1
		c0-0.1,0-0.1,0-0.2c0.1,0,0.1,0,0.2,0c0-1.3,0.1-2.6,0.2-4l-0.3-1.2c0-0.2,0-0.4,0-0.6c-0.1-0.2-0.1-0.4-0.2-0.7
		c0.1,0.4,0.3,0.8,0.4,1.2c-0.6-6.3-1.2-12.6-1.9-18.9c-0.1,0-0.2,0.1-0.3,0.1l0-0.5c0.1,0,0.1,0,0.2,0c-0.1-0.3-0.1-0.5-0.2-0.8
		l0,0c0-0.2,0-0.4,0-0.6c0.1,0.1,0.1,0.2,0.2,0.2c-0.1-0.7-0.2-1.4-0.3-2.1c0,0,0,0,0,0l-0.1-1.5c0.1,0,0.1,0,0.2,0.1
		c-0.4-3.4-0.7-6.7-1.1-10c0,0.1-0.1,0.2-0.1,0.3l-0.1-0.9c0-0.2-0.1-0.4-0.1-0.6c-0.1-0.3-0.1-0.5-0.2-0.8c0-0.4,0-0.8-0.1-1.2
		c0.1,0,0.1,0,0.2,0c-0.2-0.7-0.3-1.5-0.5-2.2c-0.5-1.4-1.2-2.8-1.8-4.2c0,0.1,0,0.1,0,0.2l-0.2-0.4c0-0.1,0-0.2,0-0.3
		c0-0.1,0-0.1,0-0.2c0,0,0.1,0,0.1,0c0-0.1-0.1-0.2-0.1-0.4c0,0,0,0,0,0c0,0,0,0,0,0c-0.3-1-0.5-2-0.9-3c-0.2,0.3-0.3,0.6-0.6,0.7
		c0,0,0,0,0,0l-0.2-0.4c0,0,0.1,0,0.1,0c0.2-0.2,0.3-0.4,0.5-0.6c0.1,0.1,0.3,0.1,0.4,0.2c-0.5-1-1-1.9-1.5-2.9
		c-0.1,0.1-0.2,0.2-0.3,0.3l0-0.1c0.1-0.1,0.1-0.1,0.2-0.2c-0.1-0.1-0.1-0.2-0.2-0.2c0,0,0,0,0-0.1c-0.4-0.9-0.9-1.9-1.3-2.9
		c0-0.1-0.1-0.2-0.2-0.3c-1.2-1.2-2.3-2.3-3.5-3.5c-2.9-2.8-6.5-3.2-10.2-2.1c-3.2,0.9-5.4,2.8-7.2,5.2c-1.8,2.3-3.5,4.9-4.6,7.6
		c-1.7,4.1-2.9,8.5-4.2,12.8c-0.9,2.9-1.7,5.8-2.4,8.7c-0.2,1-0.5,2-0.7,3.1c-0.7,3.2-1,6.5-1.4,9.8c0,0,0,0,0,0.1
		c-0.1,0.2-0.2,0.4-0.3,0.5c-0.1,2.3-0.2,4.6-0.3,6.9c-0.2,2.4-0.5,4.9-0.5,7.4c-0.1,3.1,0.1,6.4,0.1,9.5c0,0.1-0.1,0.2-0.1,0.3
		c0,0.1,0.1,0.1,0.1,0.2c-0.2,1.4-0.4,2.8-0.4,4.1c0.1,2.3,0.3,4.5,0.4,6.8c0,0.1,0,0.3-0.1,0.4c0.3,2,0.5,3.9,0.7,5.8
		c0.2,0.4,0.3,0.7,0.4,1.1c0,1.2-0.1,2.4,0.2,3.7c0.2,2.3,0.5,4.7,0.8,7c0-0.1,0.1-0.2,0.1-0.3l-0.1,1l0.7,4.3
		c-0.2-0.7-0.3-1.5-0.5-2.2c0.2,2.5,0.4,5,0.6,7.4c0.1-0.8,0.3-1.4,0.3-2.2l0.2,1.3c-0.1,0.4-0.2,0.8-0.2,1.2
		c0.1,0.5,0.1,0.9,0.2,1.4c0.2,0.3,0.3,0.5,0.5,0.8l0.1,0.6c-0.2-0.6-0.6-1.1-0.9-1.6c0.4,2.5,0.7,5,1.1,7.6c0.1-0.1,0.1,0,0,0
		c0.2,0.4,0.5,0.9,0.7,1.3c-0.1-1.4-0.1-2.7-0.2-4.1l0.2,4.1l0.4,0.6c0.6,3.6,1.1,7.1,1.8,10.6c0.5,2.5,1.2,4.9,1.9,7.4
		c0,0.2-0.1,0.5-0.1,0.7c0.1,0.1,0.1,0.2,0.2,0.3c0.1,0.1,0.2,0.2,0.3,0.3c0.3,0.7,0.5,1.3,0.7,1.8c1.2,1.6,1.1,3.8,3,4.9
		c0,0.1,0,0.1,0,0.2c0.1,0,0.2,0.1,0.3,0.1c0.8,1.1,1.5,2.1,2.2,3.1c0,0.2,0.1,0.3,0.1,0.5c0.2,0.1,0.3,0.2,0.4,0.3
		c0.1,0,0.2,0.1,0.3,0.1c0.3,0.7,0.6,1.3,0.9,2c0,0.2,0,0.5,0.1,0.7c0.9,1.5,3.8,2.8,5.9,2.5c3.5-0.6,6.2-2.4,8.6-5.1
		c3-3.4,4.9-7.2,5.9-11.5c0.6-2.4,1-4.9,1.4-7.4l0,0l0.2-1.5c0.2-1.3,0.4-2.6,0.6-4l0.1-0.4c0.1,0.1,0.1,0.2,0.2,0.3
		c0-0.2,0-0.4,0.2-0.6c-0.1-0.1-0.1-0.2-0.2-0.3c0,0,0-0.1,0-0.1l0.8-2.7c0,0,0,0,0.1,0c0.1-0.1,0.1-0.3,0.1-0.5l0-1.7
		c0.1-1.4,0.2-2.8,0.3-4.1c0,0,0,0,0-0.1l0.1-0.4c0.1,0.1,0.1,0.3,0.2,0.4c0.1-1,0.3-1.9,0.5-2.8v-1.1c0.2-0.7,0.3-1.3,0.5-2
		c-0.2-0.2-0.3-0.3-0.4-0.4c0.1-0.2,0.3-0.3,0.7,0.3c0-0.6,0-1.1,0-1.8c-0.1-0.1-0.2-0.2-0.3-0.2c0.1-0.6,0.1-1.2,0.2-1.8
		c-0.2,0-0.4-0.1-0.6-0.1l0-0.1c0.2,0.1,0.5,0.2,0.9,0.2c0.2-1.1,0.4-2.2,0.6-3.2c-0.1,0-0.2,0-0.3-0.1c0.1-0.2,0.1-0.4,0.2-0.6
		c-0.4-0.1-0.7-0.1-1-0.2l0-0.1c0.4,0.2,0.9,0.2,1.4,0.3c0.1-2.5,0.3-5,0.5-7.6c-0.1-0.1-0.2-0.1-0.4-0.2c0.1-0.4,0.2-0.9,0.3-1.4
		c0.1,0,0.2,0,0.3,0.1c-0.1-1.3-0.3-2.6-0.2-3.8c0.1-3,0.5-5.9,0.6-8.9C287,93.2,286.8,90.7,286.7,88.3
		C286.8,88.2,286.7,88.2,286.7,88.3z M242.5,65.8L242.5,65.8c-0.1,0.3-0.2,0.5-0.3,0.7C242.2,66.3,242.3,66,242.5,65.8z M241.8,83.6
		c-0.1,0.3-0.2,0.6-0.3,0.9C241.6,84.2,241.7,83.9,241.8,83.6z M241.6,95.5c0.3-0.1,0.6-0.1,0.8-0.1l0,0
		C242.2,95.5,241.9,95.5,241.6,95.5C241.6,95.5,241.6,95.5,241.6,95.5z M241.7,99.1c0.3-0.9,0.5-1.7,0.8-2.5l0,0
		C242.2,97.4,242,98.2,241.7,99.1z M243.7,110.5c-0.1-0.2-0.1-0.6,0-0.8c0,0,0,0,0-0.1l0.1,0.7c0,0.2,0,0.3,0.1,0.5
		C243.8,110.7,243.8,110.6,243.7,110.5z M242.6,64.6L242.6,64.6c0.8-0.3,1.6-0.5,2.3-0.8c0,0,0,0,0,0.1
		C244.1,64.1,243.4,64.4,242.6,64.6z M286.5,80.4c-0.1,0.1-0.1,0.1-0.2,0.2l0-0.1C286.4,80.5,286.4,80.5,286.5,80.4z M285.6,67.8
		l0-0.2C285.6,67.7,285.6,67.8,285.6,67.8z M285.1,57.6c-0.1,0-0.1,0.1-0.2,0.1l0-0.1C285,57.6,285,57.6,285.1,57.6z M278.3,82
		c-0.1-0.1-0.1-0.2-0.1-0.3c0,0.1,0.1,0.1,0.1,0.2L278.3,82z M277.5,21c0,0,0.1,0,0.1,0c0,0.1,0,0.2,0,0.3c-0.1,0-0.2,0-0.3,0l0-0.1
		c0.1,0,0.2,0,0.3-0.1C277.5,21.1,277.5,21.1,277.5,21z M274.2,17.3L274.2,17.3C274.2,17.3,274.2,17.3,274.2,17.3
		C274.2,17.3,274.2,17.3,274.2,17.3z M272.3,35.3l0,0.1C272.3,35.4,272.3,35.3,272.3,35.3C272.3,35.3,272.3,35.3,272.3,35.3z
		 M264.5,20.7L264.5,20.7C264.5,20.7,264.5,20.7,264.5,20.7L264.5,20.7z M248.7,143.4c0.2,0.2,0.5,0.3,0.8,0.4c0,0,0,0.1,0,0.1
		C249.1,143.8,248.9,143.6,248.7,143.4z M249.7,140.9c0.2,0.1,0.3,0.3,0.4,0.4C250,141.2,249.8,141,249.7,140.9z M272.5,140.3
		c-0.5,2.1-0.8,4.3-1.2,6.5c-0.1,0-0.1,0-0.1,0.1c-0.1,0.2-0.2,0.5-0.3,0.7c0.4,0,0.7,0.1,1,0.1c0,0,0,0.1,0,0.1
		c-0.3,0-0.7-0.1-1-0.1c-0.9,2.2-1.8,4.4-2.8,6.6c-0.6,1.3-2.7,2.4-3.8,2.1c-0.2,0.4-0.5,0.8-0.7,1.2c0,0,0,0-0.1,0
		c0.4-0.6,0.6-1,0.8-1.4c-3.1-3.4-5.6-7.1-6.4-11.8c-0.1-0.4-0.3-0.7-0.5-1.1c0,0,0,0-0.1,0c-0.3-1.1-0.5-2.2-0.7-3.2
		c-0.1-0.3-0.4-0.4-0.6-0.6l-0.1-0.2c0,0,0,0,0.1,0c-0.1-0.4-0.3-0.9-0.4-1.3c0,0,0,0,0,0c-0.1-1.1-0.2-2.2-0.3-3.4
		c-0.2,0-0.4,0-0.7,0.1l0-0.1c0.3,0,0.5,0,0.7-0.1c-0.1-0.4-0.2-0.7-0.3-1.1c0,0,0,0,0,0c-0.1-0.8-0.1-1.6-0.2-2.4
		c-0.2,0.2-0.3,0.5-0.3,0.8c0-0.4,0.1-0.7,0.3-0.9c0,0,0-0.1,0.1-0.1c0,0,0.1,0,0.1,0c-0.6-2.5-1.3-5-1.8-7.5s-0.8-5-1.1-7.6
		c-0.5-4.8-1.2-9.6-1.5-14.4c-0.3-4.6-0.3-9.2-0.3-13.8c-0.1-3.8-0.2-7.5,0-11.3c0.1-2.9,0.7-5.8,0.9-8.7c0.3-3.6,0.2-7.1,0.5-10.7
		c0.2-1.9,0.6-3.7,1-5.5c0.5-2.7,1.1-5.4,1.7-8.1c0.2-1,0.7-1.9,1.1-2.9c0.7-1.9,1.6-3.8,2.2-5.7c0.6-1.7,0.7-3.6,1.4-5.3
		c0.7-1.8,1.9-3.5,2.9-5.2c0.1-0.2,0.4-0.3,0.5-0.5c0.5-1.1,1.2-1.8,2.3-1.2c0.9,0.5,1.5,1.4,2.2,2.1c0.2,0.2,0.3,0.3,0.5,0.5
		c0.8,1.7,1.6,3.4,2.4,5.1c0.4,0.2,0.8,0.4,1.3,0.6c0,0,0,0,0,0.1c-0.4-0.2-0.8-0.5-1.3-0.6c0.2,0.6,0.4,1.3,0.6,2.1
		c0.3-0.1,0.6-0.2,1-0.3l0,0c-0.3,0.1-0.7,0.2-1,0.3c0.2,0.2,0.3,0.5,0.5,0.7c0,0,0,0,0,0.1c0.4,1.7,0.9,3.5,1.2,5.2
		c0,0-0.1,0-0.1,0.1c0,0.2,0,0.5,0,0.7c0.1,0.2,0.2,0.3,0.3,0.4c0.4,1.7,0.9,3.3,1.3,5l1.9,13.1c0.2,4.4,0.5,8.7,0.7,13.1
		c0.1,2.5,0.3,4.9,0.4,7.4c0.1,3.2,0.2,6.4,0.3,9.6c-0.1,0.2-0.1,0.5-0.1,0.7c0.5,0.3,0.9,0.6,1.2,0.9l0,0.1
		c-0.3-0.3-0.6-0.5-1.1-0.8c-0.2,1.6-0.4,3.2-0.5,4.8c-0.1,2.8-0.2,5.6-0.2,8.4c0,2.1,0.4,4.2,0.3,6.2c-0.2,2.2-0.7,4.5-1,6.7
		c-0.1,1,0,2.1-0.1,3.2c-0.3,2.4-0.8,4.8-1,7.2C274.2,130.1,273.8,135.2,272.5,140.3z M278,101.2c-0.1,0-0.1-0.1-0.1-0.2
		c0,0,0.1,0,0.2,0.1L278,101.2z M277.3,104.8C277.3,104.8,277.2,104.8,277.3,104.8C277.2,104.8,277.3,104.8,277.3,104.8L277.3,104.8
		z M275.1,133.7C275.1,133.7,275.2,133.7,275.1,133.7c0.2,0.1,0.2,0.1,0.3,0.2l0,0c0,0,0,0,0,0.1
		C275.3,133.9,275.2,133.8,275.1,133.7z M275.7,131.4c0,0,0-0.1,0-0.2c0,0,0,0,0,0L275.7,131.4z M275.5,120.8
		C275.5,120.8,275.5,120.8,275.5,120.8c0.3,0.4,0.5,0.8,0.7,1.1l0,0C276,121.6,275.7,121.2,275.5,120.8z M276.3,118.4
		C276.3,118.4,276.3,118.4,276.3,118.4C276.3,118.4,276.3,118.4,276.3,118.4C276.3,118.4,276.3,118.4,276.3,118.4z M276.3,113.5
		c0-0.1,0-0.1,0-0.2c0.1,0,0.1,0,0.2,0.1l0,0.2C276.4,113.5,276.4,113.5,276.3,113.5z M284.3,118c0,0.2-0.1,0.4-0.1,0.5L284.3,118
		C284.2,118,284.3,118,284.3,118z M286.2,96.7l0-0.3c0,0,0.1-0.1,0.1-0.1c0.1-0.1,0.1-0.2,0.1-0.3C286.4,96.2,286.3,96.5,286.2,96.7
		z"/>
	<path class="st0" d="M243.4,114.8c0,0.5,0.1,1.1,0.2,1.7C243.5,116,243.5,115.4,243.4,114.8z"/>
	<path class="st0" d="M284.9,52.4c-0.1,0.3,0,0.6,0,1C284.9,53.1,284.9,52.8,284.9,52.4z"/>
	<path class="st0" d="M276.6,18.6c0,0.1,0.1,0.2,0.2,0.3C276.7,18.8,276.6,18.7,276.6,18.6z"/>
</g>
</svg>
